<?xml version="1.0" standalone="no"?>
<!DOCTYPE svg PUBLIC "-//W3C//DTD SVG 1.1//EN" "http://www.w3.org/Graphics/SVG/1.1/DTD/svg11.dtd">
<svg t="1605399923175" id="add" class="icon" viewBox="0 0 1024 1024" version="1.1" xmlns="http://www.w3.org/2000/svg" p-id="1947" xmlns:xlink="http://www.w3.org/1999/xlink" ><path d="M873.753974 149.961384A511.715358 511.715358 0 1 0 149.676742 874.038616 511.715358 511.715358 0 0 0 873.753974 149.961384zM831.537457 828.623878a447.750939 447.750939 0 1 1-633.247756-633.247756 447.750939 447.750939 0 0 1 633.247756 633.247756z" fill="" p-id="1948"></path><path d="M767.573037 480.01779H543.697568V256.142321a31.98221 31.98221 0 0 0-63.96442 0v223.875469H255.857679a31.98221 31.98221 0 0 0 0 63.96442h223.875469V767.857679a31.98221 31.98221 0 0 0 63.96442 0V543.98221H767.573037a31.98221 31.98221 0 0 0 0-63.96442z" fill="" p-id="1949"></path></svg>