<svg xmlns="http://www.w3.org/2000/svg" >
<symbol id="icon_layout" viewBox="0 0 32 32">
<g transform="translate(-4 -4)">
<path class="b" d="M953.5,584.562H935.178a2.617,2.617,0,0,0-2.618,2.616V605.5a2.618,2.618,0,0,0,2.618,2.618H953.5a2.618,2.618,0,0,0,2.618-2.618V587.18A2.618,2.618,0,0,0,953.5,584.562Zm-11.922,16.127-1.644,1.644-4.384-4.384-1.644-1.644,1.644-1.644,4.384-4.384,1.644,1.644-4.384,4.385Zm2.616,1.895h-2.376l2.626-12.467h2.376Zm8.934-4.635-4.384,4.384-1.644-1.644,4.384-4.384L947.1,591.92l1.644-1.644,4.384,4.384,1.644,1.644Z" transform="translate(-924.56 -576.562)"/>
</g>
</symbol>
</svg>