<svg id="wikipali_without_studio" xmlns="http://www.w3.org/2000/svg"  viewBox="0 0 336.454 134">
  <g id="Group_12" data-name="Group 12" transform="translate(-396 -319)">
    <g id="Group_2" data-name="Group 2" transform="translate(396 319)">
      <g id="Group_1" data-name="Group 1" transform="translate(96.697 30.301)">
        <path id="Path_1" data-name="Path 1" d="M258.951,153.873a2.9,2.9,0,0,1-1.8-.6,2.8,2.8,0,0,1-1.039-1.543l-8.443-31.183a2.022,2.022,0,0,1-.062-.5,1.673,1.673,0,0,1,.379-1.008,1.6,1.6,0,0,1,1.32-.629h3.023a2.765,2.765,0,0,1,1.765.6,2.869,2.869,0,0,1,1.008,1.543l4.159,17.074q.064.252,1.953,9.954a.113.113,0,0,0,.129.125.112.112,0,0,0,.125-.125q2.267-9.7,2.331-9.954l4.413-17.074a2.908,2.908,0,0,1,2.773-2.14h2.456a2.908,2.908,0,0,1,2.769,2.14l4.534,17.074q.375,1.576,1.164,4.882t1.23,5.073a.112.112,0,0,0,.125.125.206.206,0,0,0,.191-.125q.187-1.136.883-4.569t1.133-5.385l4.034-17.074a2.908,2.908,0,0,1,2.773-2.14H294.8a1.618,1.618,0,0,1,1.324.629,1.772,1.772,0,0,1,.379,1.07,1.99,1.99,0,0,1-.062.441l-8,31.183a2.8,2.8,0,0,1-1.039,1.543,2.876,2.876,0,0,1-1.8.6h-4.413a2.765,2.765,0,0,1-1.765-.6,2.855,2.855,0,0,1-1.008-1.543L274.447,136.3q-.633-2.519-2.2-10.079a.232.232,0,0,0-.223-.125.222.222,0,0,0-.219.125q-1.259,6.678-2.206,10.146l-3.78,15.371a2.855,2.855,0,0,1-1.008,1.543,2.743,2.743,0,0,1-1.765.6h-4.093Z" transform="translate(-247.61 -102.469)" fill="#fff"/>
        <path id="Path_2" data-name="Path 2" d="M399.972,86.4a4.869,4.869,0,0,1-3.4,1.23,4.758,4.758,0,0,1-3.37-1.23,4.069,4.069,0,0,1-1.32-3.12A4.145,4.145,0,0,1,393.2,80.1a4.752,4.752,0,0,1,3.37-1.23,4.845,4.845,0,0,1,3.4,1.23,4.1,4.1,0,0,1,1.355,3.179A4.027,4.027,0,0,1,399.972,86.4Zm-4.819,43.375a2.254,2.254,0,0,1-2.269-2.269V96.514a2.117,2.117,0,0,1,.66-1.543,2.186,2.186,0,0,1,1.609-.66h2.835a2.193,2.193,0,0,1,1.609.66,2.119,2.119,0,0,1,.664,1.543v30.992a2.26,2.26,0,0,1-2.273,2.269Z" transform="translate(-335.539 -78.37)" fill="#fff"/>
        <path id="Path_3" data-name="Path 3" d="M445.639,128.994a2.253,2.253,0,0,1-2.269-2.269V79.793a2.13,2.13,0,0,1,.66-1.543,2.186,2.186,0,0,1,1.609-.66h2.71a2.214,2.214,0,0,1,1.609.66,2.115,2.115,0,0,1,.66,1.543v30.871c0,.043.031.062.094.062a.224.224,0,0,0,.16-.062L463.345,95.23a4.484,4.484,0,0,1,3.655-1.7h3.718a.947.947,0,0,1,.914.6.935.935,0,0,1-.156,1.1L461.018,107.7a.409.409,0,0,0,0,.441l12.094,18.96a1.2,1.2,0,0,1,.191.629,1.179,1.179,0,0,1-.191.629,1.1,1.1,0,0,1-1.07.629h-3.589a3.8,3.8,0,0,1-3.4-1.89l-8.318-13.922c-.082-.168-.187-.187-.316-.062l-5.6,6.49a.823.823,0,0,0-.191.5v6.615a2.254,2.254,0,0,1-2.269,2.269h-2.714Z" transform="translate(-366.921 -77.59)" fill="#fff"/>
        <path id="Path_4" data-name="Path 4" d="M545.4,86.4a4.869,4.869,0,0,1-3.4,1.23,4.752,4.752,0,0,1-3.37-1.23,4.069,4.069,0,0,1-1.32-3.12,4.145,4.145,0,0,1,1.32-3.179A4.758,4.758,0,0,1,542,78.87a4.845,4.845,0,0,1,3.4,1.23,4.1,4.1,0,0,1,1.355,3.179A4.04,4.04,0,0,1,545.4,86.4Zm-4.819,43.375a2.26,2.26,0,0,1-2.273-2.269V96.514a2.106,2.106,0,0,1,.664-1.543,2.186,2.186,0,0,1,1.609-.66h2.835a2.193,2.193,0,0,1,1.609.66,2.115,2.115,0,0,1,.66,1.543v30.992a2.254,2.254,0,0,1-2.269,2.269Z" transform="translate(-424.176 -78.37)" fill="#fff"/>
        <path id="Path_5" data-name="Path 5" d="M591.075,167.236a2.253,2.253,0,0,1-2.265-2.265V119.612a2.253,2.253,0,0,1,2.265-2.269h1.574a2.488,2.488,0,0,1,1.671.629,2.784,2.784,0,0,1,.914,1.574l.187,1.574c.043.086.094.129.156.129a.234.234,0,0,0,.16-.062q5.67-4.727,10.837-4.725a12.237,12.237,0,0,1,10.364,4.882q3.685,4.885,3.687,13.2a24.893,24.893,0,0,1-1.261,8.1,17.127,17.127,0,0,1-3.4,6.049,15.857,15.857,0,0,1-4.881,3.687,13.081,13.081,0,0,1-5.764,1.324q-4.534,0-9.134-3.843a.077.077,0,0,0-.125,0,.182.182,0,0,0-.062.129l.187,5.8v9.2a2.253,2.253,0,0,1-2.269,2.265h-2.839Zm12.852-19.655a7.724,7.724,0,0,0,6.491-3.433q2.519-3.433,2.519-9.482,0-12.032-8.314-12.032-3.843,0-8.252,4.159a.6.6,0,0,0-.191.441v16.82a.6.6,0,0,0,.191.441A11.6,11.6,0,0,0,603.927,147.581Z" transform="translate(-455.564 -101.28)" fill="#fff"/>
        <path id="Path_6" data-name="Path 6" d="M697.7,134.522a10.445,10.445,0,0,1-7.529-2.8,10.46,10.46,0,0,1,2.081-16.191q5.008-3.116,15.968-4.378c.168,0,.25-.1.25-.316q-.252-7.428-6.74-7.432a17.534,17.534,0,0,0-8.377,2.456,2.118,2.118,0,0,1-1.64.219,1.987,1.987,0,0,1-1.32-1.039l-.629-1.133a2.339,2.339,0,0,1-.219-1.73,2.015,2.015,0,0,1,1.039-1.355A25.533,25.533,0,0,1,702.994,97.3q6.491,0,9.7,3.905t3.214,11.149v19.089a2.26,2.26,0,0,1-2.273,2.269h-1.574a2.471,2.471,0,0,1-1.668-.629,2.74,2.74,0,0,1-.914-1.574l-.25-1.765c-.043-.082-.094-.129-.16-.129s-.113.043-.156.129Q703.244,134.522,697.7,134.522ZM695.3,90.362a2.253,2.253,0,0,1-2.269-2.269v-.5A2.253,2.253,0,0,1,695.3,85.32h15.433A2.253,2.253,0,0,1,713,87.589v.5a2.253,2.253,0,0,1-2.265,2.269Zm4.663,38.306q3.907,0,8.318-3.909a.681.681,0,0,0,.187-.5v-8.127c0-.211-.082-.293-.25-.25q-7.5.943-10.646,2.866a5.723,5.723,0,0,0-3.152,5.01,4.458,4.458,0,0,0,1.511,3.718A6.324,6.324,0,0,0,699.967,128.668Z" transform="translate(-515.555 -82.301)" fill="#fff"/>
        <path id="Path_7" data-name="Path 7" d="M796.443,129.811q-3.907,0-5.639-2.331t-1.734-6.807V79.793a2.119,2.119,0,0,1,.664-1.543,2.186,2.186,0,0,1,1.609-.66h2.835a2.208,2.208,0,0,1,1.609.66,2.119,2.119,0,0,1,.664,1.543v41.263a2.744,2.744,0,0,0,1.008,2.519c.082.043.269.148.566.316s.5.293.629.379.293.2.5.344a1.693,1.693,0,0,1,.473.473,1.072,1.072,0,0,1,.156.566l.25,1.386a1.808,1.808,0,0,1,.062.441,2.351,2.351,0,0,1-.379,1.324,1.94,1.94,0,0,1-1.449.945C797.681,129.791,797.072,129.811,796.443,129.811Z" transform="translate(-577.618 -77.59)" fill="#fff"/>
        <path id="Path_8" data-name="Path 8" d="M845.452,86.4a4.869,4.869,0,0,1-3.4,1.23,4.752,4.752,0,0,1-3.37-1.23,4.069,4.069,0,0,1-1.32-3.12,4.145,4.145,0,0,1,1.32-3.179,4.752,4.752,0,0,1,3.37-1.23,4.845,4.845,0,0,1,3.4,1.23,4.1,4.1,0,0,1,1.355,3.179A4.04,4.04,0,0,1,845.452,86.4Zm-4.819,43.375a2.254,2.254,0,0,1-2.269-2.269V96.514a2.117,2.117,0,0,1,.66-1.543,2.186,2.186,0,0,1,1.609-.66h2.835a2.193,2.193,0,0,1,1.609.66,2.119,2.119,0,0,1,.664,1.543v30.992a2.26,2.26,0,0,1-2.273,2.269Z" transform="translate(-607.05 -78.37)" fill="#fff"/>
      </g>
      <path id="Path_9" data-name="Path 9" d="M127.853,155.309a3.752,3.752,0,0,1-3.753-3.753V138c0-21.139,10.126-33.265,27.786-33.265a3.753,3.753,0,0,1,0,7.506c-13.457,0-20.284,8.666-20.284,25.763V151.56A3.745,3.745,0,0,1,127.853,155.309Z" transform="translate(-75.636 -63.837)" fill="#f1ca23"/>
      <path id="Path_10" data-name="Path 10" d="M146.943,223.7a3.753,3.753,0,1,1,0-7.506c7.318,0,12.434-9.8,12.434-23.83v-40.3a3.753,3.753,0,0,1,7.506,0v40.3C166.879,214.011,156.866,223.7,146.943,223.7Z" transform="translate(-87.271 -90.392)" fill="#f1ca23"/>
      <path id="Path_11" data-name="Path 11" d="M86.483,91.472a3.752,3.752,0,0,1-3.753-3.753V3.753a3.753,3.753,0,0,1,7.506,0v83.97A3.751,3.751,0,0,1,86.483,91.472Z" transform="translate(-50.422)" fill="#f1ca23"/>
      <path id="Path_12" data-name="Path 12" d="M45.113,91.472a3.752,3.752,0,0,1-3.753-3.753V3.753a3.753,3.753,0,0,1,7.506,0v83.97A3.751,3.751,0,0,1,45.113,91.472Z" transform="translate(-25.208)" fill="#f1ca23"/>
      <path id="Path_13" data-name="Path 13" d="M3.753,91.472A3.752,3.752,0,0,1,0,87.719V3.753a3.753,3.753,0,0,1,7.506,0v83.97A3.756,3.756,0,0,1,3.753,91.472Z" fill="#f1ca23"/>
    </g>
  </g>
</svg>
