<?xml version="1.0" encoding="UTF-8" standalone="no"?>
<svg
   xmlns:dc="http://purl.org/dc/elements/1.1/"
   xmlns:cc="http://creativecommons.org/ns#"
   xmlns:rdf="http://www.w3.org/1999/02/22-rdf-syntax-ns#"
   xmlns:svg="http://www.w3.org/2000/svg"
   xmlns="http://www.w3.org/2000/svg"
   xmlns:sodipodi="http://sodipodi.sourceforge.net/DTD/sodipodi-0.dtd"
   xmlns:inkscape="http://www.inkscape.org/namespaces/inkscape"
   viewBox="0 0 210 210"
   version="1.1"
   id="oil-lamp"
   inkscape:version="1.0 (4035a4fb49, 2020-05-01)"
   sodipodi:docname="油灯.svg">
  <defs
     id="defs2" />
  <sodipodi:namedview
     id="base"
     pagecolor="#ffffff"
     bordercolor="#666666"
     borderopacity="1.0"
     inkscape:pageopacity="0.0"
     inkscape:pageshadow="2"
     inkscape:zoom="0.49497475"
     inkscape:cx="150.43909"
     inkscape:cy="428.85972"
     inkscape:document-units="mm"
     inkscape:current-layer="layer1"
     inkscape:document-rotation="0"
     showgrid="false"
     inkscape:window-width="1413"
     inkscape:window-height="1030"
     inkscape:window-x="96"
     inkscape:window-y="0"
     inkscape:window-maximized="0" />
  <metadata
     id="metadata5">
    <rdf:RDF>
      <cc:Work
         rdf:about="">
        <dc:format>image/svg+xml</dc:format>
        <dc:type
           rdf:resource="http://purl.org/dc/dcmitype/StillImage" />
        <dc:title></dc:title>
      </cc:Work>
    </rdf:RDF>
  </metadata>
  <g
     style="display:inline"
     inkscape:label="图层 1"
     inkscape:groupmode="layer"
     id="layer1">
    <g
       id="g40"
       transform="matrix(2.2499386,0,0,2.2499742,-26.179416,-30.472887)">
      <path
         style="fill:#f5b088;stroke-width:0.264583"
         d="m 53.482984,107.11796 c -2.633176,-0.2544 -4.468757,-0.61912 -7.454633,-1.48116 C 38.876783,103.57207 34.333041,99.979562 32.492297,94.934511 32.020913,93.642548 31.718219,93.279037 30.186738,92.165703 27.73188,90.381101 22.591733,85.211551 20.661221,82.585694 16.728668,77.236687 13.903584,70.881115 12.404347,64.01027 11.699488,60.779972 11.397257,53.544897 11.875765,51.356576 c 0.180581,-0.825834 0.867716,-2.656803 1.526967,-4.068821 0.719953,-1.542034 1.142688,-2.781268 1.058536,-3.103065 -0.241461,-0.923351 0.307467,-6.311185 0.900767,-8.841206 1.542476,-6.577615 5.668604,-13.499293 10.945877,-18.361973 2.466575,-2.272796 3.822382,-2.978336 5.716748,-2.974903 2.282401,0.0041 3.806414,0.88958 6.924174,4.02291 2.703478,2.716981 5.111933,5.953961 6.84793,9.203671 0.864423,1.618159 0.972394,1.718405 1.827043,1.696336 0.499584,-0.0129 3.319285,-0.174389 6.266011,-0.358864 12.725944,-0.796686 26.008451,1.574728 35.531609,6.343692 8.083645,4.048092 13.089793,9.194666 14.910943,15.329218 1.66996,5.625259 0.007,16.170483 -3.83388,24.311477 -3.27476,6.941068 -7.72579,12.479281 -14.108974,17.55515 -1.805032,1.435349 -2.153684,1.848639 -2.521204,2.988612 -0.547497,1.698228 -2.08997,4.016557 -3.595997,5.40476 -5.450395,5.024 -16.081686,7.64891 -26.789331,6.61439 z M 42.612393,68.390542 c 2.455476,-0.639572 16.913071,-7.292617 17.945573,-8.258132 0.551235,-0.515475 0.610168,-0.717023 0.392096,-1.340961 -0.432461,-1.23734 -1.422238,-1.104059 -5.429916,0.731181 -1.951633,0.893712 -5.69155,2.694763 -8.310925,4.002333 -3.751987,1.872959 -5.077531,2.408317 -6.247233,2.523114 -1.88558,0.185053 -3.747048,-0.40545 -5.200827,-1.64983 -0.589312,-0.504428 -1.140881,-0.917144 -1.225712,-0.917144 -0.272912,0 0.702006,2.213674 1.483318,3.368059 1.185066,1.750927 3.611449,2.318138 6.593626,1.54138 z M 33.318596,55.628649 c 0,-0.584877 0.629299,-1.407962 1.076471,-1.407962 0.420947,0 2.376384,-1.905224 2.830936,-2.758241 0.296105,-0.555678 0.428863,-1.44276 0.418737,-2.798008 -0.02381,-3.188063 -1.110226,-6.010381 -3.391704,-8.811133 -1.906077,-2.339908 -2.060527,-2.364081 -3.742264,-0.585671 -2.839945,3.003198 -4.638355,8.270335 -3.826422,11.206723 0.363582,1.31491 2.026623,3.262513 3.20131,3.749085 0.599453,0.2483 0.787103,0.497096 0.787103,1.04358 0,0.931275 0.01035,0.93804 1.433161,0.93804 1.069416,0 1.212672,-0.06809 1.212672,-0.576413 z"
         id="path54" />
      <path
         sodipodi:nodetypes="ssssssssscsscssssssssssssscssssscssssssssssssssssssscss"
         style="fill:#fadd03;stroke-width:0.264583"
         d="m 53.70086,106.86814 c -7.102874,-0.74247 -13.416393,-3.08498 -16.961722,-6.29332 -1.918256,-1.735916 -3.452937,-3.966303 -3.94952,-5.739919 -0.293667,-1.048874 -0.62556,-1.453978 -2.223215,-2.713625 C 23.786533,86.775796 19.745,81.833097 16.389655,74.783447 13.51457,68.742832 12.206507,63.5107 11.968083,57.097555 c -0.180678,-4.859872 0.142238,-6.645487 1.797734,-9.940851 0.996598,-1.983787 1.031947,-2.14603 1.031947,-4.736467 0,-8.551136 3.61103,-16.826768 10.400362,-23.835184 3.286998,-3.393067 4.774007,-4.319943 6.915648,-4.310636 1.730893,0.0075 3.060152,0.64373 5.131115,2.455848 3.167618,2.771705 5.996752,6.405037 8.272295,10.623745 l 1.111949,2.061479 1.480669,-0.168999 c 11.369555,-1.297689 24.259285,-0.187899 33.733659,2.904428 11.98068,3.910355 19.934779,10.380301 22.218389,18.072662 1.27924,4.309146 0.54034,12.15555 -1.81719,19.29686 -1.21964,3.694469 -3.931651,9.071834 -6.15958,12.213176 -2.117239,2.98527 -7.057221,8.061637 -9.901809,10.175179 -1.797204,1.335331 -2.08947,1.673659 -2.488507,2.88069 -0.248676,0.752211 -0.744598,1.843908 -1.102045,2.425991 -0.922949,1.502974 -3.397427,3.995344 -4.99128,5.027364 -2.775175,1.79693 -7.431029,3.45132 -11.911911,4.23272 -2.785457,0.48574 -9.114684,0.693 -11.988668,0.39258 z M 43.735536,68.607643 c 0.600839,-0.210994 2.237456,-0.917985 3.636925,-1.57109 l 2.544492,-1.187466 2.602286,0.306903 c 4.034578,0.475824 11.693062,0.158973 15.459773,-0.639609 14.914329,-3.161998 13.655534,-10.527629 -2.224759,-13.017811 -2.311186,-0.362418 -4.036394,-0.424939 -8.855623,-0.320932 -6.603441,0.142513 -9.42807,0.580745 -13.254603,2.056413 -3.889264,1.49986 -5.559901,3.027471 -5.561941,5.085776 -0.0016,1.647161 2.033833,3.512756 5.092239,4.667268 0.400183,0.151064 0.727604,0.377558 0.727604,0.503322 0,0.790067 -3.597285,1.354207 -5.406016,0.847791 -1.340313,-0.375263 -3.142409,-1.794422 -3.73584,-2.941994 -0.599922,-1.160119 -1.012553,-0.973788 -0.827842,0.373827 0.318178,2.321367 2.010331,5.259935 3.340232,5.800606 1.906942,0.775263 4.321384,0.789082 6.463073,0.037 z M 31.085272,56.841221 c 0.161457,-0.261239 1.17991,-0.238845 2.233324,0.04911 0.290664,0.07945 0.418383,-0.149183 0.477243,-0.854324 0.06812,-0.816171 0.261141,-1.077076 1.267327,-1.713082 0.662292,-0.418631 1.963298,-1.168851 2.437204,-1.908084 0.810791,-1.264729 1.215652,-1.572784 1.190784,-3.976804 -0.01976,-1.910241 -0.232423,-3.21309 -0.670827,-4.346189 -1.105122,-2.856296 -4.905639,-8.110115 -5.974212,-8.110115 -0.729384,0 -3.922772,4.045535 -4.995546,6.087028 -1.73611,3.303823 -1.900179,7.211182 -0.908261,9.395188 0.528981,1.164709 2.701029,2.908882 3.505142,3.164096 0.283642,0.09002 0.497694,0.404813 0.499759,0.734955 0.0087,1.388041 0.507753,2.174486 0.938063,1.478224 z"
         id="path52" />
      <path
         style="fill:#f5894b;stroke-width:0.264583"
         d="m 53.70086,106.86814 c -7.102874,-0.74247 -13.416393,-3.08498 -16.961722,-6.29332 -1.918256,-1.735916 -3.452937,-3.966303 -3.94952,-5.739919 -0.293667,-1.048874 -0.62556,-1.453978 -2.223215,-2.713625 C 23.786533,86.775796 19.745,81.833097 16.389655,74.783447 13.51457,68.742832 12.206507,63.5107 11.968083,57.097555 c -0.180678,-4.859872 0.142238,-6.645487 1.797734,-9.940851 0.996598,-1.983787 1.031947,-2.14603 1.031947,-4.736467 0,-8.551136 3.61103,-16.826768 10.400362,-23.835184 3.286998,-3.393067 4.774007,-4.319943 6.915648,-4.310636 1.730893,0.0075 3.060152,0.64373 5.131115,2.455848 3.167618,2.771705 5.996752,6.405037 8.272295,10.623745 l 1.111949,2.061479 1.480669,-0.168999 c 11.369555,-1.297689 24.259285,-0.187899 33.733659,2.904428 11.98068,3.910355 19.934779,10.380301 22.218389,18.072662 1.27924,4.309146 0.54034,12.15555 -1.81719,19.29686 -1.21964,3.694469 -3.931651,9.071834 -6.15958,12.213176 -2.117239,2.98527 -7.057221,8.061637 -9.901809,10.175179 -1.797204,1.335331 -2.08947,1.673659 -2.488507,2.88069 -0.248676,0.752211 -0.744598,1.843908 -1.102045,2.425991 -0.922949,1.502974 -3.397427,3.995344 -4.99128,5.027364 -2.775175,1.79693 -7.431029,3.45132 -11.911911,4.23272 -2.785457,0.48574 -9.114684,0.693 -11.988668,0.39258 z M 43.735536,68.607643 c 0.600839,-0.210994 2.237456,-0.917985 3.636925,-1.57109 l 2.544492,-1.187466 2.602286,0.306903 c 4.034578,0.475824 11.693062,0.158973 15.459773,-0.639609 14.914329,-3.161998 13.655534,-10.527629 -2.224759,-13.017811 -2.311186,-0.362418 -4.036394,-0.424939 -8.855623,-0.320932 -6.603441,0.142513 -9.42807,0.580745 -13.254603,2.056413 -3.889264,1.49986 -5.559901,3.027471 -5.561941,5.085776 -0.0016,1.647161 2.033833,3.512756 5.092239,4.667268 0.400183,0.151064 0.727604,0.377558 0.727604,0.503322 0,0.790067 -3.597285,1.354207 -5.406016,0.847791 -1.340313,-0.375263 -3.142409,-1.794422 -3.73584,-2.941994 -0.599922,-1.160119 -1.012553,-0.973788 -0.827842,0.373827 0.318178,2.321367 2.010331,5.259935 3.340232,5.800606 1.906942,0.775263 4.321384,0.789082 6.463073,0.037 z M 31.085272,56.841221 c 0.161433,-0.261199 1.186739,-0.23862 2.229689,0.04911 0.281189,0.07757 0.431969,-0.169392 0.529167,-0.866706 0.142742,-1.024081 1.132636,-1.912327 3.00129,-2.693101 1.118444,-0.467315 2.481051,-2.051511 3.296396,-3.832455 0.558943,-1.220896 0.654706,-1.805287 0.630656,-3.848531 -0.06229,-5.292061 -2.218145,-10.354776 -6.240415,-14.654734 -2.314922,-2.474741 -2.267715,-2.467191 -4.161232,-0.665455 -3.966227,3.773981 -6.42743,8.814302 -6.967005,14.267795 -0.217618,2.199473 0.267062,4.522623 1.277502,6.123262 0.689886,1.092851 2.393561,2.706534 2.85747,2.706534 0.65267,0 2.586014,1.476275 2.598759,1.984375 0.03434,1.369071 0.526446,2.111552 0.947723,1.429909 z"
         id="path50" />
      <path
         style="fill:#db5a11;stroke-width:0.264583"
         d="m 53.70086,106.86814 c -7.102874,-0.74247 -13.416393,-3.08498 -16.961722,-6.29332 -1.918256,-1.735916 -3.452937,-3.966303 -3.94952,-5.739919 -0.293667,-1.048874 -0.62556,-1.453978 -2.223215,-2.713625 C 23.786533,86.775796 19.745,81.833097 16.389655,74.783447 13.51457,68.742832 12.206507,63.5107 11.968083,57.097555 c -0.180678,-4.859872 0.142238,-6.645487 1.797734,-9.940851 0.996598,-1.983787 1.031947,-2.14603 1.031947,-4.736467 0,-8.551136 3.61103,-16.826768 10.400362,-23.835184 3.286998,-3.393067 4.774007,-4.319943 6.915648,-4.310636 1.730893,0.0075 3.060152,0.64373 5.131115,2.455848 3.167618,2.771705 5.996752,6.405037 8.272295,10.623745 l 1.111949,2.061479 1.480669,-0.168999 c 11.369555,-1.297689 24.259285,-0.187899 33.733659,2.904428 11.98068,3.910355 19.934779,10.380301 22.218389,18.072662 1.27924,4.309146 0.54034,12.15555 -1.81719,19.29686 -1.21964,3.694469 -3.931651,9.071834 -6.15958,12.213176 -2.117239,2.98527 -7.057221,8.061637 -9.901809,10.175179 -1.797204,1.335331 -2.08947,1.673659 -2.488507,2.88069 -0.248676,0.752211 -0.744598,1.843908 -1.102045,2.425991 -0.922949,1.502974 -3.397427,3.995344 -4.99128,5.027364 -2.775175,1.79693 -7.431029,3.45132 -11.911911,4.23272 -2.785457,0.48574 -9.114684,0.693 -11.988668,0.39258 z M 63.7437,71.942734 C 78.649406,70.92516 91.133363,65.734747 94.606506,59.111013 l 0.696013,-1.327386 -0.727951,-1.436542 C 90.591533,48.486947 73.913799,42.92393 55.940471,43.460314 c -4.552614,0.135866 -8.939115,0.56053 -11.561995,1.119341 -0.60048,0.127934 -0.78323,0.390017 -1.148784,1.647476 -0.811088,2.790049 -2.423679,5.106722 -4.331414,6.222578 -1.02063,0.596977 -1.028409,0.416365 -0.0355,-0.824224 1.459452,-1.823503 1.940819,-3.334213 1.909509,-5.992741 -0.06212,-5.27409 -2.223326,-10.343717 -6.240235,-14.637943 -2.314922,-2.474741 -2.267715,-2.467191 -4.161232,-0.665455 -3.966227,3.773981 -6.42743,8.814302 -6.967005,14.267795 -0.286856,2.899257 0.315183,4.839211 2.380393,7.670358 0.386509,0.529857 0.375863,0.554193 -0.195617,0.447159 -1.025151,-0.192006 -4.176247,3.477551 -4.176247,4.863383 0,0.824611 0.632468,2.037603 1.824991,3.500098 1.08707,1.333169 3.341367,3.196714 3.867009,3.196714 0.59228,0 1.973147,-1.328769 2.544286,-2.448295 0.297092,-0.582345 0.60349,-1.728229 0.680887,-2.546403 0.181162,-1.915117 0.652253,-2.678218 1.653359,-2.678218 0.866804,0 1.540703,0.551217 1.720845,1.407565 0.06674,0.317246 0.167576,1.767435 0.224091,3.222643 0.116155,2.990911 0.632582,4.492397 2.205228,6.411605 1.110512,1.355233 1.710354,1.687502 4.342805,2.405602 6.32283,1.724787 15.179968,2.445523 23.267852,1.893382 z"
         id="path48" />
      <path
         style="fill:#985226;stroke-width:0.264583"
         d="m 53.70086,106.86814 c -7.102874,-0.74247 -13.416393,-3.08498 -16.961722,-6.29332 -1.918256,-1.735916 -3.452937,-3.966303 -3.94952,-5.739919 -0.293667,-1.048874 -0.62556,-1.453978 -2.223215,-2.713625 C 23.786533,86.775796 19.745,81.833097 16.389655,74.783447 13.51457,68.742832 12.206507,63.5107 11.968083,57.097555 c -0.180678,-4.859872 0.142238,-6.645487 1.797734,-9.940851 0.996598,-1.983787 1.031947,-2.14603 1.031947,-4.736467 0,-8.551136 3.61103,-16.826768 10.400362,-23.835184 3.286998,-3.393067 4.774007,-4.319943 6.915648,-4.310636 1.730893,0.0075 3.060152,0.64373 5.131115,2.455848 3.167618,2.771705 5.996752,6.405037 8.272295,10.623745 l 1.111949,2.061479 1.480669,-0.168999 c 11.369555,-1.297689 24.259285,-0.187899 33.733659,2.904428 11.98068,3.910355 19.934779,10.380301 22.218389,18.072662 1.27924,4.309146 0.54034,12.15555 -1.81719,19.29686 -1.21964,3.694469 -3.931651,9.071834 -6.15958,12.213176 -2.117239,2.98527 -7.057221,8.061637 -9.901809,10.175179 -1.797204,1.335331 -2.08947,1.673659 -2.488507,2.88069 -0.248676,0.752211 -0.744598,1.843908 -1.102045,2.425991 -0.922949,1.502974 -3.397427,3.995344 -4.99128,5.027364 -2.775175,1.79693 -7.431029,3.45132 -11.911911,4.23272 -2.785457,0.48574 -9.114684,0.693 -11.988668,0.39258 z m 8.701876,-32.278972 c 2.390079,-0.145357 5.604766,-0.447664 7.14375,-0.67179 11.610974,-1.690952 21.968647,-6.402805 26.140054,-11.891483 2.324436,-3.058464 3.072016,-5.7757 2.47676,-9.002333 C 97.190152,47.748535 91.777139,42.838427 83.192553,39.443701 76.763496,36.901365 71.334614,35.784765 62.290471,35.144608 c -3.885801,-0.275043 -5.218055,-0.256495 -9.789584,0.136289 -2.910416,0.250061 -6.158346,0.620147 -7.217624,0.822413 -1.059275,0.202266 -2.094955,0.302906 -2.301509,0.223642 -0.206555,-0.07926 -0.574575,-0.758798 -0.817822,-1.510084 -0.680331,-2.101239 -2.787624,-6.230858 -4.163224,-8.158588 -1.536584,-2.153329 -5.328169,-6.039674 -5.892408,-6.039674 -0.576795,0 -4.198537,3.718442 -5.775259,5.929455 -1.445145,2.026506 -3.333882,5.656093 -4.096058,7.871398 -1.041758,3.027921 -1.434989,5.916015 -1.290513,9.478203 l 0.136088,3.355393 -1.023346,1.556282 c -1.537082,2.337559 -1.90393,3.7011 -1.765769,6.563219 0.09582,1.984976 0.26091,2.729164 0.918373,4.139798 0.940313,2.017506 2.608184,3.989823 3.887207,4.596759 1.114316,0.528778 3.383251,0.559366 4.345734,0.05859 1.631617,-0.848929 2.947753,-3.159271 2.957612,-5.191786 0.0074,-1.517121 0.581039,-2.373977 1.589416,-2.373977 0.858679,0 1.532363,0.553905 1.711939,1.407565 0.06674,0.317246 0.166103,1.767435 0.220816,3.222643 0.08104,2.155431 0.228822,2.930655 0.797316,4.182504 2.12557,4.680614 9.810843,8.406833 18.881968,9.154959 3.75561,0.309737 4.018026,0.310319 8.798912,0.01955 z M 95.326495,57.182864 c -0.157382,-0.101229 -0.480332,-0.563112 -0.717666,-1.026408 -0.746353,-1.456944 -3.330554,-4.008237 -5.56764,-5.49674 -8.949243,-5.954622 -26.650275,-8.781528 -41.508544,-6.629034 -1.713886,0.248287 -3.272811,0.391318 -3.464279,0.317844 -0.252442,-0.09687 -0.362318,-0.89802 -0.399767,-2.914854 -0.04587,-2.470454 0.0016,-2.79813 0.423732,-2.932149 3.326022,-1.055638 16.096073,-1.534322 22.430859,-0.840817 8.042264,0.88043 16.095085,3.236259 21.537342,6.300679 2.4252,1.36558 6.289947,5.070681 7.123215,6.828966 0.794822,1.67716 1.136074,3.711271 0.86555,5.159314 -0.256235,1.371552 -0.32508,1.489014 -0.722802,1.233199 z M 20.514613,56.712589 c -0.34706,-0.904423 -0.143652,-3.575683 0.378558,-4.971412 0.860237,-2.29919 1.134277,-2.37244 2.648557,-0.707962 l 1.287489,1.415193 -1.177011,1.309118 c -0.647356,0.720016 -1.438076,1.773624 -1.757156,2.341348 -0.611485,1.087991 -1.112899,1.31091 -1.380437,0.613715 z"
         id="path46" />
      <path
         style="fill:#5f3a2d;stroke-width:0.264583"
         d="m 51.442554,106.48122 c -6.071227,-0.97292 -10.930471,-2.88443 -14.357633,-5.64795 -1.622377,-1.308217 -3.341811,-3.717203 -4.135262,-5.793642 -0.645888,-1.690267 -0.82227,-1.899724 -2.956532,-3.510939 -2.761063,-2.084403 -6.862744,-6.252797 -9.033288,-9.18021 -5.421027,-7.311337 -8.562274,-16.19043 -8.968209,-25.349667 -0.193043,-4.355671 0.109294,-6.035968 1.730275,-9.616333 0.977353,-2.158744 1.044172,-2.471788 1.166494,-5.464916 0.272308,-6.663155 2.142997,-12.273705 6.041404,-18.119308 1.960067,-2.939093 6.689707,-7.857079 8.420043,-8.755353 1.638065,-0.850373 3.921401,-0.849498 5.55625,0.0021 2.75521,1.435243 8.345808,8.020227 10.599544,12.484857 0.423312,0.838573 0.947,1.623925 1.163752,1.745226 0.217574,0.12176 1.611852,0.07844 3.112796,-0.09672 5.688221,-0.66381 14.564407,-0.419937 21.239532,0.583557 10.971146,1.649329 20.889314,5.759901 26.794391,11.104905 3.069009,2.777929 5.362489,6.401379 6.289769,9.937159 0.61243,2.335236 0.39668,9.29908 -0.40418,13.045921 -2.39927,11.224944 -7.978044,20.236985 -17.056795,27.553828 -2.312286,1.863542 -2.667587,2.263288 -3.068812,3.452704 -1.954858,5.795131 -8.2795,9.851661 -17.933111,11.502021 -3.54561,0.60616 -10.792891,0.66879 -14.200428,0.12273 z M 65.62684,74.983075 C 80.368153,73.519511 92.290968,68.31104 96.938501,61.304604 99.226718,57.85498 99.259228,52.705419 97.015794,49.061313 92.791594,42.19977 81.302264,36.858881 67.05297,35.132902 62.589082,34.592203 52.771662,34.680408 48.399846,35.300493 c -1.964531,0.278643 -4.042727,0.512255 -4.618212,0.519139 l -1.046337,0.01252 -0.700842,-1.892265 c -0.974375,-2.630807 -2.396844,-5.357892 -3.883093,-7.44448 -1.608963,-2.258873 -5.433978,-6.141379 -6.050436,-6.141379 -0.646676,0 -4.728874,4.266101 -6.246097,6.527484 -3.736475,5.569122 -5.483918,11.408722 -5.154524,17.22538 l 0.159586,2.818074 -0.954915,1.43864 c -1.848253,2.784512 -2.446334,5.4439 -1.942006,8.635211 0.393967,2.492965 1.39518,4.461124 3.179856,6.250879 1.788917,1.79401 3.213663,2.250731 5.318207,1.704819 2.570588,-0.666803 4.103619,-2.628884 4.397954,-5.628817 0.189683,-1.933266 0.461063,-2.459173 1.268984,-2.459173 0.897017,0 1.102546,0.558523 1.265714,3.439584 0.177631,3.136376 0.685623,4.801004 2.113357,6.925201 1.354195,2.014788 2.989813,3.305407 6.145929,4.849582 6.031704,2.951093 13.894339,3.902916 23.973869,2.902188 z"
         id="path44" />
      <path
         style="fill:#0a0705;stroke-width:0.264583"
         d="m 51.707137,106.20488 c -7.263574,-1.18057 -12.654975,-3.54464 -15.712045,-6.889557 -1.535395,-1.679969 -2.513348,-3.28795 -2.921029,-4.802856 -0.256905,-0.954633 -0.663424,-1.407655 -2.818725,-3.141173 -6.214691,-4.9985 -10.307367,-10.055465 -13.471364,-16.6454 -2.377701,-4.952245 -3.774429,-9.924814 -4.384757,-15.610415 -0.534772,-4.981742 -0.0608,-8.224401 1.720978,-11.773958 0.795082,-1.583917 0.877364,-1.989664 1.041471,-5.135657 0.369649,-7.086326 2.158118,-12.442189 6.172072,-18.48328 1.476128,-2.221605 6.93852,-7.862301 8.258386,-8.527955 0.582717,-0.293885 1.503404,-0.452326 2.591928,-0.446046 2.178249,0.01257 3.386717,0.761458 6.601582,4.091019 2.687346,2.783225 4.265472,4.90787 6.267664,8.438213 1.182359,2.084782 1.500172,2.465247 2.042652,2.445336 0.353341,-0.01297 2.532195,-0.179084 4.841899,-0.369146 7.138768,-0.587439 15.29643,-0.10289 22.655746,1.345707 10.098069,1.987688 18.672537,6.08907 23.944791,11.453394 2.547544,2.59203 3.757234,4.394967 4.858504,7.241172 0.65582,1.694957 0.68916,2.020651 0.67009,6.546201 -0.0162,3.846766 -0.1327,5.296677 -0.60581,7.540624 -2.42683,11.51029 -8.296899,20.951895 -17.425624,28.027941 -2.01023,1.558213 -2.211385,1.804574 -2.860569,3.503469 -2.019319,5.284497 -7.506972,8.956187 -16.152394,10.807277 -3.490579,0.74737 -11.800845,0.95632 -15.315446,0.38509 z M 63.660388,95.74243 c 2.802226,-0.382384 6.832689,-1.417685 9.236445,-2.372561 2.841929,-1.128932 5.046122,-2.284518 5.219536,-2.736427 0.08238,-0.21468 1.139161,-1.042876 2.348399,-1.840436 7.515481,-4.95687 13.352917,-12.583535 16.243718,-21.222569 1.288811,-3.851558 2.287767,-9.881798 2.171112,-13.106031 -0.08001,-2.211417 -0.19899,-2.750923 -0.933598,-4.233333 -1.840135,-3.713308 -5.295553,-6.876098 -10.344237,-9.46821 -6.397056,-3.284402 -12.923075,-5.089657 -21.739418,-6.01365 -4.739587,-0.49673 -13.181731,-0.373783 -17.594791,0.256241 -1.455208,0.20775 -3.256867,0.462457 -4.003685,0.566012 l -1.357852,0.188283 -0.462823,-1.41901 c -0.808294,-2.478225 -2.771166,-6.177272 -4.491916,-8.465047 -1.929235,-2.564961 -5.171154,-5.786253 -5.823307,-5.786253 -0.651451,0 -3.893282,3.220244 -5.818228,5.779485 -1.733033,2.30409 -3.506664,5.608069 -4.394789,8.186759 -1.157418,3.360585 -1.396998,4.869684 -1.418446,8.934686 l -0.02101,3.983225 -0.841178,1.31086 c -2.135262,3.327516 -2.465094,5.20198 -1.812934,10.303051 0.813571,6.363599 2.316542,11.126631 5.050709,16.006098 2.939135,5.245255 7.279573,10.133406 11.629911,13.097469 1.280998,0.872797 2.818698,2.052685 3.417112,2.621976 2.261936,2.151845 9.671224,4.818155 15.375524,5.53304 1.799894,0.225571 8.43965,0.159174 10.365751,-0.103658 z"
         id="path42" />
    </g>
  </g>
</svg>
