<?xml version="1.0" encoding="utf-8"?>
<!-- Generator: Adobe Illustrator 24.0.1, SVG Export Plug-In . SVG Version: 6.00 Build 0)  -->
<svg version="1.0" id="wikipali_logo" xmlns="http://www.w3.org/2000/svg" xmlns:xlink="http://www.w3.org/1999/xlink" x="0px"
	 y="0px" viewBox="0 0 100 50" style="enable-background:new 0 0 100 50;" xml:space="preserve">
<g id="圖層_1">
	<g id="Group_12" transform="translate(-396 -320)">
		<g id="Group_2" transform="translate(396 320)">
			<g id="Group_1" transform="translate(39.472 12.369)">
				<g id="Path_1">
					<path style="fill:#FFFFFF;" d="M-5.9,19.5c-0.2,0-0.3-0.1-0.5-0.2c-0.1-0.1-0.2-0.2-0.3-0.4l-2.2-8.2v-0.1c0-0.1,0-0.2,0.1-0.3
						c0.1-0.1,0.2-0.2,0.3-0.2h0.8c0.2,0,0.3,0.1,0.5,0.2c0.1,0.1,0.2,0.2,0.3,0.4l1.1,4.5c0,0,0.2,0.9,0.5,2.6l0,0l0,0l0,0l0,0
						c0.4-1.7,0.6-2.6,0.6-2.6l1.2-4.5c0.1-0.3,0.4-0.6,0.7-0.6h0.6c0.3,0,0.6,0.2,0.7,0.6l1.2,4.5c0.1,0.3,0.2,0.7,0.3,1.3
						c0.1,0.6,0.2,1,0.3,1.3l0,0l0,0c0,0,0,0,0.1,0c0-0.2,0.1-0.6,0.2-1.2c0.3-0.6,0.4-1,0.5-1.4l1.1-4.5c0.1-0.3,0.4-0.6,0.7-0.6
						h0.7c0.1,0,0.3,0.1,0.3,0.2c0,0.1,0.1,0.2,0.1,0.3v0.1l-2.1,8.2c0,0.2-0.1,0.3-0.3,0.4c-0.1,0.1-0.3,0.2-0.5,0.2H0
						c-0.2,0-0.3-0.1-0.5-0.2c-0.1-0.1-0.2-0.2-0.3-0.4l-1-4.1c-0.1-0.4-0.3-1.3-0.6-2.7c0,0,0,0-0.1,0c0,0,0,0-0.1,0
						c-0.2,1.2-0.4,2.1-0.6,2.7l-1,4.1c0,0.2-0.1,0.3-0.3,0.4c-0.1,0.1-0.3,0.2-0.5,0.2H-5.9L-5.9,19.5z"/>
				</g>
				<g id="Path_2">
					<path style="fill:#FFFFFF;" d="M8.1,8.1C7.8,8.3,7.5,8.4,7.2,8.4S6.6,8.3,6.3,8.1C6.1,7.9,5.9,7.6,5.9,7.3S6,6.7,6.2,6.5
						c0.2-0.2,0.6-0.3,0.9-0.3c0.3,0,0.7,0.1,0.9,0.3C8.2,6.7,8.4,7,8.4,7.3C8.4,7.6,8.3,7.9,8.1,8.1z M6.8,19.5
						c-0.3,0-0.6-0.3-0.6-0.6l0,0v-8.2c0-0.2,0.1-0.3,0.2-0.4c0.1-0.1,0.3-0.2,0.4-0.2h0.7c0.2,0,0.3,0.1,0.4,0.2
						c0.1,0.1,0.2,0.3,0.2,0.4v8.2c0,0.3-0.3,0.6-0.6,0.6l0,0H6.8z"/>
				</g>
				<g id="Path_3">
					<path style="fill:#FFFFFF;" d="M11.8,19.5c-0.3,0-0.6-0.3-0.6-0.6l0,0V6.5c0-0.2,0.1-0.3,0.2-0.4c0.1-0.1,0.3-0.2,0.4-0.2h0.7
						c0.2,0,0.3,0.1,0.4,0.2c0.1,0.1,0.2,0.3,0.2,0.4v8.1l0,0l0,0l3.3-4.1c0.2-0.3,0.6-0.5,1-0.4h1c0.1,0,0.2,0.1,0.2,0.2
						c0.1,0.1,0,0.2,0,0.3l-2.8,3.3V14l3.2,5c0,0,0,0.1,0.1,0.2c0,0.1,0,0.1-0.1,0.2s-0.2,0.2-0.3,0.2h-0.9c-0.4,0-0.7-0.2-0.9-0.5
						l-2.2-3.7c0,0,0,0-0.1,0l-1.5,1.7c0,0,0,0.1-0.1,0.1v1.7c0,0.3-0.3,0.6-0.6,0.6l0,0L11.8,19.5z"/>
				</g>
				<g id="Path_4">
					<path style="fill:#FFFFFF;" d="M23,8.1c-0.2,0.2-0.6,0.3-0.9,0.3s-0.6-0.1-0.9-0.3c-0.2-0.2-0.3-0.5-0.3-0.8s0.1-0.6,0.3-0.8
						c0.2-0.2,0.6-0.3,0.9-0.3s0.7,0.1,0.9,0.3c0.2,0.2,0.4,0.5,0.4,0.8C23.4,7.6,23.3,7.9,23,8.1z M21.8,19.5
						c-0.3,0-0.6-0.3-0.6-0.6l0,0v-8.2c0-0.2,0.1-0.3,0.2-0.4c0.1-0.1,0.3-0.2,0.4-0.2h0.7c0.2,0,0.3,0.1,0.4,0.2
						c0.1,0.1,0.2,0.3,0.2,0.4v8.2c0,0.3-0.3,0.6-0.6,0.6l0,0H21.8z"/>
				</g>
				<g id="Path_5">
					<path style="fill:#FFFFFF;" d="M26.8,23.3c-0.3,0-0.6-0.3-0.6-0.6l0,0v-12c0-0.3,0.3-0.6,0.6-0.6l0,0h0.4
						c0.2,0,0.3,0.1,0.4,0.2c0.1,0.1,0.2,0.3,0.2,0.4v0.4l0,0l0,0c0.8-0.7,1.8-1.2,2.9-1.2c1.1,0,2.1,0.4,2.7,1.3c0.7,1,1,2.2,1,3.5
						c0,0.7-0.1,1.4-0.3,2.1c-0.2,0.6-0.5,1.1-0.9,1.6c-0.4,0.4-0.8,0.7-1.3,1c-0.5,0.2-1,0.3-1.5,0.3c-0.9,0-1.8-0.4-2.4-1l0,0l0,0
						l0,0v1.5v2.4c0,0.3-0.3,0.6-0.6,0.6l0,0L26.8,23.3L26.8,23.3z M30.2,18.2c0.7,0,1.3-0.3,1.7-0.9c0.5-0.7,0.7-1.6,0.7-2.5
						c0-2.1-0.7-3.2-2.2-3.2c-0.8,0.1-1.6,0.5-2.2,1.1l-0.1,0.1v4.4c0,0,0,0.1,0.1,0.1C28.8,17.8,29.5,18.1,30.2,18.2L30.2,18.2z"/>
				</g>
				<g id="Path_6">
					<path style="fill:#FFFFFF;" d="M39.1,19.7c-0.7,0-1.4-0.2-2-0.7c-1.1-1.1-1-2.8,0.1-3.9c0.1-0.1,0.3-0.3,0.5-0.4
						c1.3-0.7,2.7-1.1,4.2-1.2c0,0,0.1,0,0.1-0.1c0-1.3-0.6-2-1.8-2c-0.8,0-1.5,0.2-2.2,0.6c-0.1,0.1-0.3,0.1-0.4,0.1
						c-0.2,0-0.3-0.1-0.3-0.3L37,11.6c-0.1-0.1-0.1-0.3-0.1-0.5s0.1-0.3,0.3-0.4c1-0.6,2.1-0.9,3.3-0.9c1-0.1,1.9,0.3,2.6,1
						c0.6,0.9,0.9,1.9,0.8,2.9v5c0,0.3-0.3,0.6-0.6,0.6l0,0h-0.4c-0.2,0-0.3-0.1-0.4-0.2c-0.1-0.1-0.2-0.3-0.2-0.4l-0.1-0.5l0,0l0,0
						C41.3,19.2,40.2,19.7,39.1,19.7z M38.5,8.1c-0.3,0-0.6-0.3-0.6-0.6l0,0V7.3c0-0.3,0.3-0.6,0.6-0.6l0,0h4.1
						c0.3,0,0.6,0.3,0.6,0.6l0,0v0.1c0,0.3-0.3,0.6-0.6,0.6l0,0h-4.1V8.1z M39.7,18.2c0.8-0.1,1.6-0.4,2.2-1c0,0,0.1-0.1,0-0.1V15
						c0-0.1,0-0.1-0.1-0.1c-1,0.1-1.9,0.3-2.8,0.8c-0.5,0.3-0.8,0.8-0.8,1.3c0,0.4,0.1,0.7,0.4,1C38.9,18.1,39.3,18.2,39.7,18.2
						L39.7,18.2z"/>
				</g>
				<g id="Path_7">
					<path style="fill:#FFFFFF;" d="M48.8,19.7c-0.6,0.1-1.1-0.2-1.5-0.6c-0.3-0.5-0.5-1.2-0.5-1.8V6.5c0-0.2,0.1-0.3,0.2-0.4
						c0.1-0.1,0.3-0.2,0.4-0.2h0.7c0.2,0,0.3,0.1,0.4,0.2c0.1,0.1,0.2,0.3,0.2,0.4v10.9c0,0.3,0.1,0.5,0.3,0.7c0,0,0.1,0,0.1,0.1
						c0.1,0,0.1,0.1,0.2,0.1l0.1,0.1l0.1,0.1v0.1l0.1,0.4v0.1c0,0.1,0,0.2-0.1,0.3c-0.1,0.1-0.2,0.2-0.4,0.2
						C49.1,19.7,48.9,19.7,48.8,19.7z"/>
				</g>
				<g id="Path_8">
					<path style="fill:#FFFFFF;" d="M53.9,8.1c-0.2,0.2-0.6,0.3-0.9,0.3c-0.3,0-0.6-0.1-0.9-0.3c-0.2-0.2-0.4-0.5-0.3-0.8
						c0-0.3,0.1-0.6,0.3-0.8c0.2-0.2,0.6-0.3,0.9-0.3c0.3,0,0.7,0.1,0.9,0.3c0.2,0.2,0.4,0.5,0.4,0.8C54.3,7.6,54.2,7.9,53.9,8.1z
						 M52.7,19.5c-0.3,0-0.6-0.3-0.6-0.6l0,0v-8.2c0-0.2,0.1-0.3,0.2-0.4c0.1-0.1,0.3-0.2,0.4-0.2h0.7c0.2,0,0.3,0.1,0.4,0.2
						c0.1,0.1,0.2,0.3,0.2,0.4v8.2c0,0.3-0.3,0.6-0.6,0.6l0,0H52.7z"/>
				</g>
			</g>
			<g id="Path_9">
				<path style="fill:#F1CA23;" d="M18.9,34.4c-0.5,0-1-0.4-1-1l0,0v-3.6c0-5.6,2.7-8.8,7.3-8.8c0.5,0,1,0.4,1,1c0,0.5-0.4,1-1,1
					l0,0c-3.5,0-5.3,2.3-5.3,6.8v3.6C19.8,34,19.4,34.4,18.9,34.4L18.9,34.4z"/>
			</g>
			<g id="Path_10">
				<path style="fill:#F1CA23;" d="M20.8,45.5c-0.5,0-1-0.4-1-1c0-0.5,0.4-1,1-1l0,0c1.9,0,3.3-2.6,3.3-6.3V26.6c0-0.5,0.4-1,1-1
					c0.5,0,1,0.4,1,1v10.6C26.1,42.9,23.4,45.5,20.8,45.5z"/>
			</g>
			<g id="Path_11">
				<path style="fill:#F1CA23;" d="M14.6,34.4c-0.5,0-1-0.4-1-1l0,0V11.3c0-0.5,0.4-1,1-1c0.5,0,1,0.4,1,1v22.1
					C15.6,34,15.1,34.4,14.6,34.4L14.6,34.4z"/>
			</g>
			<g id="Path_12">
				<path style="fill:#F1CA23;" d="M10.3,34.4c-0.5,0-1-0.4-1-1l0,0V11.3c0-0.5,0.4-1,1-1c0.5,0,1,0.4,1,1v22.1
					C11.3,34,10.9,34.4,10.3,34.4L10.3,34.4z"/>
			</g>
			<g id="Path_13">
				<path style="fill:#F1CA23;" d="M6.1,34.4c-0.5,0-1-0.4-1-1l0,0V11.3c0-0.5,0.4-1,1-1s1,0.4,1,1v22.1C7.1,34,6.6,34.4,6.1,34.4z"
					/>
			</g>
		</g>
	</g>
</g>
</svg>
