<?xml version="1.0" encoding="utf-8"?>
<svg xmlns="http://www.w3.org/2000/svg" xmlns:xlink="http://www.w3.org/1999/xlink">
	<symbol viewBox="0 0 24 24" id="ic_zoom_in">
		<path
			d="M15.5 14h-.79l-.28-.27A6.47 6.47 0 0 0 16 9.5 6.5 6.5 0 1 0 9.5 16c1.61 0 3.09-.59 4.23-1.57l.27.28v.79l5 4.99L20.49 19l-4.99-5zm-6 0C7.01 14 5 11.99 5 9.5S7.01 5 9.5 5 14 7.01 14 9.5 11.99 14 9.5 14zm2.5-4h-2v2H9v-2H7V9h2V7h1v2h2v1z" />
	</symbol>
	<symbol viewBox="0 0 24 24" id="ic_zoom_out">
		<path
			d="M15.5 14h-.79l-.28-.27A6.47 6.47 0 0 0 16 9.5 6.5 6.5 0 1 0 9.5 16c1.61 0 3.09-.59 4.23-1.57l.27.28v.79l5 4.99L20.49 19l-4.99-5zm-6 0C7.01 14 5 11.99 5 9.5S7.01 5 9.5 5 14 7.01 14 9.5 11.99 14 9.5 14zM7 9h5v1H7z" />
	</symbol>
	<symbol viewBox="0 0 24 24" id="ic_visibility">
		<path
			d="M12 4.5C7 4.5 2.73 7.61 1 12c1.73 4.39 6 7.5 11 7.5s9.27-3.11 11-7.5c-1.73-4.39-6-7.5-11-7.5zM12 17c-2.76 0-5-2.24-5-5s2.24-5 5-5 5 2.24 5 5-2.24 5-5 5zm0-8c-1.66 0-3 1.34-3 3s1.34 3 3 3 3-1.34 3-3-1.34-3-3-3z" />
	</symbol>
	<symbol viewBox="0 0 24 24" id="ic_lightbulb_outline">
		<path
			d="M9 21c0 .55.45 1 1 1h4c.55 0 1-.45 1-1v-1H9v1zm3-19C8.14 2 5 5.14 5 9c0 2.38 1.19 4.47 3 5.74V17c0 .55.45 1 1 1h6c.55 0 1-.45 1-1v-2.26c1.81-1.27 3-3.36 3-5.74 0-3.86-3.14-7-7-7zm2.85 11.1l-.85.6V16h-4v-2.3l-.85-.6A4.997 4.997 0 0 1 7 9c0-2.76 2.24-5 5-5s5 2.24 5 5c0 1.63-.8 3.16-2.15 4.1z" />
	</symbol>
	<symbol viewBox="0 0 24 24" id="ic_label">
		<path
			d="M17.63 5.84C17.27 5.33 16.67 5 16 5L5 5.01C3.9 5.01 3 5.9 3 7v10c0 1.1.9 1.99 2 1.99L16 19c.67 0 1.27-.33 1.63-.84L22 12l-4.37-6.16z" />
	</symbol>
	<symbol viewBox="0 0 24 24" id="ic_label_outline">
		<path
			d="M17.63 5.84C17.27 5.33 16.67 5 16 5L5 5.01C3.9 5.01 3 5.9 3 7v10c0 1.1.9 1.99 2 1.99L16 19c.67 0 1.27-.33 1.63-.84L22 12l-4.37-6.16zM16 17H5V7h11l3.55 5L16 17z" />
	</symbol>
	<symbol viewBox="0 0 24 24" id="ic_bookmark">
		<path d="M17 3H7c-1.1 0-1.99.9-1.99 2L5 21l7-3 7 3V5c0-1.1-.9-2-2-2z" />
	</symbol>
	<symbol viewBox="0 0 24 24" id="ic_bookmark_border">
		<path d="M17 3H7c-1.1 0-1.99.9-1.99 2L5 21l7-3 7 3V5c0-1.1-.9-2-2-2zm0 15l-5-2.18L7 18V5h10v13z" />
	</symbol>
	<symbol viewBox="0 0 24 24" id="ic_info">
		<path d="M12 2C6.48 2 2 6.48 2 12s4.48 10 10 10 10-4.48 10-10S17.52 2 12 2zm1 15h-2v-6h2v6zm0-8h-2V7h2v2z" />
	</symbol>
	<symbol viewBox="0 0 24 24" id="ic_info_outline">
		<path
			d="M11 17h2v-6h-2v6zm1-15C6.48 2 2 6.48 2 12s4.48 10 10 10 10-4.48 10-10S17.52 2 12 2zm0 18c-4.41 0-8-3.59-8-8s3.59-8 8-8 8 3.59 8 8-3.59 8-8 8zM11 9h2V7h-2v2z" />
	</symbol>
	<symbol viewBox="0 0 24 24" id="ic_home">
		<path d="M10 20v-6h4v6h5v-8h3L12 3 2 12h3v8z" />
	</symbol>
	<symbol viewBox="0 0 24 24" id="ic_help">
		<path
			d="M12 2C6.48 2 2 6.48 2 12s4.48 10 10 10 10-4.48 10-10S17.52 2 12 2zm1 17h-2v-2h2v2zm2.07-7.75l-.9.92C13.45 12.9 13 13.5 13 15h-2v-.5c0-1.1.45-2.1 1.17-2.83l1.24-1.26c.37-.36.59-.86.59-1.41 0-1.1-.9-2-2-2s-2 .9-2 2H8c0-2.21 1.79-4 4-4s4 1.79 4 4c0 .88-.36 1.68-.93 2.25z" />
	</symbol>
	<symbol viewBox="0 0 24 24" id="ic_help_outline">
		<path
			d="M11 18h2v-2h-2v2zm1-16C6.48 2 2 6.48 2 12s4.48 10 10 10 10-4.48 10-10S17.52 2 12 2zm0 18c-4.41 0-8-3.59-8-8s3.59-8 8-8 8 3.59 8 8-3.59 8-8 8zm0-14a4 4 0 0 0-4 4h2c0-1.1.9-2 2-2s2 .9 2 2c0 2-3 1.75-3 5h2c0-2.25 3-2.5 3-5a4 4 0 0 0-4-4z" />
	</symbol>
	<symbol viewBox="0 0 24 24" id="ic_done">
		<path d="M9 16.2L4.8 12l-1.4 1.4L9 19 21 7l-1.4-1.4L9 16.2z" />
	</symbol>
	<symbol viewBox="0 0 24 24" id="ic_done_all">
		<path
			d="M18 7l-1.41-1.41-6.34 6.34 1.41 1.41L18 7zm4.24-1.41L11.66 16.17 7.48 12l-1.41 1.41L11.66 19l12-12-1.42-1.41zM.41 13.41L6 19l1.41-1.41L1.83 12 .41 13.41z" />
	</symbol>
	<symbol viewBox="0 0 24 24" id="ic_description">
		<path
			d="M14 2H6c-1.1 0-1.99.9-1.99 2L4 20c0 1.1.89 2 1.99 2H18c1.1 0 2-.9 2-2V8l-6-6zm2 16H8v-2h8v2zm0-4H8v-2h8v2zm-3-5V3.5L18.5 9H13z" />
	</symbol>
	<symbol viewBox="0 0 24 24" id="ic_save">
		<path
			d="M17 3H5a2 2 0 0 0-2 2v14a2 2 0 0 0 2 2h14c1.1 0 2-.9 2-2V7l-4-4zm-5 16c-1.66 0-3-1.34-3-3s1.34-3 3-3 3 1.34 3 3-1.34 3-3 3zm3-10H5V5h10v4z" />
	</symbol>
	<symbol viewBox="0 0 24 24" id="ic_mode_edit">
		<path
			d="M3 17.25V21h3.75L17.81 9.94l-3.75-3.75L3 17.25zM20.71 7.04a.996.996 0 0 0 0-1.41l-2.34-2.34a.996.996 0 0 0-1.41 0l-1.83 1.83 3.75 3.75 1.83-1.83z" />
	</symbol>
	<symbol viewBox="0 0 24 24" id="ic_keyboard">
		<path
			d="M20 5H4c-1.1 0-1.99.9-1.99 2L2 17c0 1.1.9 2 2 2h16c1.1 0 2-.9 2-2V7c0-1.1-.9-2-2-2zm-9 3h2v2h-2V8zm0 3h2v2h-2v-2zM8 8h2v2H8V8zm0 3h2v2H8v-2zm-1 2H5v-2h2v2zm0-3H5V8h2v2zm9 7H8v-2h8v2zm0-4h-2v-2h2v2zm0-3h-2V8h2v2zm3 3h-2v-2h2v2zm0-3h-2V8h2v2z" />
	</symbol>
	<symbol viewBox="0 0 24 24" id="ic_rate_review">
		<path
			d="M20 2H4c-1.1 0-1.99.9-1.99 2L2 22l4-4h14c1.1 0 2-.9 2-2V4c0-1.1-.9-2-2-2zM6 14v-2.47l6.88-6.88c.2-.2.51-.2.71 0l1.77 1.77c.2.2.2.51 0 .71L8.47 14H6zm12 0h-7.5l2-2H18v2z" />
	</symbol>
	<symbol viewBox="0 0 24 24" id="ic_color_lens">
		<path
			d="M12 3a9 9 0 0 0 0 18c.83 0 1.5-.67 1.5-1.5 0-.39-.15-.74-.39-1.01-.23-.26-.38-.61-.38-.99 0-.83.67-1.5 1.5-1.5H16c2.76 0 5-2.24 5-5 0-4.42-4.03-8-9-8zm-5.5 9c-.83 0-1.5-.67-1.5-1.5S5.67 9 6.5 9 8 9.67 8 10.5 7.33 12 6.5 12zm3-4C8.67 8 8 7.33 8 6.5S8.67 5 9.5 5s1.5.67 1.5 1.5S10.33 8 9.5 8zm5 0c-.83 0-1.5-.67-1.5-1.5S13.67 5 14.5 5s1.5.67 1.5 1.5S15.33 8 14.5 8zm3 4c-.83 0-1.5-.67-1.5-1.5S16.67 9 17.5 9s1.5.67 1.5 1.5-.67 1.5-1.5 1.5z" />
	</symbol>
	<symbol viewBox="0 0 24 24" id="ic_wb_incandescent">
		<path
			d="M3.55 18.54l1.41 1.41 1.79-1.8-1.41-1.41-1.79 1.8zM11 22.45h2V19.5h-2v2.95zM4 10.5H1v2h3v-2zm11-4.19V1.5H9v4.81C7.21 7.35 6 9.28 6 11.5c0 3.31 2.69 6 6 6s6-2.69 6-6c0-2.22-1.21-4.15-3-5.19zm5 4.19v2h3v-2h-3zm-2.76 7.66l1.79 1.8 1.41-1.41-1.8-1.79-1.4 1.4z" />
	</symbol>
	<symbol viewBox="0 0 24 24" id="ic_apps">
		<path
			d="M4 8h4V4H4v4zm6 12h4v-4h-4v4zm-6 0h4v-4H4v4zm0-6h4v-4H4v4zm6 0h4v-4h-4v4zm6-10v4h4V4h-4zm-6 4h4V4h-4v4zm6 6h4v-4h-4v4zm0 6h4v-4h-4v4z" />
	</symbol>
	<symbol viewBox="0 0 24 24" id="ic_expand_more">
		<path d="M16.59 8.59L12 13.17 7.41 8.59 6 10l6 6 6-6z" />
	</symbol>
	<symbol viewBox="0 0 24 24" id="ic_toc">
		<path d="M3 9h14V7H3v2zm0 4h14v-2H3v2zm0 4h14v-2H3v2zm16 0h2v-2h-2v2zm0-10v2h2V7h-2zm0 6h2v-2h-2v2z" />
	</symbol>
	<symbol viewBox="0 0 24 24" id="ic_more">
		<path
			d="M22 3H7c-.69 0-1.23.35-1.59.88L0 12l5.41 8.11c.36.53.97.89 1.66.89H22c1.1 0 2-.9 2-2V5c0-1.1-.9-2-2-2zM9 13.5c-.83 0-1.5-.67-1.5-1.5s.67-1.5 1.5-1.5 1.5.67 1.5 1.5-.67 1.5-1.5 1.5zm5 0c-.83 0-1.5-.67-1.5-1.5s.67-1.5 1.5-1.5 1.5.67 1.5 1.5-.67 1.5-1.5 1.5zm5 0c-.83 0-1.5-.67-1.5-1.5s.67-1.5 1.5-1.5 1.5.67 1.5 1.5-.67 1.5-1.5 1.5z" />
	</symbol>
	<symbol viewBox="0 0 24 24" id="ic_menu">
		<path d="M3 18h18v-2H3v2zm0-5h18v-2H3v2zm0-7v2h18V6H3z" />
	</symbol>
	<symbol viewBox="0 0 24 24" id="ic_down">
		<path d="M7.41 7.84L12 12.42l4.59-4.58L18 9.25l-6 6-6-6z" />
	</symbol>
	<symbol viewBox="0 0 24 24" id="ic_add">
		<path d="M19 13h-6v6h-2v-6H5v-2h6V5h2v6h6v2z" />
	</symbol>
	<symbol viewBox="0 0 24 24" id="ic_file_download">
		<path d="M19 9h-4V3H9v6H5l7 7 7-7zM5 18v2h14v-2H5z" />
	</symbol>
	<symbol viewBox="0 0 24 24" id="ic_move_to_inbox">
		<path
			d="M19 3H4.99c-1.11 0-1.98.9-1.98 2L3 19c0 1.1.88 2 1.99 2H19c1.1 0 2-.9 2-2V5c0-1.1-.9-2-2-2zm0 12h-4c0 1.66-1.35 3-3 3s-3-1.34-3-3H4.99V5H19v10zm-3-5h-2V7h-4v3H8l4 4 4-4z" />
	</symbol>
	<symbol viewBox="0 0 24 24" id="ic_settings">
		<path
			d="M19.43 12.98c.04-.32.07-.64.07-.98s-.03-.66-.07-.98l2.11-1.65c.19-.15.24-.42.12-.64l-2-3.46c-.12-.22-.39-.3-.61-.22l-2.49 1c-.52-.4-1.08-.73-1.69-.98l-.38-2.65A.488.488 0 0 0 14 2h-4c-.25 0-.46.18-.49.42l-.38 2.65c-.61.25-1.17.59-1.69.98l-2.49-1c-.23-.09-.49 0-.61.22l-2 3.46c-.13.22-.07.49.12.64l2.11 1.65c-.04.32-.07.65-.07.98s.03.66.07.98l-2.11 1.65c-.19.15-.24.42-.12.64l2 3.46c.12.22.39.3.61.22l2.49-1c.52.4 1.08.73 1.69.98l.38 2.65c.03.24.24.42.49.42h4c.25 0 .46-.18.49-.42l.38-2.65c.61-.25 1.17-.59 1.69-.98l2.49 1c.23.09.49 0 .61-.22l2-3.46c.12-.22.07-.49-.12-.64l-2.11-1.65zM12 15.5c-1.93 0-3.5-1.57-3.5-3.5s1.57-3.5 3.5-3.5 3.5 1.57 3.5 3.5-1.57 3.5-3.5 3.5z">
		</path>
	</symbol>
	<symbol viewBox="0 0 24 24" id="ic_chrome_reader_mode">
		<path
			d="M13 12h7v1.5h-7zm0-2.5h7V11h-7zm0 5h7V16h-7zM21 4H3c-1.1 0-2 .9-2 2v13c0 1.1.9 2 2 2h18c1.1 0 2-.9 2-2V6c0-1.1-.9-2-2-2zm0 15h-9V6h9v13z">
		</path>
	</symbol>
	<symbol viewBox="0 0 24 24" id="ic_search">
		<path
			d="M15.5 14h-.79l-.28-.27A6.47 6.47 0 0 0 16 9.5 6.5 6.5 0 1 0 9.5 16c1.61 0 3.09-.59 4.23-1.57l.27.28v.79l5 4.99L20.49 19l-4.99-5zm-6 0C7.01 14 5 11.99 5 9.5S7.01 5 9.5 5 14 7.01 14 9.5 11.99 14 9.5 14z" />
	</symbol>
	<symbol viewBox="0 0 24 24" id="ic_translate">
		<path
			d="M12.87 15.07l-2.54-2.51.03-.03A17.52 17.52 0 0 0 14.07 6H17V4h-7V2H8v2H1v1.99h11.17C11.5 7.92 10.44 9.75 9 11.35 8.07 10.32 7.3 9.19 6.69 8h-2c.73 1.63 1.73 3.17 2.98 4.56l-5.09 5.02L4 19l5-5 3.11 3.11.76-2.04zM18.5 10h-2L12 22h2l1.12-3h4.75L21 22h2l-4.5-12zm-2.62 7l1.62-4.33L19.12 17h-3.24z" />
	</symbol>
	<symbol viewBox="0 0 24 24" id="ic_assignment">
		<path
			d="M19 3h-4.18C14.4 1.84 13.3 1 12 1c-1.3 0-2.4.84-2.82 2H5c-1.1 0-2 .9-2 2v14c0 1.1.9 2 2 2h14c1.1 0 2-.9 2-2V5c0-1.1-.9-2-2-2zm-7 0c.55 0 1 .45 1 1s-.45 1-1 1-1-.45-1-1 .45-1 1-1zm2 14H7v-2h7v2zm3-4H7v-2h10v2zm0-4H7V7h10v2z" />
	</symbol>
	<symbol viewBox="0 0 24 24" id="ic_assignment_on">
		<path
			d="M19 3h-4.18C14.4 1.84 13.3 1 12 1c-1.3 0-2.4.84-2.82 2H5c-1.1 0-2 .9-2 2v14c0 1.1.9 2 2 2h14c1.1 0 2-.9 2-2V5c0-1.1-.9-2-2-2zm-7 0c.55 0 1 .45 1 1s-.45 1-1 1-1-.45-1-1 .45-1 1-1zm2 14H7v-2h7v2zm3-4H7v-2h10v2zm0-4H7V7h10v2z" />
	</symbol>
	<symbol viewBox="0 0 24 24" id="ic_lock_open">
		<path
			d="M12 17c1.1 0 2-.9 2-2s-.9-2-2-2-2 .9-2 2 .9 2 2 2zm6-9h-1V6c0-2.76-2.24-5-5-5S7 3.24 7 6h1.9c0-1.71 1.39-3.1 3.1-3.1 1.71 0 3.1 1.39 3.1 3.1v2H6c-1.1 0-2 .9-2 2v10c0 1.1.9 2 2 2h12c1.1 0 2-.9 2-2V10c0-1.1-.9-2-2-2zm0 12H6V10h12v10z">
		</path>
	</symbol>
	<symbol viewBox="0 0 24 24" id="ic_lock_off">
		<path
			d="M12 17c1.1 0 2-.9 2-2s-.9-2-2-2-2 .9-2 2 .9 2 2 2zm6-9h-1V6c0-2.76-2.24-5-5-5S7 3.24 7 6h1.9c0-1.71 1.39-3.1 3.1-3.1 1.71 0 3.1 1.39 3.1 3.1v2H6c-1.1 0-2 .9-2 2v10c0 1.1.9 2 2 2h12c1.1 0 2-.9 2-2V10c0-1.1-.9-2-2-2zm0 12H6V10h12v10z">
		</path>
	</symbol>
	<symbol viewBox="0 0 24 24" id="ic_lock_outline">
		<path
			d="M12 17c1.1 0 2-.9 2-2s-.9-2-2-2-2 .9-2 2 .9 2 2 2zm6-9h-1V6c0-2.76-2.24-5-5-5S7 3.24 7 6v2H6c-1.1 0-2 .9-2 2v10c0 1.1.9 2 2 2h12c1.1 0 2-.9 2-2V10c0-1.1-.9-2-2-2zM8.9 6c0-1.71 1.39-3.1 3.1-3.1s3.1 1.39 3.1 3.1v2H8.9V6zM18 20H6V10h12v10z" />
	</symbol>
	<symbol viewBox="0 0 24 24" id="ic_backup">
		<path
			d="M19.35 10.04A7.49 7.49 0 0 0 12 4C9.11 4 6.6 5.64 5.35 8.04A5.994 5.994 0 0 0 0 14c0 3.31 2.69 6 6 6h13c2.76 0 5-2.24 5-5 0-2.64-2.05-4.78-4.65-4.96zM14 13v4h-4v-4H7l5-5 5 5h-3z" />
	</symbol>
	<symbol viewBox="0 0 24 24" id="ic_cloud_upload">
		<path
			d="M19.35 10.04A7.49 7.49 0 0 0 12 4C9.11 4 6.6 5.64 5.35 8.04A5.994 5.994 0 0 0 0 14c0 3.31 2.69 6 6 6h13c2.76 0 5-2.24 5-5 0-2.64-2.05-4.78-4.65-4.96zM14 13v4h-4v-4H7l5-5 5 5h-3z" />
	</symbol>
	<symbol viewBox="0 0 24 24" id="ic_cloud_on">
		<path
			d="M19.35 10.04A7.49 7.49 0 0 0 12 4C9.11 4 6.6 5.64 5.35 8.04A5.994 5.994 0 0 0 0 14c0 3.31 2.69 6 6 6h13c2.76 0 5-2.24 5-5 0-2.64-2.05-4.78-4.65-4.96zM14 13v4h-4v-4H7l5-5 5 5h-3z" />
	</symbol>
	<symbol viewBox="0 0 24 24" id="ic_cloud_off">
		<path
			d="M19.35 10.04A7.49 7.49 0 0 0 12 4c-1.48 0-2.85.43-4.01 1.17l1.46 1.46a5.497 5.497 0 0 1 8.05 4.87v.5H19c1.66 0 3 1.34 3 3 0 1.13-.64 2.11-1.56 2.62l1.45 1.45C23.16 18.16 24 16.68 24 15c0-2.64-2.05-4.78-4.65-4.96zM3 5.27l2.75 2.74C2.56 8.15 0 10.77 0 14c0 3.31 2.69 6 6 6h11.73l2 2L21 20.73 4.27 4 3 5.27zM7.73 10l8 8H6c-2.21 0-4-1.79-4-4s1.79-4 4-4h1.73z" />
	</symbol>
	<symbol viewBox="0 0 24 24" id="ic_vertical_align_bottom">
		<path d="M16 13h-3V3h-2v10H8l4 4 4-4zM4 19v2h16v-2H4z" />
	</symbol>
	<symbol viewBox="0 0 24 24" id="ic_vertical_align_center">
		<path d="M8 19h3v4h2v-4h3l-4-4-4 4zm8-14h-3V1h-2v4H8l4 4 4-4zM4 11v2h16v-2H4z" />
	</symbol>
	<symbol viewBox="0 0 24 24" id="ic_vertical_align_top">
		<path d="M8 11h3v10h2V11h3l-4-4-4 4zM4 3v2h16V3H4z" />
	</symbol>
	<symbol viewBox="0 0 24 24" id="ic_format_line_spacing">
		<path d="M6 7h2.5L5 3.5 1.5 7H4v10H1.5L5 20.5 8.5 17H6V7zm4-2v2h12V5H10zm0 14h12v-2H10v2zm0-6h12v-2H10v2z" />
	</symbol>
	<symbol viewBox="0 0 24 24" id="ic_clear">
		<path
			d="M19 6.41L17.59 5 12 10.59 6.41 5 5 6.41 10.59 12 5 17.59 6.41 19 12 13.41 17.59 19 19 17.59 13.41 12z" />
	</symbol>
	<symbol viewBox="0 0 24 24" id="ic_format_paint">
		<path
			d="M18 4V3c0-.55-.45-1-1-1H5c-.55 0-1 .45-1 1v4c0 .55.45 1 1 1h12c.55 0 1-.45 1-1V6h1v4H9v11c0 .55.45 1 1 1h2c.55 0 1-.45 1-1v-9h8V4h-3z" />
	</symbol>
	<symbol viewBox="0 0 24 24" id="ic_autorenew">
		<path
			d="M12 6v3l4-4-4-4v3c-4.42 0-8 3.58-8 8 0 1.57.46 3.03 1.24 4.26L6.7 14.8A5.87 5.87 0 0 1 6 12c0-3.31 2.69-6 6-6zm6.76 1.74L17.3 9.2c.44.84.7 1.79.7 2.8 0 3.31-2.69 6-6 6v-3l-4 4 4 4v-3c4.42 0 8-3.58 8-8 0-1.57-.46-3.03-1.24-4.26z" />
	</symbol>
	<symbol viewBox="0 0 24 24" id="ic_build">
		<path
			d="M22.7 19l-9.1-9.1c.9-2.3.4-5-1.5-6.9-2-2-5-2.4-7.4-1.3L9 6 6 9 1.6 4.7C.4 7.1.9 10.1 2.9 12.1c1.9 1.9 4.6 2.4 6.9 1.5l9.1 9.1c.4.4 1 .4 1.4 0l2.3-2.3c.5-.4.5-1.1.1-1.4z" />
	</symbol>
	<symbol viewBox="0 0 24 24" id="ic_youtube_searched_for">
		<path
			d="M17.01 14h-.8l-.27-.27a6.45 6.45 0 0 0 1.57-4.23c0-3.59-2.91-6.5-6.5-6.5s-6.5 3-6.5 6.5H2l3.84 4 4.16-4H6.51a4.5 4.5 0 0 1 9 0 4.507 4.507 0 0 1-6.32 4.12L7.71 15.1a6.474 6.474 0 0 0 7.52-.67l.27.27v.79l5.01 4.99L22 19l-4.99-5z" />
	</symbol>
	<symbol viewBox="0 0 24 24" id="ic_content_cut">
		<path
			d="M9.64 7.64c.23-.5.36-1.05.36-1.64 0-2.21-1.79-4-4-4S2 3.79 2 6s1.79 4 4 4c.59 0 1.14-.13 1.64-.36L10 12l-2.36 2.36C7.14 14.13 6.59 14 6 14c-2.21 0-4 1.79-4 4s1.79 4 4 4 4-1.79 4-4c0-.59-.13-1.14-.36-1.64L12 14l7 7h3v-1L9.64 7.64zM6 8a2 2 0 1 1 0-4 2 2 0 0 1 0 4zm0 12a2 2 0 1 1 0-4 2 2 0 0 1 0 4zm6-7.5c-.28 0-.5-.22-.5-.5s.22-.5.5-.5.5.22.5.5-.22.5-.5.5zM19 3l-6 6 2 2 7-7V3z" />
	</symbol>
	<symbol viewBox="0 0 24 24" id="ic_mouse">
		<path
			d="M13 1.07V9h7c0-4.08-3.05-7.44-7-7.93zM4 15c0 4.42 3.58 8 8 8s8-3.58 8-8v-4H4v4zm7-13.93C7.05 1.56 4 4.92 4 9h7V1.07z" />
	</symbol>
	<symbol viewBox="0 0 24 24" id="ic_lock">
		<path
			d="M18 8h-1V6c0-2.76-2.24-5-5-5S7 3.24 7 6v2H6c-1.1 0-2 .9-2 2v10c0 1.1.9 2 2 2h12c1.1 0 2-.9 2-2V10c0-1.1-.9-2-2-2zm-6 9c-1.1 0-2-.9-2-2s.9-2 2-2 2 .9 2 2-.9 2-2 2zm3.1-9H8.9V6c0-1.71 1.39-3.1 3.1-3.1 1.71 0 3.1 1.39 3.1 3.1v2z" />
	</symbol>
	<symbol viewBox="0 0 24 24" id="ic_lock_on">
		<path
			d="M18 8h-1V6c0-2.76-2.24-5-5-5S7 3.24 7 6v2H6c-1.1 0-2 .9-2 2v10c0 1.1.9 2 2 2h12c1.1 0 2-.9 2-2V10c0-1.1-.9-2-2-2zm-6 9c-1.1 0-2-.9-2-2s.9-2 2-2 2 .9 2 2-.9 2-2 2zm3.1-9H8.9V6c0-1.71 1.39-3.1 3.1-3.1 1.71 0 3.1 1.39 3.1 3.1v2z" />
	</symbol>
	<symbol viewBox="0 0 24 24" id="ic_assignment_late">
		<path
			d="M19 3h-4.18C14.4 1.84 13.3 1 12 1c-1.3 0-2.4.84-2.82 2H5c-1.1 0-2 .9-2 2v14c0 1.1.9 2 2 2h14c1.1 0 2-.9 2-2V5c0-1.1-.9-2-2-2zm-6 15h-2v-2h2v2zm0-4h-2V8h2v6zm-1-9c-.55 0-1-.45-1-1s.45-1 1-1 1 .45 1 1-.45 1-1 1z" />
	</symbol>
	<symbol viewBox="0 0 24 24" id="ic_assignment_off">
		<path
			d="M19 3h-4.18C14.4 1.84 13.3 1 12 1c-1.3 0-2.4.84-2.82 2H5c-1.1 0-2 .9-2 2v14c0 1.1.9 2 2 2h14c1.1 0 2-.9 2-2V5c0-1.1-.9-2-2-2zm-6 15h-2v-2h2v2zm0-4h-2V8h2v6zm-1-9c-.55 0-1-.45-1-1s.45-1 1-1 1 .45 1 1-.45 1-1 1z" />
	</symbol>
	<symbol viewBox="0 0 24 24" id="ic_remove_shopping_cart">
		<path
			d="M22.73 22.73L2.77 2.77 2 2l-.73-.73L0 2.54l4.39 4.39 2.21 4.66-1.35 2.45c-.16.28-.25.61-.25.96 0 1.1.9 2 2 2h7.46l1.38 1.38A1.997 1.997 0 0 0 17 22c.67 0 1.26-.33 1.62-.84L21.46 24l1.27-1.27zM7.42 15c-.14 0-.25-.11-.25-.25l.03-.12.9-1.63h2.36l2 2H7.42zm8.13-2c.75 0 1.41-.41 1.75-1.03l3.58-6.49A1.003 1.003 0 0 0 20 4H6.54l9.01 9zM7 18c-1.1 0-1.99.9-1.99 2S5.9 22 7 22s2-.9 2-2-.9-2-2-2z" />
	</symbol>
	<symbol viewBox="0 0 24 24" id="ic_delete">
		<path d="M6 19c0 1.1.9 2 2 2h8c1.1 0 2-.9 2-2V7H6v12zM19 4h-3.5l-1-1h-5l-1 1H5v2h14V4z" />
	</symbol>
	<symbol viewBox="0 0 24 24" id="ic_note_add">
		<path
			d="M14 2H6c-1.1 0-1.99.9-1.99 2L4 20c0 1.1.89 2 1.99 2H18c1.1 0 2-.9 2-2V8l-6-6zm2 14h-3v3h-2v-3H8v-2h3v-3h2v3h3v2zm-3-7V3.5L18.5 9H13z" />
	</symbol>
	<symbol viewBox="0 0 24 24" id="ic_cloud_download">
		<path
			d="M19.35 10.04A7.49 7.49 0 0 0 12 4C9.11 4 6.6 5.64 5.35 8.04A5.994 5.994 0 0 0 0 14c0 3.31 2.69 6 6 6h13c2.76 0 5-2.24 5-5 0-2.64-2.05-4.78-4.65-4.96zM17 13l-5 5-5-5h3V9h4v4h3z" />
	</symbol>
	<symbol viewBox="0 0 24 24" id="ic_assignment_returned">
		<path
			d="M19 3h-4.18C14.4 1.84 13.3 1 12 1c-1.3 0-2.4.84-2.82 2H5c-1.1 0-2 .9-2 2v14c0 1.1.9 2 2 2h14c1.1 0 2-.9 2-2V5c0-1.1-.9-2-2-2zm-7 0c.55 0 1 .45 1 1s-.45 1-1 1-1-.45-1-1 .45-1 1-1zm0 15l-5-5h3V9h4v4h3l-5 5z" />
	</symbol>
	<symbol viewBox="0 0 24 24" id="ic_turned_in">
		<path d="M17 3H7c-1.1 0-1.99.9-1.99 2L5 21l7-3 7 3V5c0-1.1-.9-2-2-2z" />
	</symbol>
	<symbol viewBox="0 0 24 24" id="ic_bookmark">
		<path d="M17 3H7c-1.1 0-1.99.9-1.99 2L5 21l7-3 7 3V5c0-1.1-.9-2-2-2z" />
	</symbol>
	<symbol viewBox="0 0 24 24" id="ic_bookmark_border">
		<path d="M17 3H7c-1.1 0-1.99.9-1.99 2L5 21l7-3 7 3V5c0-1.1-.9-2-2-2zm0 15l-5-2.18L7 18V5h10v13z" />
	</symbol>
	<symbol viewBox="0 0 24 24" id="ic_bookmark_on">
		<path d="M17 3H7c-1.1 0-1.99.9-1.99 2L5 21l7-3 7 3V5c0-1.1-.9-2-2-2z" />
	</symbol>
	<symbol viewBox="0 0 24 24" id="ic_bookmark_off">
		<path d="M17 3H7c-1.1 0-1.99.9-1.99 2L5 21l7-3 7 3V5c0-1.1-.9-2-2-2zm0 15l-5-2.18L7 18V5h10v13z" />
	</symbol>
	<symbol viewBox="0 0 24 24" id="ic_file_upload">
		<path d="M9 16h6v-6h4l-7-7-7 7h4zm-4 2h14v2H5z" />
	</symbol>
	<symbol viewBox="0 0 24 24" id="ic_forward">
		<path d="M12 8V4l8 8-8 8v-4H4V8z" />
	</symbol>
	<symbol viewBox="0 0 24 24" id="ic_block">
		<path
			d="M12 2C6.48 2 2 6.48 2 12s4.48 10 10 10 10-4.48 10-10S17.52 2 12 2zM4 12c0-4.42 3.58-8 8-8 1.85 0 3.55.63 4.9 1.69L5.69 16.9A7.902 7.902 0 0 1 4 12zm8 8c-1.85 0-3.55-.63-4.9-1.69L18.31 7.1A7.902 7.902 0 0 1 20 12c0 4.42-3.58 8-8 8z" />
	</symbol>
	<symbol viewBox="0 0 24 24" id="ic_split">
		<path d="M6.99 11L3 15l3.99 4v-3H14v-2H6.99v-3zM21 9l-3.99-4v3H10v2h7.01v3L21 9z" />
	</symbol>
	<symbol viewBox="0 0 24 24" id="ic_join">
		<path d="M9.01 14H2v2h7.01v3L13 15l-3.99-4v3zm5.98-1v-3H22V8h-7.01V5L11 9l3.99 4z" />
	</symbol>
	<symbol viewBox="0 0 24 24" id="ic_star">
		<path d="M12 17.27L18.18 21l-1.64-7.03L22 9.24l-7.19-.61L12 2 9.19 8.63 2 9.24l5.46 4.73L5.82 21z" />
	</symbol>
	<symbol viewBox="0 0 24 24" id="ic_star_border">
		<path
			d="M22 9.24l-7.19-.62L12 2 9.19 8.63 2 9.24l5.46 4.73L5.82 21 12 17.27 18.18 21l-1.63-7.03L22 9.24zM12 15.4l-3.76 2.27 1-4.28-3.32-2.88 4.38-.38L12 6.1l1.71 4.04 4.38.38-3.32 2.88 1 4.28L12 15.4z" />
	</symbol>
	<symbol viewBox="0 0 24 24" id="ic_star_half">
		<path
			d="M22 9.24l-7.19-.62L12 2 9.19 8.63 2 9.24l5.46 4.73L5.82 21 12 17.27 18.18 21l-1.63-7.03L22 9.24zM12 15.4V6.1l1.71 4.04 4.38.38-3.32 2.88 1 4.28L12 15.4z" />
	</symbol>
	<symbol viewBox="0 0 24 24" id="ic_input">
		<path
			d="M21 3.01H3c-1.1 0-2 .9-2 2V9h2V4.99h18v14.03H3V15H1v4.01c0 1.1.9 1.98 2 1.98h18c1.1 0 2-.88 2-1.98v-14a2 2 0 0 0-2-2zM11 16l4-4-4-4v3H1v2h10v3z" />
	</symbol>
	<symbol viewBox="0 0 24 24" id="ic_question_answer">
		<path
			d="M21 6h-2v9H6v2c0 .55.45 1 1 1h11l4 4V7c0-.55-.45-1-1-1zm-4 6V3c0-.55-.45-1-1-1H3c-.55 0-1 .45-1 1v14l4-4h10c.55 0 1-.45 1-1z" />
	</symbol>
	<symbol viewBox="0 0 24 24" id="ic_shopping_cart">
		<path
			d="M7 18c-1.1 0-1.99.9-1.99 2S5.9 22 7 22s2-.9 2-2-.9-2-2-2zM1 2v2h2l3.6 7.59-1.35 2.45c-.16.28-.25.61-.25.96 0 1.1.9 2 2 2h12v-2H7.42c-.14 0-.25-.11-.25-.25l.03-.12.9-1.63h7.45c.75 0 1.41-.41 1.75-1.03l3.58-6.49A1.003 1.003 0 0 0 20 4H5.21l-.94-2H1zm16 16c-1.1 0-1.99.9-1.99 2s.89 2 1.99 2 2-.9 2-2-.9-2-2-2z" />
	</symbol>
	<symbol viewBox="0 0 24 24" id="ic_find_in_page">
		<path
			d="M20 19.59V8l-6-6H6c-1.1 0-1.99.9-1.99 2L4 20c0 1.1.89 2 1.99 2H18c.45 0 .85-.15 1.19-.4l-4.43-4.43c-.8.52-1.74.83-2.76.83-2.76 0-5-2.24-5-5s2.24-5 5-5 5 2.24 5 5c0 1.02-.31 1.96-.83 2.75L20 19.59zM9 13c0 1.66 1.34 3 3 3s3-1.34 3-3-1.34-3-3-3-3 1.34-3 3z" />
	</symbol>
	<symbol viewBox="0 0 24 24" id="ic_scholar">
		<path d="M5 13.18v4L12 21l7-3.82v-4L12 17l-7-3.82zM12 3L1 9l11 6 9-4.91V17h2V9L12 3z" />
	</symbol>
	<symbol viewBox="0 0 24 24" id="ic_reader_mode">
		<path
			d="M21 5c-1.11-.35-2.33-.5-3.5-.5-1.95 0-4.05.4-5.5 1.5-1.45-1.1-3.55-1.5-5.5-1.5S2.45 4.9 1 6v14.65c0 .25.25.5.5.5.1 0 .15-.05.25-.05C3.1 20.45 5.05 20 6.5 20c1.95 0 4.05.4 5.5 1.5 1.35-.85 3.8-1.5 5.5-1.5 1.65 0 3.35.3 4.75 1.05.1.05.15.05.25.05.25 0 .5-.25.5-.5V6c-.6-.45-1.25-.75-2-1zm0 13.5c-1.1-.35-2.3-.5-3.5-.5-1.7 0-4.15.65-5.5 1.5V8c1.35-.85 3.8-1.5 5.5-1.5 1.2 0 2.4.15 3.5.5v11.5z" />
	</symbol>
	<symbol viewBox="0 0 24 24" id="new_moon">
		<path
			d="M9 2c-1.05 0-2.05.16-3 .46 4.06 1.27 7 5.06 7 9.54 0 4.48-2.94 8.27-7 9.54.95.3 1.95.46 3 .46 5.52 0 10-4.48 10-10S14.52 2 9 2z" />
	</symbol>
	<symbol viewBox="0 0 24 24" id="full_moon">
		<circle cx="12" cy="12" r="10" />
	</symbol>
	<symbol viewBox="0 0 24 24" id="ic_link">
		<path
			d="M3.9 12c0-1.71 1.39-3.1 3.1-3.1h4V7H7c-2.76 0-5 2.24-5 5s2.24 5 5 5h4v-1.9H7c-1.71 0-3.1-1.39-3.1-3.1zM8 13h8v-2H8v2zm9-6h-4v1.9h4c1.71 0 3.1 1.39 3.1 3.1s-1.39 3.1-3.1 3.1h-4V17h4c2.76 0 5-2.24 5-5s-2.24-5-5-5z" />
	</symbol>
	<symbol viewBox="0 0 24 24" id="ic_attachment">
		<path
			d="M2 12.5C2 9.46 4.46 7 7.5 7H18c2.21 0 4 1.79 4 4s-1.79 4-4 4H9.5a2.5 2.5 0 0 1 0-5H17v2H9.41c-.55 0-.55 1 0 1H18c1.1 0 2-.9 2-2s-.9-2-2-2H7.5C5.57 9 4 10.57 4 12.5S5.57 16 7.5 16H17v2H7.5C4.46 18 2 15.54 2 12.5z" />
	</symbol>
	<symbol viewBox="0 0 30 30" id="ic_add_folder">
		<g transform="translate(-5 -5)">
			<path
				d="M24.287,10.254H15.27L13.016,8H6.254a2.244,2.244,0,0,0-2.243,2.254L4,23.779a2.253,2.253,0,0,0,2.254,2.254H24.287a2.253,2.253,0,0,0,2.254-2.254V12.508A2.253,2.253,0,0,0,24.287,10.254ZM23.16,19.27H19.779v3.381H17.525V19.27H14.143V17.016h3.381V13.635h2.254v3.381H23.16Z"
				transform="translate(5 2.89)" />
		</g>
	</symbol>
	<symbol viewBox="0 0 30 30" id="ic_add_person">
		<g transform="translate(-5 -5)">
			<path class="b"
				d="M16,16a4,4,0,1,0-4-4A4,4,0,0,0,16,16ZM7,14V11H5v3H2v2H5v3H7V16h3V14Zm9,4c-2.665,0-8,1.335-8,4v2H24V22C24,19.335,18.665,18,16,18Z"
				transform="translate(7 4)" />
		</g>
	</symbol>
	<symbol viewBox="0 0 30 30" id="ic_folder_move">
		<g transform="translate(-5 -5)">
			<path class="b"
				d="M15.533,19.789V16.405H11.022V11.894h4.511V8.511l5.639,5.639M22.3,6.256H13.278L11.022,4H4.256A2.248,2.248,0,0,0,2,6.256V19.789a2.256,2.256,0,0,0,2.256,2.256H22.3a2.256,2.256,0,0,0,2.256-2.256V8.511A2.255,2.255,0,0,0,22.3,6.256Z"
				transform="translate(7 6.956)" />
		</g>
	</symbol>
	<symbol viewBox="0 0 30 30" id="ic_rename">
		<g transform="translate(-5 -5)">
			<path class="b"
				d="M6,20.253V24H9.75L20.815,12.938l-3.75-3.75Zm17.7-10.2a1,1,0,0,0,0-1.415L21.37,6.3a1,1,0,0,0-1.415,0l-1.83,1.83,3.75,3.75,1.83-1.83Z"
				transform="translate(5 4.995)" />
			<path class="b" d="M17.619,29h11.21V26.591H20.057Z" />
		</g>
	</symbol>
	<symbol viewBox="0 0 30 30" id="ic_delete">
		<path class="a"
			d="M11.25,26a2.5,2.5,0,0,0,2.5,2.5h10a2.5,2.5,0,0,0,2.5-2.5V11h-15ZM27.5,7.25H23.125L21.875,6h-6.25l-1.25,1.25H10v2.5H27.5Z"
			transform="translate(-3.75 -2.25)" />
	</symbol>
	<symbol viewBox="0 0 30 30" id="ic_two_person">
		<path class="b"
			d="M20.75,17.5A3.75,3.75,0,1,0,17,13.75,3.742,3.742,0,0,0,20.75,17.5Zm-10,0A3.75,3.75,0,1,0,7,13.75,3.742,3.742,0,0,0,10.75,17.5Zm0,2.5C7.831,20,2,21.462,2,24.375V27.5H19.5V24.375C19.5,21.462,13.669,20,10.75,20Zm10,0c-.362,0-.769.025-1.206.069A5.241,5.241,0,0,1,22,24.375V27.5h7.5V24.375C29.5,21.462,23.669,20,20.75,20Z"
			transform="translate(-0.75 -3.75)" />
	</symbol>
	<symbol viewBox="0 0 20 20" id="ic_archive">
		<path class="a"
			d="M3,3H23V7.444H3V3M4.111,8.556H21.889V23H4.111V8.556m6.111,3.333a.556.556,0,0,0-.556.556v1.667h6.667V12.444a.556.556,0,0,0-.556-.556Z"
			transform="translate(-3 -3)" />
	</symbol>
	<symbol viewBox="0 0 30 30" id="ic_add_circle">
		<path class="b"
			d="M16.5,4A12.5,12.5,0,1,0,29,16.5,12.5,12.5,0,0,0,16.5,4Zm6.25,13.75h-5v5h-2.5v-5h-5v-2.5h5v-5h2.5v5h5Z"
			transform="translate(-1.5 -1.5)" />
	</symbol>
	<symbol viewBox="0 0 24 24" id="ic_chevron_right_24px">
		<path d="M10 6L8.59 7.41 13.17 12l-4.58 4.59L10 18l6-6z" />
	</symbol>
	<symbol viewBox="0 0 24 24" id="ic_autorenew_24px">
		<path
			d="M12 6v3l4-4-4-4v3c-4.42 0-8 3.58-8 8 0 1.57.46 3.03 1.24 4.26L6.7 14.8A5.87 5.87 0 0 1 6 12c0-3.31 2.69-6 6-6zm6.76 1.74L17.3 9.2c.44.84.7 1.79.7 2.8 0 3.31-2.69 6-6 6v-3l-4 4 4 4v-3c4.42 0 8-3.58 8-8 0-1.57-.46-3.03-1.24-4.26z" />
	</symbol>
	<symbol viewBox="0 0 24 24" id="ic_exit_to_app_24px">
		<path
			d="M10.09 15.59L11.5 17l5-5-5-5-1.41 1.41L12.67 11H3v2h9.67l-2.58 2.59zM19 3H5a2 2 0 0 0-2 2v4h2V5h14v14H5v-4H3v4a2 2 0 0 0 2 2h14c1.1 0 2-.9 2-2V5c0-1.1-.9-2-2-2z" />
	</symbol>
	<symbol viewBox="0 0 24 24" id="ic_restore_24px">
		<path
			d="M13 3a9 9 0 0 0-9 9H1l3.89 3.89.07.14L9 12H6c0-3.87 3.13-7 7-7s7 3.13 7 7-3.13 7-7 7c-1.93 0-3.68-.79-4.94-2.06l-1.42 1.42A8.954 8.954 0 0 0 13 21a9 9 0 0 0 0-18zm-1 5v5l4.28 2.54.72-1.21-3.5-2.08V8H12z" />
	</symbol>
	<symbol viewBox="0 0 26.586 26.586" id="ic_inbox">
		<g>
			<path d="M22.6,7.826h-4.006v1.868H22.6c1.096,0,1.99,0.606,1.99,1.349v12.208
				c0,0.743-0.895,1.346-1.99,1.346H3.989c-1.101,0-1.994-0.603-1.994-1.346V11.042c0-0.743,0.894-1.349,1.994-1.349H7.99V7.826H3.989
				C1.784,7.826,0,9.031,0,10.521v13.245c0,1.488,1.784,2.692,3.989,2.692H22.6c2.202,0,3.986-1.204,3.986-2.692V10.521
				C26.586,9.031,24.802,7.826,22.6,7.826z" />
			<polygon points="9.385,13.816 5.574,13.816 13.389,23.091 21.012,13.583 17.199,13.583 17.199,7.199 
				17.199,5.411 17.199,0.128 9.385,0.128 9.385,5.411 9.385,7.199 	" />
		</g>
	</symbol>
	<symbol viewBox="0 0 432.416 432.415" id="ic_data_shared">
		<g>
			<path d="M128.921,95.506h226.66c4.071,0,7.365-3.294,7.365-7.363V21.15c0-4.074-3.294-7.363-7.365-7.363h-226.66
				c-4.081,0-7.375,3.294-7.375,7.363v66.988C121.542,92.212,124.841,95.506,128.921,95.506z M145.501,33.399h96.746v38.708h-96.746
				V33.399z M128.921,194.333h226.66c4.071,0,7.365-3.297,7.365-7.363v-67.005c0-4.062-3.294-7.365-7.365-7.365h-226.66
				c-4.081,0-7.375,3.308-7.375,7.365v67C121.542,191.037,124.841,194.333,128.921,194.333z M145.501,131.228h96.746v38.698h-96.746
				V131.228z M128.921,210.476h220.077c-12.162,6.761-22.299,17.07-28.864,30.061c-0.841,1.674-1.695,3.306-2.54,4.881
				c-12.957-17.74-33.907-29.275-57.51-29.275H121.89C122.681,212.914,125.455,210.476,128.921,210.476z M429.967,261.538
				c-4.06-12.39-12.7-22.436-24.304-28.312c-6.808-3.459-14.427-5.275-22.016-5.275c-18.499,0-35.181,10.243-43.53,26.748
				c-10.641,21.022-21.109,35.72-31.918,44.642c0.434-2.618,0.646-5.288,0.646-7.989c0-26.889-21.871-48.769-48.767-48.769H100.781
				c-5.384,0-9.748,4.379-9.748,9.763l-0.025,145.248c0,2.583,1.032,5.067,2.86,6.896c1.833,1.822,4.31,2.858,6.896,2.858
				l181.078-0.178c78.807-0.317,124.854-68.071,145.28-108.422C433.01,287.136,434.028,273.916,429.967,261.538z M409.735,289.937
				c-18.42,36.378-59.536,97.445-127.933,97.73l-171.282,0.153l0.018-125.725h149.546c16.137,0,29.266,13.122,29.266,29.255
				c0,6.729-2.376,13.022-6.546,18.197H174.476c-5.385,0-9.753,4.368-9.753,9.752c0,5.385,4.368,9.751,9.753,9.751h112.806
				c0.305,0,0.589-0.071,0.893-0.093c0.112-0.011,0.233,0.021,0.354,0.012c0.175-0.033,0.347-0.083,0.52-0.105
				c0.117-0.021,0.219-0.043,0.322-0.054c33.483-4.837,54.012-37.374,68.16-65.314c5.02-9.904,15.015-16.049,26.123-16.049
				c4.604,0,9.034,1.056,13.188,3.169c6.982,3.522,12.161,9.554,14.594,16.984C413.858,275.032,413.261,282.966,409.735,289.937z
				M0,418.628h79.125V231.934H0V418.628z M39.565,252.881c8.383,0,15.18,6.796,15.18,15.18c0,8.383-6.796,15.168-15.18,15.168
				c-8.378,0-15.174-6.785-15.174-15.168C24.392,259.677,31.183,252.881,39.565,252.881z" />
		</g>
	</symbol>
	<symbol viewBox="0 0 298 298" style="enable-background:new 0 0 298 298;" xml:space="preserve" id="ic_my_doc">
		<g>
			<path
				d="M166.395,132v-8.586c0-9.28-7.279-16.414-16.561-16.414h-0.213c-9.281,0-17.227,7.134-17.227,16.414V132H166.395z" />
			<polygon points="214.395,51 264.605,51 214.395,0 	" />
			<path
				d="M199.395,58.5V0H59.228C45.442,0,33.395,11.381,33.395,25.166v247.668c0,13.785,12.048,25.166,25.833,25.166h181
		c13.785,0,24.167-11.381,24.167-25.166V66h-57.167C203.085,66,199.395,62.643,199.395,58.5z M186.395,186.861
		c0,11.028-8.139,20.139-19.167,20.139h-35c-11.028,0-20.833-9.11-20.833-20.139v-35c0-5.487,2-10.428,6-14.011v-14.437
		c0-17.551,14.674-31.414,32.227-31.414h0.213c17.553,0,31.561,13.863,31.561,31.414v15.006c3,3.53,5,8.233,5,13.441V186.861z" />
			<path d="M135.15,161.219c0,4.997,2.245,9.399,6.245,11.984v11.566c0,3.949,3.553,7.146,7.502,7.146
		c3.947,0,7.498-3.197,7.498-7.146v-10.959c5-2.462,7.578-7.177,7.578-12.592c0-7.959-6.453-14.412-14.412-14.412
		C141.603,146.807,135.15,153.26,135.15,161.219z" />
		</g>
	</symbol>
	<symbol version="1.1" id="others_share" xmlns="http://www.w3.org/2000/svg"
		xmlns:xlink="http://www.w3.org/1999/xlink" x="0px" y="0px" viewBox="0 0 512 512"
		style="enable-background:new 0 0 512 512;" xml:space="preserve">
		<g>
			<g>
				<g>
					<path d="M202.416,303.701l-14.123-123.904c-3.371-29.547-26.752-51.819-54.379-51.819H79.43
					c-27.627,0-51.029,22.272-54.379,51.819L10.928,303.701c-1.195,10.368,2.005,20.651,8.768,28.224
					c5.803,6.528,13.547,10.304,21.909,10.773l11.776,159.403c0.405,5.568,5.056,9.877,10.645,9.877h85.333
					c5.589,0,10.219-4.309,10.645-9.877l11.776-159.403c8.363-0.469,16.085-4.267,21.909-10.773
					C200.411,324.373,203.611,314.069,202.416,303.701z" />
					<path d="M106.672,106.667c29.461,0,53.333-23.872,53.333-53.333C160.006,23.872,136.133,0,106.672,0
					c-29.44,0-53.333,23.872-53.333,53.333C53.339,82.795,77.232,106.667,106.672,106.667z" />
					<path d="M257.84,128c29.461,0,53.333-23.872,53.333-53.333c0-29.461-23.872-53.333-53.333-53.333
					c-29.461,0-53.333,23.872-53.333,53.333C204.507,104.128,228.4,128,257.84,128z" />
					<path d="M458.651,426.667c-14.571,0-27.413,7.36-35.115,18.517l-95.296-47.637c1.451-4.288,2.411-8.768,2.411-13.547
					s-0.96-9.259-2.411-13.547l95.296-47.637c7.701,11.157,20.544,18.517,35.115,18.517c23.531,0,42.667-19.136,42.667-42.667
					c0-23.531-19.136-42.667-42.667-42.667c-23.531,0-42.667,19.136-42.667,42.667c0,1.323,0.277,2.581,0.384,3.883l-99.883,49.941
					c-7.573-6.848-17.515-11.157-28.501-11.157c-23.531,0-42.667,19.136-42.667,42.667c0,23.531,19.136,42.667,42.667,42.667
					c11.008,0,20.949-4.288,28.501-11.157l99.883,49.941c-0.128,1.301-0.384,2.539-0.384,3.883c0,23.531,19.136,42.667,42.667,42.667
					s42.667-19.136,42.667-42.667C501.318,445.803,482.182,426.667,458.651,426.667z" />
					<path d="M300.251,446.741c-3.989,0.789-8.064,1.259-12.267,1.259c-35.285,0-64-28.715-64-64c0-35.285,28.715-64,64-64
					c8.832,0,17.536,1.877,25.877,5.589c2.923,1.301,6.251,1.237,9.109-0.192l24.576-12.288c4.053-2.027,6.379-6.4,5.803-10.901
					L339.44,194.603c-3.456-26.624-26.816-46.677-54.379-46.677h-54.464c-5.504,0-11.029,0.896-16.875,2.731
					c-5.504,1.749-8.64,7.552-7.04,13.12c1.259,4.416,2.261,8.917,2.816,13.632l14.123,123.904
					c1.856,16.405-3.264,32.747-14.059,44.843c-2.667,2.965-5.931,5.781-10.048,8.555c-3.179,2.176-4.949,5.867-4.629,9.707
					l9.643,115.051c0.448,5.525,5.077,9.771,10.624,9.771h85.333c5.547,0,10.176-4.245,10.624-9.771l1.771-21.355
					c0.277-3.328-1.024-6.613-3.52-8.832C306.907,447.061,303.515,446.101,300.251,446.741z" />
				</g>
			</g>
		</g>
	</symbol>
	<symbol id="collabration" t="1592830082542" class="icon" viewBox="0 0 1041 1024" version="1.1"
		xmlns="http://www.w3.org/2000/svg" p-id="1165">
		<path
			d="M0.341333 204.8c0 113.1008 92.0576 204.8 205.602134 204.8 113.5616 0 205.602133-91.6992 205.602133-204.8S319.505067 0 205.943467 0C92.398933 0 0.341333 91.6992 0.341333 204.8zM617.147733 204.8c0 73.1648 39.202133 140.782933 102.8096 177.3568a206.301867 206.301867 0 0 0 205.602134 0A204.6464 204.6464 0 0 0 1028.369067 204.8c0-113.1008-92.0576-204.8-205.6192-204.8-113.544533 0-205.602133 91.6992-205.602134 204.8zM822.749867 460.8c-104.9088-0.682667-193.536 77.431467-205.602134 181.248l-102.792533 102.4-102.8096-102.4c-6.519467-113.1008-103.867733-199.5264-217.429333-193.024C80.5888 455.5264-6.161067 552.4992 0.341333 665.6v358.4h411.204267V789.504L477.866667 855.552a51.541333 51.541333 0 0 0 72.465066 0l66.816-66.048V1024h411.221334V665.6c0-113.1008-92.0576-204.8-205.6192-204.8z"
			p-id="1166">
		</path>
	</symbol>
	<symbol id="collabration_2" t="1592830488815" class="icon" viewBox="0 0 1024 1024" version="1.1"
		xmlns="http://www.w3.org/2000/svg" p-id="2400">
		<path
			d="M54.08474034 527.83556502l52.137555 28.355512q2.744082 1.829388 7.317552 3.201429t14.177756-1.372041 15.09245-14.635103L272.69659534 260.74493002q0.914694-2.744082 2.744081-6.860204t0-13.72041-10.976327-15.09245l-56.711025-28.355512q-1.829388-1.829388-5.030817-2.744082t-11.433674 1.829388-12.805716 11.891021q0 3.658776-33.386329 75.919598T77.86678234 426.30453602l-32.928982 69.51674q-8.23224601 22.867349 9.14694 32.014289M909.32358634 556.19107702l53.966944-25.61143q0.914694 0 2.286734-0.914694t5.488164-4.116123 5.945511-7.317552 2.744082-10.51898-3.658776-14.635103l-133.545317-280.811044q0-0.914694-0.914694-1.829388l-3.658776-5.488164q-2.744082-4.57347-6.402858-6.402858t-9.146939-3.201428-10.976328 1.372041l-57.625719 29.270206q-0.914694 0-1.829388 0.914694t-4.116123 3.658776-4.116122 5.945511-1.829388 8.689592 2.744082 11.891021q6.402858 5.488164 135.374705 287.213902 0.914694 1.829388 3.658776 4.57347t10.51898 8.232245 15.09245-0.914694m-728.096387-0.914694l17.379185-38.417146 62.199189 81.407762q4.57347-0.914694 11.433675-1.829388t21.495307 2.744082 21.037961 15.549797q1.829388 1.829388 3.658776 5.488164t5.030817 15.549797-0.457347 25.611431q0 0.914694 8.232246 10.061633 28.35551301-7.317552 44.820003 13.72041 1.829388 0.914694 4.11612301 3.658776t6.40285799 12.805715 3.201429 21.037961q0.914694 0 2.74408099 0.914694t5.48816401 4.116123 4.57347 5.94551q27.44081901-6.402858 41.161228 10.061634 1.829388 1.829388 4.116123 5.030817t6.86020401 11.891021 3.658776 16.921838l25.61143099 19.208573q0.914694 0 2.286735 0.457347t5.94551001 1.829388 7.77489899 3.658776 6.402858 6.402857T511.43171634 818.70824202l21.952655 17.379185q1.829388 0 4.116123 0.914694t8.689593 1.372041 11.433674-0.914694T567.22804834 829.68456902t4.573469-16.464491l-85.066537-67.687352q0-0.914694-0.457347-2.744082t-0.457347-6.402858 1.372041-7.774898 6.86020401-5.488164 13.72040999-0.457347L634.91540033 815.96416002q0.914694 0 2.74408201 0.457347t5.945511 0.91469401 7.774898-1e-8 8.68959299-4.116123T668.75907634 804.07313902q11.891021-17.379185-5.488163-36.58775799l-135.374705-101.53102901q0-1.829388-0.457347-3.658776t-0.914694-6.402858 0.914694-8.232245 6.402857-6.402858 13.263063-1.829388L707.17622234 757.42374702q22.867349 9.14694001 32.928983-8.232245 12.805715-17.379185 0-35.67306501l-177.450627-134.46001099q0-1.829388-0.457347-3.658776t-0.914694-7.317551 1.829388-8.232246 7.317551-5.488164 15.092451 0.914694L767.54602334 690.65108802q3.658776 0.914694 8.232246 1.829388t15.549797-2.744081 16.464491-13.72041q1.829388-2.744082 3.65877601-7.774898t0.91469399-16.921839-10.061633-21.03796l-257.943695-235.076347q-1.829388-0.914694-5.488164-2.286734t-13.263062-2.744082-18.751226 0-20.123267 9.146939-19.208573 22.410002q0 1.829388-0.457347 4.57347t-2.744082 11.433674-5.48816399 16.921838-10.51898001 18.751227-16.464492 18.751226-23.782042 15.549797-32.014289 10.06163301q-1.829388 0-3.658776-0.45734701t-8.232245-1.372041-10.976328-3.658775l-10.976327-5.488164q-6.402858-2.744082-9.14694001-7.774899t-5.03081599-11.433674 2.286735-15.549797q1.829388-1.829388 4.573469-7.317552t7.31755199-24.696737 3.65877601-42.07592201q1.829388-36.587758 26.52612399-66.77265799l-93.29878299 0 20.123267-43.90531L440.08558834 287.27105502q6.402858-4.57347 16.921838-10.061634t37.502452-14.177756T540.70192334 256.17146102l1.829388 0q1.829388 0 5.945511 0.457347t8.232245 0.457346 9.604287 0.914694 10.51898 1.372041T587.35131534 260.74493002t10.51898 2.286735 8.689593 2.744082 6.402857 2.286735q8.232246 2.744082 21.95265499 6.860205T677.90601634 284.52697302t43.90531 2.744082L847.12439734 558.93515902l-19.208573 47.564086 1.829388 1.829388q0.914694 1.829388 4.116123 6.860204t5.945511 10.061634 5.030817 13.263062 2.286734 16.464491-2.286734 18.293879-7.774899 20.123267q-14.635103 31.09959399-58.54041299 32.928983-0.914694 1.829388 0.457347 9.146939t-3.201429 20.123267-14.635103 21.037961q-1.829388 2.744082-5.48816401 6.40285801t-18.29387899 8.23224499-32.014288 1.829388q-0.914694 0.914694-0.45734701 3.658776t-0.914694 8.232246T700.77336534 815.96416002t-6.860205 12.348369T681.56479234 840.66089702q-3.658776 3.658776-10.061634 7.317552t-27.440818 2.74408101-42.075922-16.46449101q-0.914694 3.658776-3.201429 9.14694T584.60723334 859.41212302 555.33702634 873.58987902l-10.976327 0q-5.488164 0-10.518981-0.914694t-11.433674-3.658776-10.976328-7.317551q-1.829388 1.829388-3.658775 5.488164t-9.14694 11.891021-15.549797 12.805715-19.66592 4.116123T440.08558834 886.39559502l-2.744082-2.744082q-1.829388-1.829388-5.488164-7.317552t-5.488163-11.433674-0.91469399-15.092451 6.40285699-18.29387899q-0.914694 1.829388-3.658775 5.48816399t-11.433675 11.433675-17.379185 11.433674-21.037961 0.914694T354.10435634 846.14906102l-1.829388-2.744082q-1.829388-0.914694-5.030816-6.40285799t-4.116123-11.43367401T344.04272334 809.56130201t8.232245-21.03795999l-1.829387 1.829387q-1.829388 1.829388-5.945511 5.48816401t-8.68959301 5.94551099T324.83415034 805.90252703t-13.263062 1.82938799-14.635104-3.658776T280.92884033 792.18211702q-0.914694 0-2.28673499-1.829388t-4.57347-7.774898-4.573469-12.348369 0-17.37918501 6.860204-21.95265499q-1.829388 1.829388-4.116122 4.57347t-10.518981 7.774899-16.46449101 6.860204-20.12326699-1.829387-23.782043-15.549798q-1.829388-1.829388-3.658776-5.488163t-5.488163-16.921838 2.744081-29.727554l38.417147-54.88163701z"
			fill="" p-id="2401">
		</path>
	</symbol>
	<symbol id="recent_scan" t="1592831137627" class="icon" viewBox="0 0 1024 1024" version="1.1"
		xmlns="http://www.w3.org/2000/svg" p-id="1769">
		<path
			d="M938.1888 534.016h-80.7936c0.4096-7.3728 0.6144-14.6432 0.6144-22.016 0-218.624-176.8448-400.7936-389.12-400.7936C257.024 111.2064 80.6912 293.1712 80.6912 512c0 218.7264 176.4352 400.7936 388.1984 400.7936 74.752 0 149.0944-22.016 208.1792-60.0064l42.7008 68.608c-75.0592 48.9472-161.9968 74.8544-250.7776 74.752C209.8176 996.1472 0 779.264 0 512S209.8176 27.8528 468.8896 27.8528C728.3712 27.8528 938.7008 244.736 938.7008 512c0 7.3728-0.2048 14.6432-0.512 22.016z m-261.12 318.7712z m-26.4192-158.1056L426.7008 556.032V291.9424h64v226.5088L689.5616 635.904l-38.912 58.7776z m245.3504-6.656L768 512h256L896 688.0256z"
			fill="" p-id="1770"></path>
	</symbol>
	<symbol id="shared_file" t="1592831436638" class="icon" viewBox="0 0 1024 1024" version="1.1"
		xmlns="http://www.w3.org/2000/svg" p-id="2851">
		<path
			d="M640 256c0-17.7-14.3-32-32-32H224c-17.7 0-32 14.3-32 32s14.3 32 32 32h384c17.7 0 32-14.3 32-32zM640 448c0-17.7-14.3-32-32-32H224c-17.7 0-32 14.3-32 32s14.3 32 32 32h384c17.7 0 32-14.3 32-32zM224 608c-17.7 0-32 14.3-32 32s14.3 32 32 32h192c17.7 0 32-14.3 32-32s-14.3-32-32-32H224zM832 704c70.7 0 128-57.3 128-128s-57.3-128-128-128-128 57.3-128 128c0 13.5 2.1 26.4 5.9 38.6l-74 46.4c-16.4-13.1-37.3-21-59.9-21-53 0-96 43-96 96s43 96 96 96c20.3 0 39.2-6.3 54.7-17.1l104.6 74.9c-0.2 2.1-0.3 4.1-0.3 6.2 0 35.3 28.7 64 64 64s64-28.7 64-64-28.7-64-64-64c-9.4 0-18.4 2.1-26.4 5.7L668.2 763c2.5-8.6 3.8-17.6 3.8-27 0-7.1-0.8-14-2.2-20.7l74.1-46.5c22.9 21.8 54 35.2 88.1 35.2z m0-192c35.3 0 64 28.7 64 64s-28.7 64-64 64-64-28.7-64-64 28.7-64 64-64zM576 768c-17.6 0-32-14.4-32-32s14.4-32 32-32 32 14.4 32 32-14.4 32-32 32z"
			p-id="2852"></path>
		<path
			d="M480 832H160c-17.7 0-32-14.3-32-32V160c0-17.7 14.3-32 32-32h575v224c0 17.7 14.3 32 32 32s32-14.3 32-32V128c0-35.3-28.7-64-64-64H128c-35.3 0-64 28.7-64 64v704c0 35.3 28.7 64 64 64h352c17.7 0 32-14.3 32-32s-14.3-32-32-32z"
			p-id="2853"></path>
	</symbol>
	<symbol id="out_shared" t="1592832789494" class="icon" viewBox="0 0 1024 1024" version="1.1"
		xmlns="http://www.w3.org/2000/svg" p-id="18296">
		<path
			d="M757.2 926.6c-7.4 15.5-23.2 26.1-41.4 26.1H266l-31.5 22c-20.8 14.5-49.4 9.5-63.9-11.3L46.9 786.8c-14.5-20.8-9.5-49.4 11.3-63.9 0.2-0.1 0.4-0.3 0.6-0.4l156.1-105.7c7.3-16.1 23.5-26.8 41.7-26.8H609c25.3 0 45.9 20.5 45.9 45.9v33.2c0 25.3-20.5 45.9-45.9 45.9H506.8c-25.3 0-45.9 20.5-45.9 45.9v2c0 25.3 20.5 45.9 45.9 45.9h185.8l184.7-220.1c16.3-19.4 45.2-21.9 64.6-5.7l25.4 21.4c19.4 16.3 21.9 45.2 5.7 64.6L757.2 926.6z"
			fill="" p-id="18297"></path>
		<path
			d="M732.5 914.7l3.7-5.8L952 651.4c6.5-7.8 5.5-19.4-2.3-26L924.2 604c-7.8-6.6-19.4-5.5-26 2.3L705.3 836.2H506.8c-40.5 0-73.3-32.8-73.3-73.3v-2c0-40.5 32.8-73.3 73.3-73.3H609c10.2 0 18.5-8.3 18.5-18.5v-33.2c0-10.2-8.3-18.5-18.5-18.5H256.6c-7.3 0-13.8 4.3-16.8 10.8l-3.2 7-162.4 110c-8.6 6-10.6 17.5-4.8 25.9l123.7 176.6c5.8 8.3 17.4 10.4 25.7 4.5l38.6-27h458.4c7.2 0.1 13.6-4.1 16.7-10.5zM98.7 662.4V106.8c0-53.6 41.8-97.6 94-97.6h666.1c52.3 0 94 44 94 97.6v446.4c0 1.3-0.1 2.5-0.2 3.7 2.4 1.6 4.7 3.3 6.9 5.2l25.4 21.4c31 26 35.1 72.2 9.1 103.2L780.2 941.9c-12.7 23.3-37.2 38.3-64.4 38.3H274.7l-24.4 17.1c-33.2 23.2-78.9 15.2-102.1-18L24.5 802.6c-23.2-33.2-15.2-78.9 18-102.1 0.2-0.2 18.9-12.9 56.2-38.1z m54.9-37.2c12.4-8.4 25.8-17.5 40.3-27.3 13.1-21.7 36.8-35.3 62.7-35.3H609c40.5 0 73.3 32.8 73.3 73.3v33.2c0 40.5-32.8 73.3-73.3 73.3H506.8c-10.2 0-18.5 8.3-18.5 18.5v2c0 10.2 8.3 18.5 18.5 18.5h173L856.2 571c11.1-13.3 26-21.6 41.8-24.8V106.8c0-23.9-17.9-42.8-39.2-42.8h-666c-21.3 0-39.2 18.8-39.2 42.8v518.4z m220.5-446.7h427.5c15.1 0 27.4 12.3 27.4 27.4 0 15.1-12.3 27.4-27.4 27.4H374.1c-15.1 0-27.4-12.3-27.4-27.4-0.1-15.1 12.2-27.4 27.4-27.4zM250 233.3c-15.1 0-27.4-12.3-27.4-27.4 0-15.1 12.3-27.4 27.4-27.4s27.4 12.3 27.4 27.4c0.1 15.2-12.2 27.4-27.4 27.4z m124.1 65.8h427.5c15.1 0 27.4 12.3 27.4 27.4 0 15.1-12.3 27.4-27.4 27.4H374.1c-15.1 0-27.4-12.3-27.4-27.4-0.1-15.1 12.2-27.4 27.4-27.4zM250 355.6c-15.1 0-27.4-12.6-27.4-28.2s12.3-28.2 27.4-28.2 27.4 12.6 27.4 28.2c0.1 15.6-12.2 28.2-27.4 28.2z m124.1 71.2h427.5c15.1 0 27.4 12.3 27.4 27.4 0 15.1-12.3 27.4-27.4 27.4H374.1c-15.1 0-27.4-12.3-27.4-27.4-0.1-15.1 12.2-27.4 27.4-27.4zM250 483.3c-15.1 0-27.4-12.6-27.4-28.2s12.3-28.2 27.4-28.2 27.4 12.6 27.4 28.2-12.2 28.2-27.4 28.2z"
			fill="" p-id="18298"></path>
	</symbol>
	<symbol id="in_shared" t="1592834636346" class="icon" viewBox="0 0 1024 1024" version="1.1"
		xmlns="http://www.w3.org/2000/svg" p-id="3416">
		<path d="M672.5 576h256c17.7 0 32 14.3 32 32s-14.3 32-32 32h-256c-17.7 0-32-14.3-32-32s14.3-32 32-32z"
			p-id="3417"></path>
		<path
			d="M750.2 498.3c8.2 0 16.4 3.1 22.6 9.4 12.5 12.5 12.5 32.8 0 45.3l-77.7 77.7c-12.5 12.5-32.8 12.5-45.3 0s-12.5-32.8 0-45.3l77.7-77.7c6.3-6.3 14.5-9.4 22.7-9.4z"
			p-id="3418"></path>
		<path
			d="M672.5 576c8.2 0 16.4 3.1 22.6 9.4l77.7 77.7c12.5 12.5 12.5 32.8 0 45.3s-32.8 12.5-45.3 0l-77.7-77.7c-12.5-12.5-12.5-32.8 0-45.3 6.3-6.3 14.5-9.4 22.7-9.4z"
			p-id="3419"></path>
		<path
			d="M823.2 247.6L649.9 73.4c-6-6-14.2-9.4-22.7-9.4H128.5c-35.3 0-64 28.7-64 64v768c0 35.3 28.7 64 64 64h640c35.3 0 64-28.7 64-64v-96c0-17.7-14.3-32-32-32s-32 14.3-32 32v64c0 17.7-14.3 32-32 32h-576c-17.7 0-32-14.3-32-32V160c0-17.7 14.3-32 32-32h384v160c0 35.3 28.7 64 64 64h160v64c0 17.7 14.3 32 32 32s32-14.3 32-32V270.2c0-8.5-3.3-16.6-9.3-22.6zM640.5 288c-17.7 0-32-14.3-32-32V128l160 160h-128z"
			p-id="3420"></path>
		<path
			d="M607.5 672h-384c-17.7 0-32 14.3-32 32s14.3 32 32 32h384c17.7 0 32-14.3 32-32s-14.3-32-32-32zM607.5 480h-384c-17.7 0-32 14.3-32 32s14.3 32 32 32h384c17.7 0 32-14.3 32-32s-14.3-32-32-32zM223.5 352h192c17.7 0 32-14.3 32-32s-14.3-32-32-32h-192c-17.7 0-32 14.3-32 32s14.3 32 32 32z"
			p-id="3421"></path>
	</symbol>
	<symbol id="cloned_file" t="1592839100568" class="icon" viewBox="0 0 1024 1024" version="1.1"
		xmlns="http://www.w3.org/2000/svg" p-id="17107">
		<path
			d="M745.6 103.8H472.3c-36.5 0-67.3 24.6-76.9 58h291.9v177.4h177v382.3c0 12.1-9.9 22-22 22H697.7v58h144.6c44.1 0 80-35.9 80-80v-441L745.6 103.8z m-0.2 177.4v-95.6l95.6 95.6h-95.6z"
			p-id="17108"></path>
		<path
			d="M607.8 707.1c-10.1 4.7-20.5 8.8-31.1 12.3v123.2c0 12.1-9.9 22-22 22h-370c-12.1 0-22-9.9-22-22V304.9c0-12.1 9.9-22 22-22h215v177.4h177v152.8c22.6-12.2 42.3-29 58-48.9V401.6L458 224.9H184.7c-44.1 0-80 35.9-80 80v537.7c0 44.1 35.9 80 80 80h370c44.1 0 80-35.9 80-80V692.8c-8.7 5.2-17.7 10-26.9 14.3zM457.7 306.6l95.6 95.6h-95.6v-95.6z"
			p-id="17109"></path>
		<path
			d="M752.4 448.8c0-16-13-29-29-29s-29 13-29 29c0 106.2-80.5 194-183.8 205.4v-58.7l-144.3 83.3 144.3 83.3v-49.6c62.1-5.3 119.7-32 164.2-76.5 50.1-50 77.6-116.5 77.6-187.2z"
			p-id="17110"></path>
	</symbol>
	<symbol id="share_to_other" t="1592840853712" class="icon" viewBox="0 0 1024 1024" version="1.1"
		xmlns="http://www.w3.org/2000/svg" p-id="19248">
		<path
			d="M381.7 674.4c0-169.5 137.5-307 307-307 2 0 3.9 0.3 5.8 0.3 4.7-20.7 6.9-42.1 5.4-63.9C691.8 183.4 590.7 89 470 89c-5.4 0-10.7 0.2-16.4 0.6C331.3 93.9 235 197 239.1 319.6c0 5.4 0.2 10.7 0.5 16 6.2 89.8 63.9 164.9 142.8 197.5h-64.6C177.9 533 64.5 646.4 64.5 786.3v25.3c0 56.1 45.4 101.3 101.3 101.3h329.8c-69.4-56.2-113.9-142.1-113.9-238.5z"
			p-id="19249"></path>
		<path
			d="M696 408c-145.5 0-263.5 118-263.5 263.5 0 145.6 118 263.5 263.5 263.5s263.5-118 263.5-263.5S841.5 408 696 408z m185 290L769.6 809.4c-7.1 7.1-16.5 11-26.5 11s-19.4-3.9-26.5-11c-14.6-14.6-14.6-38.3 0-52.9l47.5-47.5H537.5c-20.6 0-37.4-16.8-37.4-37.4 0-20.6 16.8-37.4 37.4-37.4h226.7l-47.5-47.5c-7-7.1-10.9-16.5-10.9-26.4 0-10 3.9-19.4 10.9-26.4 7.1-7.1 16.5-11 26.5-11 9.9 0 19.5 4 26.5 11L881 645.1c7.1 7.1 11 16.5 11 26.5s-3.9 19.4-11 26.4z"
			p-id="19250"></path>
	</symbol>
	<symbol id="other_share_to_me" t="1592840955992" class="icon" viewBox="0 0 1024 1024" version="1.1"
		xmlns="http://www.w3.org/2000/svg" p-id="20008">
		<path
			d="M381.7 674.4c0-169.5 137.5-307 307-307 2 0 3.9 0.3 5.8 0.3 4.7-20.7 7-42.1 5.4-63.9C691.8 183.4 590.7 89 470 89c-5.4 0-10.7 0.2-16.4 0.6C331.3 93.9 235 197 239.1 319.6c0 5.4 0.2 10.7 0.5 16 6.2 89.8 63.9 164.9 142.8 197.5h-64.6C177.9 533 64.5 646.4 64.5 786.3v25.3c0 56.1 45.4 101.3 101.3 101.3h329.8c-69.4-56.2-113.9-142.1-113.9-238.5z"
			p-id="20009"></path>
		<path
			d="M696 408c-145.5 0-263.5 118-263.5 263.5S550.5 935 696 935s263.5-118 263.5-263.5S841.5 408 696 408z m158.5 301H627.8l47.5 47.5c7 7.1 10.9 16.5 10.9 26.4 0 10-3.9 19.4-10.9 26.4-7.1 7.1-16.5 11-26.5 11-9.9 0-19.5-4-26.5-11L511 698c-7.1-7.1-11-16.5-11-26.5s3.9-19.5 11-26.4l111.3-111.4c7.1-7.1 16.5-11 26.5-11s19.4 3.9 26.5 11c14.6 14.6 14.6 38.3 0 52.9l-47.5 47.5h226.7c20.7 0 37.4 16.8 37.4 37.4S875.2 709 854.5 709z"
			p-id="20010"></path>
	</symbol>
	<symbol xmlns="http://www.w3.org/2000/svg" viewBox="0 0 24 24" id="ic_person">
		<path
			d="M12 12c2.21 0 4-1.79 4-4s-1.79-4-4-4-4 1.79-4 4 1.79 4 4 4zm0 2c-2.67 0-8 1.34-8 4v2h16v-2c0-2.66-5.33-4-8-4z" />
	</symbol>
	<symbol id="youtube_logo" t="1592843688514" class="icon" viewBox="0 0 1024 1024" version="1.1"
		xmlns="http://www.w3.org/2000/svg" p-id="7687">
		<path
			d="M547.23697918 1003.59029974h-71.38549227c-251.29079978 0-456.89236344-205.60156365-456.89236344-456.89236343v-71.38549228c0-251.29079978 205.60156365-456.89236344 456.89236344-456.89236345h71.38549227c251.29079978 0 456.89236344 205.60156365 456.89236344 456.89236345v71.38549228C1004.12821715 797.98873608 798.52665348 1003.59029974 547.23697918 1003.59029974z"
			fill="#DD1829" p-id="7688"></path>
		<path
			d="M782.28559294 380.93828696c-12.00411563-39.77776982-21.44355675-61.82113752-61.22132549-66.62300909 0 0-106.54144703-5.40168361-212.47408044-5.40168249-104.73413369 0-208.8729573 5.40168361-208.87295728 5.40168249-42.1803933 4.80187156-52.21852096 28.04486331-63.02188706 66.62300909 0 0-10.8033661 61.43176656-10.8033661 123.64340163 0 63.81188266 10.8033661 128.44527211 10.8033661 128.4452721 8.40299359 37.37739626 25.64449082 61.82113752 63.02188706 66.62300909 0 0 115.58589091 7.20224407 225.67894448 7.20224406 100.10556687 0 195.66921869-7.20224407 195.66921871-7.20224406 37.37739626-7.20224407 50.4179594-26.84523924 61.2213255-66.62300909 0 0 10.8033661-59.0831594 10.80336609-120.0422785C793.08896014 448.02719175 782.28559294 380.93828696 782.28559294 380.93828696zM452.76941964 613.22078896V400.74558417l163.85780587 106.2376024L452.76941964 613.22078896z"
			fill="#FFFFFF" p-id="7689"></path>
	</symbol>
	<symbol id="youku_logo" t="1592843785577" class="icon" viewBox="0 0 1024 1024" version="1.1"
		xmlns="http://www.w3.org/2000/svg" p-id="8183">
		<path
			d="M740.3 556.4c0.1-0.1 0.1-0.2 0.2-0.3 0.5-0.8 0.9-1.7 1.4-2.5 0.2-0.4 0.4-0.8 0.7-1.2 0.2-0.3 0.3-0.7 0.5-1 5.5-10.8 8.5-22.7 8.6-34.8v-1.2-1.2c-0.2-12.1-3.1-24-8.6-34.8-0.2-0.3-0.3-0.7-0.5-1-0.2-0.4-0.4-0.8-0.7-1.2-0.5-0.8-0.9-1.7-1.4-2.5-0.1-0.1-0.1-0.2-0.2-0.3-1.5-2.5-3.1-4.9-4.9-7.2v-0.1c-2.4-3.2-5.1-6.2-8-9l-0.2-0.2c-1.6-1.5-3.3-3-5-4.4-0.4-0.3-0.7-0.6-1.1-0.9l-3.6-2.7c-0.3-0.2-0.6-0.4-0.8-0.6l-247-165.5c-17.6-11.8-38.8-16.1-59.6-12-20.8 4.1-38.8 16.1-50.6 33.7-24.4 36.4-14.7 85.9 21.7 110.3l148.5 99.6L381.1 615c-36.4 24.4-46.1 73.9-21.7 110.3 11.8 17.6 29.8 29.6 50.6 33.7 20.8 4.1 42-0.2 59.6-12l246.9-165.6c0.3-0.2 0.6-0.4 0.8-0.6l1.5-1c0.7-0.5 1.5-1.1 2.2-1.6 0.4-0.3 0.7-0.6 1.1-0.9 1.8-1.4 3.4-2.9 5-4.4l0.2-0.2c2.9-2.8 5.6-5.8 8-9v-0.1c1.9-2.3 3.5-4.7 5-7.2z m0 0"
			fill="#FF4A4A" p-id="8184"></path>
		<path
			d="M975.6 317.5c-25.2-59.6-61.2-113-107.2-158.9-45.9-45.9-99.4-81.9-158.9-107.1-61.7-26.1-127.2-39.3-194.7-39.3-84.7 0-168.4 21.6-242.1 62.4C201.4 114 140.2 171 95.6 239.4c-52.9 81.2-80.9 175.5-80.9 272.8 0 67.5 13.2 133 39.3 194.7 25.2 59.6 61.2 113 107.1 158.9C207 911.7 260.5 947.7 320 973c61.7 26.1 127.2 39.3 194.7 39.3 81.6 0 162.5-20.1 234.2-58.1 69.3-36.8 129.8-90.2 175-154.4 59.5-84.5 90.9-184 90.9-287.6 0.2-67.5-13.1-133-39.2-194.7zM514.8 853.9c-188.4 0-341.7-153.3-341.7-341.7 0-66.5 19.1-130.9 55.2-186.3 63.4-97.3 170.6-155.4 286.5-155.4 188.4 0 341.7 153.3 341.7 341.7 0 70.8-21.5 138.8-62.1 196.4-63.9 91-168.5 145.3-279.6 145.3z m0 0"
			fill="#38CEFF" p-id="8185"></path>
		<path
			d="M904.9 689.4c-35.8-25.2-85.2-16.6-110.3 19.2-25.2 35.8-16.6 85.2 19.2 110.3 13.9 9.8 29.8 14.4 45.5 14.4 24.9 0 49.4-11.7 64.8-33.6 25.1-35.7 16.5-85.1-19.2-110.3zM118.7 349c36.6 23.9 85.7 13.5 109.6-23.1 23.9-36.6 13.5-85.7-23.1-109.6-36.6-23.9-85.7-13.5-109.6 23.1C71.7 276 82.1 325.1 118.7 349z m0 0"
			fill="#0B99FF" p-id="8186"></path>
		<path
			d="M751.7 514.2c-0.2-12.1-3.2-24-8.6-34.8-0.2-0.3-0.3-0.7-0.5-1-0.2-0.4-0.4-0.8-0.7-1.2-0.5-0.8-0.9-1.7-1.4-2.5-0.1-0.1-0.1-0.2-0.2-0.3-0.7-1.1-1.3-2.2-2.1-3.2-0.9-1.4-1.9-2.7-2.9-4v-0.1c-2.5-3.2-5.1-6.2-8-9l-0.2-0.2c-1.6-1.5-3.3-3-5-4.4-0.4-0.3-0.7-0.6-1.1-0.9-0.7-0.6-1.4-1.1-2.2-1.6-0.5-0.3-1-0.7-1.5-1-13.3-9.2-29-14.1-45.2-14-15.8 0-31.1 4.7-44.2 13.5l-98.4 66 98.4 66c13.1 8.8 28.4 13.5 44.2 13.5 16.4 0 32.1-5 45.2-14l1.5-1c0.7-0.5 1.5-1.1 2.2-1.6 0.4-0.3 0.7-0.6 1.1-0.9 1.7-1.4 3.4-2.9 5-4.4l0.2-0.2c2.9-2.8 5.5-5.7 8-9v-0.1c1-1.3 1.9-2.6 2.9-4 0.7-1.1 1.4-2.2 2.1-3.2 0.1-0.1 0.1-0.2 0.2-0.3 0.5-0.8 1-1.7 1.4-2.5 0.2-0.4 0.4-0.8 0.7-1.2 0.2-0.3 0.3-0.7 0.5-1 5.5-10.8 8.4-22.7 8.6-34.8v-1.2-1.4z m0 0"
			fill="#F5001A" p-id="8187"></path>
	</symbol>
	<symbol id="tudou_logo" t="1592843878884" class="icon" viewBox="0 0 1024 1024" version="1.1"
		xmlns="http://www.w3.org/2000/svg" p-id="9295">
		<path
			d="M517.12 38.4C256 38.4 46.08 248.32 46.08 506.88 46.08 768 256 977.92 517.12 977.92S985.6 768 985.6 506.88c0-258.56-209.92-468.48-468.48-468.48z m0 847.36C307.2 885.76 138.24 716.8 138.24 506.88 138.24 299.52 307.2 128 517.12 128S896 299.52 896 506.88c0 209.92-171.52 378.88-378.88 378.88z m289.28-419.84c-33.28-15.36-74.24-23.04-117.76-23.04s-84.48 7.68-117.76 23.04c2.56-64 53.76-115.2 117.76-115.2 64 0 115.2 51.2 117.76 115.2z m-345.6 0c-33.28-15.36-74.24-23.04-117.76-23.04-43.52 0-84.48 7.68-117.76 23.04 2.56-64 53.76-115.2 117.76-115.2 61.44 0 115.2 51.2 117.76 115.2z m-97.28 89.6c0-17.92-15.36-33.28-33.28-33.28-15.36 0-28.16 10.24-30.72 23.04-5.12-17.92-25.6-25.6-43.52-20.48-12.8 5.12-23.04 17.92-23.04 30.72 0 15.36 10.24 28.16 23.04 30.72-17.92 5.12-28.16 25.6-20.48 43.52 5.12 12.8 17.92 23.04 30.72 23.04 15.36 0 28.16-10.24 30.72-23.04 5.12 17.92 25.6 25.6 43.52 20.48 12.8-5.12 23.04-17.92 23.04-30.72 0-15.36-10.24-28.16-23.04-30.72 12.8-5.12 23.04-17.92 23.04-33.28z m-66.56 53.76c-2.56-10.24-10.24-17.92-20.48-20.48 10.24-2.56 17.92-10.24 20.48-20.48 2.56 10.24 10.24 17.92 20.48 20.48-7.68 2.56-15.36 10.24-20.48 20.48z"
			fill="#FF6600" p-id="9296"></path>
	</symbol>
	<symbol id="facebook_logo" t="1592843960025" class="icon" viewBox="0 0 1024 1024" version="1.1"
		xmlns="http://www.w3.org/2000/svg" p-id="18681">
		<path
			d="M967.503448 0H56.496552A56.496552 56.496552 0 0 0 0 56.496552v911.006896A56.496552 56.496552 0 0 0 56.496552 1024H547.310345V627.994483h-133.296552v-155.012414H547.310345v-114.052414c0-132.237241 80.86069-204.270345 198.797241-204.270345A1133.462069 1133.462069 0 0 1 865.103448 160.662069v138.24h-81.213793c-64.264828 0-76.8 30.366897-76.8 75.211034v98.692414h153.6l-19.950345 155.012414H706.206897V1024h261.296551a56.496552 56.496552 0 0 0 56.496552-56.496552V56.496552A56.496552 56.496552 0 0 0 967.503448 0z"
			fill="#4267B2" p-id="18682"></path>
		<path
			d="M706.206897 1024V627.994483h133.649655l19.950345-155.012414H706.206897V374.289655c0-44.844138 12.535172-75.211034 76.8-75.211034H865.103448V160.662069a1133.462069 1133.462069 0 0 0-119.172414-6.002759C627.817931 154.65931 547.310345 226.692414 547.310345 358.929655v114.052414h-133.296552v155.012414H547.310345V1024z"
			fill="#FFFFFF" p-id="18683"></path>
	</symbol>
	<symbol id="google_logo" t="1592844062695" class="icon" viewBox="0 0 1024 1024" version="1.1"
		xmlns="http://www.w3.org/2000/svg" p-id="19660">
		<path
			d="M1003.52 523.6224c0-36.3008-3.2768-71.168-9.3184-104.704H512v198.0416h275.5584a235.52 235.52 0 0 1-102.1952 154.5216v128.512h165.4784c96.8192-89.1904 152.6784-220.416 152.6784-376.32z"
			fill="#4285F4" p-id="19661"></path>
		<path
			d="M512 1024c138.24 0 254.1568-45.824 338.8416-124.0576l-165.4784-128.4608c-45.824 30.72-104.448 48.896-173.3632 48.896-133.376 0-246.272-90.112-286.464-211.0976H54.4768v132.608A511.7952 511.7952 0 0 0 512 1024z"
			fill="#34A853" p-id="19662"></path>
		<path
			d="M225.536 609.28c-10.24-30.72-16.0768-63.488-16.0768-97.28 0-33.792 5.8368-66.56 16.0768-97.28V282.112H54.4768A511.7952 511.7952 0 0 0 0 512c0 82.6368 19.7632 160.768 54.4768 229.888l171.008-132.608z"
			fill="#FBBC05" p-id="19663"></path>
		<path
			d="M512 203.6224c75.1616 0 142.6432 25.856 195.7376 76.5952l146.8416-146.8416C765.9008 50.688 649.984 0 512 0 311.808 0 138.7008 114.688 54.4768 282.112l171.008 132.608C265.8304 293.6832 378.6752 203.6224 512 203.6224z"
			fill="#EA4335" p-id="19664"></path>
	</symbol>
	<symbol id="wechat_logo" t="1592844151604" class="icon" viewBox="0 0 1024 1024" version="1.1"
		xmlns="http://www.w3.org/2000/svg" p-id="21037">
		<path
			d="M397.234 96.793c23.963 4.366 48.323 7.22 71.818 13.367 95.264 24.929 174.092 73.966 226.969 159.397 14.978 24.194 25.518 50.357 31.693 79.899-21.676 0-42.597-1.391-63.286 0.225-135.441 10.57-247.485 103.997-273.487 228.919-8.277 39.761-7.528 79.313 2.203 118.728 0.802 3.256 1.345 6.571 2.33 11.452-6.52 0.615-12.258 1.369-18.019 1.674-45.106 2.377-88.78-7.274-132.664-15.506-5.714-1.074-12.796-0.112-18.036 2.417-34.382 16.589-68.424 33.883-102.598 50.909-4.135 2.059-8.388 3.879-15.021 6.935 5.371-16.3 9.981-30.407 14.667-44.487 5.956-17.898 11.592-35.917 18.15-53.596 2.714-7.317 1.441-11.226-4.979-15.775-30.283-21.486-57.447-46.395-80.184-75.914-29.12-37.81-48.362-79.823-54.468-127.475-0.369-2.879-1.488-5.66-2.261-8.487v-51.58c0.772-2.865 1.897-5.684 2.268-8.602 6.035-47.473 23.805-90.301 52.368-128.415 51.572-68.813 121.236-110.224 203.661-131.073 22.722-5.747 46.14-8.75 69.238-13.013l69.638 0.001zM289.571 294.785c-0.186-27.274-18.084-44.612-45.705-44.271-29.823 0.369-53.24 19.962-53.296 44.597-0.057 25.159 23.941 45.028 54.272 44.939 27.391-0.079 44.916-17.814 44.729-45.265z m208.63 45.272c27.292-0.002 45.607-18.05 45.553-44.894-0.058-26.844-18.466-44.795-45.782-44.645-29.567 0.163-53.647 19.877-54.017 44.221-0.375 24.715 24.29 45.32 54.246 45.318z m422.575 587.147c-20.683-11.878-42.203-22.531-61.831-35.955-22.57-15.438-44.312-16.197-70.889-10.169-113.567 25.763-216.642 1.836-302.415-77.999-105.195-97.917-103.707-249.506 0.333-348.598C621.87 325.049 862.08 342.527 975.078 490.167c24.709 32.286 41.007 68.295 46.642 108.832 0.279 2.017 1.461 3.898 2.217 5.845v46.42c-8.436 24.563-14.57 50.246-25.816 73.451-20.363 42.004-52.839 74.788-89.546 102.974-9.719 7.461-10.733 13.557-7.151 24.427 8.155 24.75 14.721 50.029 21.931 75.092-0.859-0.004-1.72-0.004-2.579-0.004zM661.14 548.146c0.044-19.751-20.208-36.348-44.018-36.078-19.058 0.217-36.825 17.522-36.875 35.915-0.048 18.393 17.645 35.78 36.719 36.077 23.783 0.369 44.133-16.171 44.174-35.914z m155.9 35.917c23.517-0.097 44.309-17.438 43.83-36.559-0.473-18.791-20.801-35.299-43.66-35.45-19.269-0.125-38.098 18.15-37.665 36.565 0.424 18.171 18.778 35.521 37.495 35.444z"
			fill="#00A651" p-id="21038"></path>
	</symbol>
	<symbol id="github_logo" t="1592844934463" class="icon" viewBox="0 0 1024 1024" version="1.1"
		xmlns="http://www.w3.org/2000/svg" p-id="24894">
		<path
			d="M960 512a435.2 435.2 0 0 1-85.76 263.36 440 440 0 0 1-220.48 161.92 26.88 26.88 0 0 1-23.04-4.16 22.72 22.72 0 0 1-7.04-17.6v-122.88a104.64 104.64 0 0 0-30.4-82.88 416 416 0 0 0 59.52-10.24 218.24 218.24 0 0 0 54.72-23.04 164.8 164.8 0 0 0 47.04-38.4 184 184 0 0 0 32-61.44 293.76 293.76 0 0 0 12.16-88 168.64 168.64 0 0 0-46.4-120 154.88 154.88 0 0 0-4.48-119.04 76.48 76.48 0 0 0-47.04 6.4 300.48 300.48 0 0 0-53.76 25.6l-22.08 13.76a416 416 0 0 0-224 0c-6.4-4.48-14.4-9.28-24.64-15.68A326.08 326.08 0 0 0 326.4 256a82.88 82.88 0 0 0-50.24-8 156.8 156.8 0 0 0-4.16 120 173.76 173.76 0 0 0-46.08 120.64A288 288 0 0 0 238.08 576a196.48 196.48 0 0 0 32 61.44 152 152 0 0 0 47.04 39.04 267.84 267.84 0 0 0 54.72 23.04 414.08 414.08 0 0 0 59.84 10.24 92.48 92.48 0 0 0-28.8 60.16 99.2 99.2 0 0 1-26.56 8.32 167.36 167.36 0 0 1-32 2.88A69.12 69.12 0 0 1 303.36 768a109.44 109.44 0 0 1-32-36.48 96 96 0 0 0-28.16-30.4 80.64 80.64 0 0 0-28.8-14.08h-11.52a41.6 41.6 0 0 0-16.96 2.56q-4.8 2.88-2.88 6.72a44.16 44.16 0 0 0 5.44 8 55.36 55.36 0 0 0 7.68 7.36l4.16 2.56a78.08 78.08 0 0 1 25.6 22.08 157.76 157.76 0 0 1 18.24 29.44l5.76 13.44a72.32 72.32 0 0 0 25.6 36.16 96 96 0 0 0 38.72 16.64 196.16 196.16 0 0 0 40.32 4.16 182.08 182.08 0 0 0 32-2.24l13.44-2.24v83.84a23.04 23.04 0 0 1-7.68 17.6 27.84 27.84 0 0 1-23.36 4.16 438.08 438.08 0 0 1-219.2-162.88A427.84 427.84 0 0 1 64 512a437.44 437.44 0 0 1 60.16-224A443.52 443.52 0 0 1 288 124.16 437.44 437.44 0 0 1 512 64a437.44 437.44 0 0 1 224 60.16A443.52 443.52 0 0 1 899.84 288 436.8 436.8 0 0 1 960 512z"
			p-id="24895"></path>
	</symbol>
	<symbol id="gitee_logo" class="icon" viewBox="0 0 56 56" fill="#C71D23" xmlns="http://www.w3.org/2000/svg">
		<path
			d="M27.9094271,0 C43.323378,0 55.8188541,12.4954761 55.8188541,27.9094271 C55.8188541,43.323378 43.323378,55.8188541 27.9094271,55.8188541 C12.4954761,55.8188541 0,43.323378 0,27.9094271 C0,12.4954761 12.4954761,0 27.9094271,0 Z M42.0372834,12.40419 C42.0369985,12.4041899 42.0367135,12.4041898 42.0364286,12.4050443 L22.7409577,12.4050443 C17.0321184,12.4050443 12.4041898,17.0329729 12.4041898,22.7418122 L12.4041898,42.0364286 C12.4041898,42.7976072 13.021247,43.4146643 13.7824255,43.4146643 L34.1117768,43.4146643 C39.2496197,43.4146643 43.4146643,39.2496197 43.4146643,34.1117768 L43.4146643,26.187125 C43.4146643,25.4259464 42.7976072,24.8088893 42.0364286,24.8088893 L26.1867179,24.8088893 C25.4256803,24.8092503 24.8086815,25.4260875 24.8081213,26.187125 L24.807219,29.6325761 C24.8066809,30.3489793 25.3531034,30.9378612 26.0519898,31.0048287 L26.1847213,31.0111726 C26.1848455,31.0111726 26.1849696,31.0111726 26.1850937,31.0108003 L35.8343679,31.0107199 C36.5507712,31.0107031 37.1395145,31.5572949 37.2063048,32.2561994 L37.2126036,32.3889441 L37.2126036,32.3889441 L37.2126036,33.0780271 C37.2126036,35.3615628 35.3614322,37.2127342 33.0778965,37.2127342 L19.9836314,37.2127342 C19.2225621,37.2126963 18.6055876,36.5957388 18.6055287,35.8346695 L18.6051677,22.7416739 C18.6049962,20.5273363 20.3456221,18.7195081 22.5332835,18.6119187 L22.7397609,18.6069668 L22.7397609,18.6069668 L42.0325819,18.6069668 C42.7934267,18.6061117 43.4103455,17.9895754 43.4116725,17.2287314 L43.4138095,13.7832798 C43.4151362,13.0221019 42.7984619,12.4046621 42.0372834,12.40419 Z"
			id="Combined-Shape" />
	</symbol>
	<symbol id="class_video" xmlns="http://www.w3.org/2000/svg" class="icon" viewBox="0 0 1024 1024" version="1.1"
		p-id="6050">
		<path
			d="M960.11 825.676H795.877l29.798 179.245H713.65L683.85 825.676h-343.7l-29.798 179.245H198.324l29.798-179.245H63.891a44.811 44.811 0 0 1-44.812-44.81V63.891a44.811 44.811 0 0 1 44.812-44.812h896.218a44.811 44.811 0 0 1 44.812 44.812v716.975a44.811 44.811 0 0 1-44.812 44.81zM399.971 243.134v358.489L668.838 422.38z"
			p-id="6051" />
	</symbol>
	<symbol id="lesson" xmlns="http://www.w3.org/2000/svg" t="1596103909173" class="icon" viewBox="0 0 1024 1024"
		version="1.1" p-id="5909">
		<path
			d="M950.877091 836.049455h-329.169455v-18.804364h-3.258181c-1.908364-10.053818-5.352727 17.733818-9.867637 8.192l196.002909-402.944-73.169454-37.608727-231.656728 343.970909a434.920727 434.920727 0 0 0-110.219636-34.769455 188.648727 188.648727 0 0 0 85.876364-158.813091c0-103.796364-81.873455-187.950545-182.830546-187.950545-12.520727 0-24.762182 1.303273-36.584727 3.770182V121.716364C256 80.197818 288.721455 46.545455 329.122909 46.545455h621.754182C991.232 46.545455 1024 80.197818 1024 121.716364v639.115636c0 41.518545-32.768 75.217455-73.122909 75.217455z m-512-300.776728c0 83.037091-65.536 150.388364-146.292364 150.388364-80.802909 0-146.292364-67.351273-146.292363-150.388364 0-83.037091 65.489455-150.388364 146.292363-150.388363 80.756364 0 146.292364 67.351273 146.292364 150.388363z m63.301818 240.686546l229.236364-353.466182h36.584727l-201.448727 414.208c7.121455 11.822545 12.8 24.064 15.313454 36.910545h3.258182V1024H0v-150.388364h3.258182c16.384-84.48 138.845091-150.388364 289.326545-150.388363 83.037091 0 156.718545 20.573091 209.594182 52.736z"
			p-id="5910" />
	</symbol>
	<symbol class="icon" xmlns="http://www.w3.org/2000/svg" xmlns:xlink="http://www.w3.org/1999/xlink" version="1.1"
		id="dhammacakkha" viewBox="0 0 60 60">
		<path
			d="M30,0C13.458,0,0,13.458,0,30s13.458,30,30,30s30-13.458,30-30S46.542,0,30,0z M50.236,42.907  c-0.208,0.325-0.424,0.644-0.648,0.959c-0.032,0.045-0.063,0.091-0.096,0.136c-0.214,0.298-0.437,0.589-0.664,0.877  c-0.045,0.057-0.088,0.115-0.134,0.171c-0.221,0.274-0.45,0.541-0.683,0.805c-0.054,0.062-0.106,0.125-0.161,0.187  c-0.285,0.317-0.578,0.628-0.88,0.929c-0.303,0.302-0.614,0.596-0.932,0.882c-0.056,0.05-0.114,0.097-0.17,0.147  c-0.27,0.238-0.544,0.473-0.824,0.699c-0.051,0.041-0.103,0.08-0.154,0.12c-0.293,0.232-0.591,0.459-0.895,0.678  c-0.04,0.029-0.081,0.057-0.122,0.086c-0.318,0.226-0.641,0.445-0.97,0.655c-0.016,0.01-0.032,0.02-0.048,0.03l-8.026-13.899  c0.02-0.015,0.037-0.035,0.058-0.05c0.535-0.415,1.015-0.895,1.43-1.43c0.016-0.02,0.035-0.037,0.05-0.058l13.899,8.026  C50.257,42.873,50.247,42.89,50.236,42.907z M9.769,17.086c0.204-0.318,0.416-0.63,0.634-0.938c0.037-0.052,0.073-0.105,0.111-0.157  c0.208-0.289,0.424-0.571,0.645-0.851c0.051-0.065,0.101-0.131,0.153-0.196c0.213-0.264,0.434-0.522,0.659-0.777  c0.062-0.07,0.121-0.143,0.183-0.213c0.284-0.316,0.576-0.625,0.876-0.925c0.302-0.302,0.612-0.594,0.929-0.88  c0.062-0.056,0.126-0.108,0.188-0.163c0.263-0.232,0.53-0.461,0.803-0.681c0.057-0.046,0.116-0.09,0.174-0.136  c0.287-0.227,0.579-0.45,0.876-0.664c0.043-0.031,0.087-0.061,0.131-0.092c0.319-0.226,0.642-0.445,0.972-0.656  c0.014-0.009,0.027-0.017,0.041-0.026l8.025,13.899c-0.02,0.015-0.037,0.035-0.058,0.05c-0.535,0.415-1.015,0.895-1.43,1.43  c-0.016,0.02-0.035,0.037-0.05,0.058L9.733,17.144C9.745,17.125,9.757,17.106,9.769,17.086z M36.318,25.111  c-0.415-0.535-0.895-1.015-1.43-1.43c-0.02-0.016-0.037-0.035-0.058-0.05l8.017-13.885c2.977,1.895,5.511,4.429,7.406,7.406  l-13.885,8.017C36.353,25.149,36.334,25.132,36.318,25.111z M25.169,36.369l-8.018,13.886c-2.977-1.895-5.511-4.429-7.406-7.406  l13.886-8.018c0.015,0.02,0.035,0.037,0.05,0.058c0.415,0.535,0.895,1.015,1.43,1.43C25.132,36.334,25.149,36.353,25.169,36.369z   M35,30c0,2.758-2.242,5-5,5s-5-2.242-5-5s2.242-5,5-5S35,27.242,35,30z M33.102,22.627c-0.66-0.279-1.367-0.465-2.102-0.557V6.025  c3.578,0.146,7.018,1.076,10.123,2.709L33.102,22.627z M29,22.069c-0.736,0.092-1.443,0.278-2.102,0.557l-8.025-13.9  C21.977,7.098,25.418,6.171,29,6.025V22.069z M22.627,26.898c-0.279,0.66-0.465,1.367-0.557,2.102H6.024  c0.146-3.582,1.074-7.023,2.703-10.127L22.627,26.898z M22.069,31c0.092,0.735,0.278,1.442,0.557,2.102L8.733,41.124  C7.101,38.018,6.171,34.578,6.024,31H22.069z M26.898,37.374c0.66,0.279,1.367,0.465,2.102,0.557v16.045  c-3.578-0.146-7.018-1.076-10.124-2.709L26.898,37.374z M31,37.931c0.736-0.092,1.443-0.278,2.102-0.557l8.025,13.9  C38.023,52.902,34.582,53.83,31,53.976V37.931z M37.373,33.102c0.279-0.66,0.465-1.367,0.557-2.102h16.045  c-0.146,3.582-1.073,7.023-2.702,10.128L37.373,33.102z M37.931,29c-0.092-0.736-0.278-1.442-0.557-2.102l13.893-8.021  c1.632,3.105,2.562,6.545,2.709,10.123H37.931z" />
	</symbol>
	<symbol id="send_by_paper_plane" t="1603193668936" class="icon" viewBox="0 0 1024 1024" version="1.1"
		xmlns="http://www.w3.org/2000/svg" p-id="2936">
		<path
			d="M915.515 142.82L98.213 458.2c-46.058 17.772-44.905 43.6 2.349 57.622l197.477 58.595 80.292 238.91c10.512 31.279 37.973 37.875 61.463 14.605L543.378 725.32l204.475 149.84c26.566 19.468 53.879 9.222 61.05-23.09l149.21-672.345c7.151-32.22-11.894-48.753-42.598-36.906zM791.141 294.833l-348.62 310.61c-6.268 5.586-11.941 16.653-12.812 24.847l-15.39 144.698c-1.729 16.248-7.331 16.919-12.498 1.345l-67.457-203.339c-2.64-7.954 0.976-17.705 8.022-21.93L784.5 285.882c28.174-16.898 31.173-12.907 6.64 8.951z"
			p-id="2937"></path>
	</symbol>
	<symbol xmlns="http://www.w3.org/2000/svg" xmlns:xlink="http://www.w3.org/1999/xlink" version="1.1" id="loading"
		x="0px" y="0px" viewBox="0 0 26.349 26.35" style="enable-background:new 0 0 26.349 26.35;" xml:space="preserve">
		<g>
			<g>
				<circle cx="13.792" cy="3.082" r="3.082" />
				<circle cx="13.792" cy="24.501" r="1.849" />
				<circle cx="6.219" cy="6.218" r="2.774" />
				<circle cx="21.365" cy="21.363" r="1.541" />
				<circle cx="3.082" cy="13.792" r="2.465" />
				<circle cx="24.501" cy="13.791" r="1.232" />
				<path
					d="M4.694,19.84c-0.843,0.843-0.843,2.207,0,3.05c0.842,0.843,2.208,0.843,3.05,0c0.843-0.843,0.843-2.207,0-3.05    C6.902,18.996,5.537,18.988,4.694,19.84z" />
				<circle cx="21.364" cy="6.218" r="0.924" />
			</g>
		</g>
	</symbol>
</svg>