<svg xmlns="http://www.w3.org/2000/svg" >
	<symbol id="icon_toc" viewBox="0 0 32 32">
		<defs>
			<style>.a{fill:#cdcdcd;}</style>
		</defs>
		<g transform="translate(-4 -4)">
			<path class="a" d="M6.881,16.04a1.764,1.764,0,1,0,0,3.52,1.764,1.764,0,1,0,0-3.52Zm0-7.04A1.821,1.821,0,0,0,5,10.76a1.821,1.821,0,0,0,1.881,1.76,1.821,1.821,0,0,0,1.881-1.76A1.821,1.821,0,0,0,6.881,9Zm0,14.08a1.764,1.764,0,1,0,0,3.52,1.764,1.764,0,1,0,0-3.52Zm3.762,2.933H28.2V23.667H10.643Zm0-7.04H28.2V16.627H10.643Zm0-9.387v2.347H28.2V9.587Z" transform="translate(3 2.2)"/>
		</g>
	</symbol>
</svg>