<svg version="1" xmlns="http://www.w3.org/2000/svg" width="346.667" height="346.667" viewBox="0 0 260.000000 260.000000"><path d="M68.5 27.4c-1.4 2-1.5 10.6-1.3 72 .3 67.7.4 69.8 2.2 71.2 2.7 1.9 7 1.8 8.9-.4 1.6-1.7 1.7-8.1 1.7-71.9 0-66.5-.1-70.1-1.8-71.6-2.8-2.5-7.8-2.2-9.7.7zM94.5 27.4c-1.4 2-1.5 10.6-1.3 72 .3 67.7.4 69.8 2.2 71.2 3 2.1 7.2 1.7 9-.8 1.4-2 1.6-10.5 1.6-71.9 0-66.1-.1-69.7-1.8-71.2-2.8-2.5-7.8-2.2-9.7.7zM120.6 27.2c-1.4 2-1.6 10.4-1.6 71.5 0 68 0 69.3 2 71.3 2.7 2.7 7.5 2.6 9.4-.2 1.4-2 1.6-10.5 1.6-71.9 0-66.1-.1-69.7-1.8-71.2-2.7-2.5-7.8-2.2-9.6.5zM180.6 91.1c-12.3 2-24.2 11.4-29.6 23.2-4.2 9.3-5.2 15.5-5.7 35.3-.5 17.5-.5 18.2 1.6 20.3 1.2 1.2 3.4 2.1 5.1 2.1 5.2 0 5.8-2.3 6.3-23.5.5-22 2-28.1 8.8-35.9 5-5.7 10.9-8.5 19.3-9.3 5.5-.5 7-1 8.6-3.1 2.6-3.2 2.5-4.8-.5-7.7-2.6-2.7-5-2.9-13.9-1.4z"/><path d="M184.9 119.7c-1.1 1.3-1.5 10-2 43.2-.5 39.9-.6 41.8-2.8 47.7-3 8.2-8 14-13.4 15.5-2.3.6-5.2 1.5-6.4 2-3 1.1-4 5.3-1.9 8.4 1.4 2.1 2.4 2.5 6.6 2.5 10.1 0 19.4-7.3 25.2-19.5 5.1-10.9 5.7-17.9 5.8-60.1 0-35.7-.1-38.2-1.8-39.7-2.4-2.2-7.6-2.2-9.3 0z"/></svg>