<svg id="wikipali_without_studio" xmlns="http://www.w3.org/2000/svg"  viewBox="0 0 81 134">
  <g id="Group_12" data-name="Group 12" transform="translate(-396 -319)">
    <g id="Group_2" data-name="Group 2" transform="translate(396 319)">
      <path id="Path_9" data-name="Path 9" d="M127.853,155.309a3.752,3.752,0,0,1-3.753-3.753V138c0-21.139,10.126-33.265,27.786-33.265a3.753,3.753,0,0,1,0,7.506c-13.457,0-20.284,8.666-20.284,25.763V151.56A3.745,3.745,0,0,1,127.853,155.309Z" transform="translate(-75.636 -63.837)" fill="#f1ca23"/>
      <path id="Path_10" data-name="Path 10" d="M146.943,223.7a3.753,3.753,0,1,1,0-7.506c7.318,0,12.434-9.8,12.434-23.83v-40.3a3.753,3.753,0,0,1,7.506,0v40.3C166.879,214.011,156.866,223.7,146.943,223.7Z" transform="translate(-87.271 -90.392)" fill="#f1ca23"/>
      <path id="Path_11" data-name="Path 11" d="M86.483,91.472a3.752,3.752,0,0,1-3.753-3.753V3.753a3.753,3.753,0,0,1,7.506,0v83.97A3.751,3.751,0,0,1,86.483,91.472Z" transform="translate(-50.422)" fill="#f1ca23"/>
      <path id="Path_12" data-name="Path 12" d="M45.113,91.472a3.752,3.752,0,0,1-3.753-3.753V3.753a3.753,3.753,0,0,1,7.506,0v83.97A3.751,3.751,0,0,1,45.113,91.472Z" transform="translate(-25.208)" fill="#f1ca23"/>
      <path id="Path_13" data-name="Path 13" d="M3.753,91.472A3.752,3.752,0,0,1,0,87.719V3.753a3.753,3.753,0,0,1,7.506,0v83.97A3.756,3.756,0,0,1,3.753,91.472Z" fill="#f1ca23"/>
    </g>
  </g>
</svg>
