<?xml version="1.0" standalone="no"?><!DOCTYPE svg PUBLIC "-//W3C//DTD SVG 1.1//EN" "http://www.w3.org/Graphics/SVG/1.1/DTD/svg11.dtd"><svg t="1595989281540" class="icon" viewBox="0 0 1024 1024" version="1.1" xmlns="http://www.w3.org/2000/svg" p-id="2885" xmlns:xlink="http://www.w3.org/1999/xlink" width="200" height="200"><defs><style type="text/css"></style></defs><path d="M352.548571 54.710857H87.990857A88.137143 88.137143 0 0 0 0 142.701714V407.405714a88.137143 88.137143 0 0 0 87.990857 87.990857H352.548571a88.137143 88.137143 0 0 0 87.990858-87.990857V142.628571A88.137143 88.137143 0 0 0 352.548571 54.710857m645.705143 158.061714L811.154286 25.746286a88.137143 88.137143 0 0 0-124.416 0l-25.892572 25.892571L499.565714 212.772571c-16.457143 16.457143-25.746286 38.765714-25.673143 62.025143-0.146286 23.405714 9.069714 45.860571 25.6 62.390857l25.965715 25.892572 135.314285 135.387428 25.892572 25.892572c34.377143 34.377143 90.038857 34.377143 124.342857 0l161.28-161.28 25.892571-25.819429c34.377143-34.377143 34.377143-90.112 0-124.416M352.548571 583.387429H87.990857A88.137143 88.137143 0 0 0 0 671.451429v264.630857A88.137143 88.137143 0 0 0 87.990857 1024H352.548571a88.137143 88.137143 0 0 0 87.990858-87.990857V671.378286A88.137143 88.137143 0 0 0 352.548571 583.387429m528.676572 0H616.667429A88.137143 88.137143 0 0 0 528.676571 671.451429v264.630857A88.137143 88.137143 0 0 0 616.594286 1024h264.557714a88.137143 88.137143 0 0 0 87.990857-87.990857V671.378286a88.137143 88.137143 0 0 0-87.990857-87.990857" p-id="2886"></path></svg>