<?xml version="1.0" standalone="no"?><!DOCTYPE svg PUBLIC "-//W3C//DTD SVG 1.1//EN" "http://www.w3.org/Graphics/SVG/1.1/DTD/svg11.dtd"><svg t="1595989316753" class="icon" viewBox="0 0 1026 1024" version="1.1" xmlns="http://www.w3.org/2000/svg" p-id="3026" xmlns:xlink="http://www.w3.org/1999/xlink" width="200.390625" height="200"><defs><style type="text/css"></style></defs><path d="M956.509091 246.690909h-158.254546V88.436364c0-25.6-20.945455-46.545455-46.545454-46.545455H269.963636c-25.6 0-46.545455 20.945455-46.545454 46.545455v155.927272H67.490909c-37.236364 0-67.490909 30.254545-67.490909 67.490909v141.963637h1024v-141.963637c0-34.909091-30.254545-65.163636-67.490909-65.163636zM316.509091 158.254545c0-11.636364 11.636364-23.272727 23.272727-23.272727h342.109091c13.963636 0 23.272727 11.636364 23.272727 23.272727v86.109091H316.509091V158.254545zM0 914.618182c0 37.236364 30.254545 67.490909 67.490909 67.490909h891.345455c37.236364 0 67.490909-30.254545 67.490909-67.490909V546.909091H0v367.709091z" p-id="3027"></path></svg>