<?xml version="1.0" standalone="no"?><!DOCTYPE svg PUBLIC "-//W3C//DTD SVG 1.1//EN" "http://www.w3.org/Graphics/SVG/1.1/DTD/svg11.dtd"><svg t="1595989391343" class="icon" viewBox="0 0 1024 1024" version="1.1" xmlns="http://www.w3.org/2000/svg" p-id="7894" xmlns:xlink="http://www.w3.org/1999/xlink" width="200" height="200"><defs><style type="text/css"></style></defs><path d="M967.415609 866.113136c-43.437963-43.815962-86.874925-86.875925-130.312888-130.312888-4.154996-4.154996-4.532996-6.421994-0.756-11.331991 54.391953-71.389939 85.742926-152.220869 92.163921-242.118792 4.532996-63.833945-3.776997-125.779892-25.684978-185.83784C836.346721 116.34078 665.995868-0.37612 479.024028 0.00188c-27.950976 0-55.524952 2.265998-82.719929 7.553994-81.58793 15.486987-153.732868 49.859957-215.678814 105.005909C86.573366 196.793711 35.581409 302.55562 29.160415 428.713512c-4.909996 92.54192 16.619986 179.039846 66.099943 257.227779 79.321932 125.024893 193.014834 196.791831 340.703707 212.655817 86.497926 9.064992 168.839855-7.176994 246.650788-46.83696 5.287995-2.643998 8.309993-2.266998 12.46499 1.887998 47.592959 47.969959 95.184918 95.940918 143.533876 143.533877 23.03998 22.662981 51.369956 30.972973 83.097929 24.551979 35.505969-7.176994 59.679949-29.084975 69.87794-63.834945 9.820992-34.37297 1.510999-65.722944-24.173979-91.785921zM478.270029 745.620239c-159.397863 0-298.020744-130.689888-294.999746-301.419741 3.021997-164.308859 137.867882-290.46675 295.754745-289.711751 163.552859 0.378 295.754746 132.579886 295.376746 295.754746-0.378 163.17486-133.334885 295.376746-296.131745 295.376746z" fill="#333333" p-id="7895"></path></svg>