<svg xmlns="http://www.w3.org/2000/svg" width="30" height="30" viewBox="0 0 30 30"><defs><style>.a{fill:none;}.b{fill:#cdcdcd;}</style></defs><path class="a" d="M0,0H30V30H0Z"/><path class="b" d="M20.75,17.5A3.75,3.75,0,1,0,17,13.75,3.742,3.742,0,0,0,20.75,17.5Zm-10,0A3.75,3.75,0,1,0,7,13.75,3.742,3.742,0,0,0,10.75,17.5Zm0,2.5C7.831,20,2,21.462,2,24.375V27.5H19.5V24.375C19.5,21.462,13.669,20,10.75,20Zm10,0c-.362,0-.769.025-1.206.069A5.241,5.241,0,0,1,22,24.375V27.5h7.5V24.375C29.5,21.462,23.669,20,20.75,20Z" transform="translate(-0.75 -3.75)"/></svg>