<svg id="ic_logo_small" xmlns="http://www.w3.org/2000/svg" width="21.005" height="35" viewBox="0 0 21.005 35">
<defs>
<style>.a{fill:#f1ca23;}</style>
</defs>
<g transform="translate(-403 -447)">
<path class="a" d="M125.085,118.017a.985.985,0,0,1-.985-.985v-3.558c0-5.55,2.659-8.734,7.3-8.734a.985.985,0,1,1,0,1.971c-3.533,0-5.325,2.275-5.325,6.764v3.558A.983.983,0,0,1,125.085,118.017Z" transform="translate(291.624 352.999)"/>
<path class="a" d="M144.175,168.1a.985.985,0,1,1,0-1.971c1.921,0,3.265-2.573,3.265-6.256V149.3a.985.985,0,1,1,1.971,0v10.581C149.41,165.56,146.781,168.1,144.175,168.1Z" transform="translate(274.491 313.896)"/>
<path class="a" d="M83.715,24.016a.985.985,0,0,1-.985-.985V.985a.985.985,0,0,1,1.971,0V23.032A.985.985,0,0,1,83.715,24.016Z" transform="translate(328.752 447)"/>
<path class="a" d="M42.345,24.016a.985.985,0,0,1-.985-.985V.985a.985.985,0,0,1,1.971,0V23.032A.985.985,0,0,1,42.345,24.016Z" transform="translate(365.881 447)"/>
<path class="a" d="M.985,24.016A.985.985,0,0,1,0,23.031V.985a.985.985,0,0,1,1.971,0V23.032A.986.986,0,0,1,.985,24.016Z" transform="translate(403 447)"/>
</g>
</svg>