<svg xmlns="http://www.w3.org/2000/svg" width="32" height="32" viewBox="0 0 32 32"><defs><style>.a{fill:#cdcdcd;}.b{fill:none;}</style></defs><g transform="translate(-4 -4)"><g transform="translate(-779.715 -472.883)"><path class="a" d="M797.094,496.329v4.837h.623l3.176-8.258a9.811,9.811,0,0,1-1.1.371v-3.294a6.119,6.119,0,0,0,.972.061,3.47,3.47,0,0,0,2.37-.729,2.564,2.564,0,0,0,.826-2.029,4.344,4.344,0,0,0-.237-1.489,7.171,7.171,0,0,0-.942-1.622,4.792,4.792,0,0,1-.541-.845,1.441,1.441,0,0,1-.115-.565.979.979,0,0,1,.085-.364l-2.224-1.519a7.383,7.383,0,0,0-1.3,1.519,4.234,4.234,0,0,0-1.428-1.13,5.488,5.488,0,0,0-4.794.389,2.608,2.608,0,0,0-.984,2.188,5.142,5.142,0,0,0,.06.8l2.747-.219v-.122q0-.984,1.276-.984a1.427,1.427,0,0,1,1.531,1.483h-1.227a20.853,20.853,0,0,0-4.351.353,7.972,7.972,0,0,0-2.65,1.063,4.578,4.578,0,0,0-1.616,1.768,5.4,5.4,0,0,0-.535,2.467,5.153,5.153,0,0,0,2.066,4.418,9.892,9.892,0,0,0,5.943,1.525Q795.963,496.4,797.094,496.329Zm2.7-10.111a3.243,3.243,0,0,1,.413-1.726,3.7,3.7,0,0,0,.6,1.07,3.4,3.4,0,0,1,.438.674,1.33,1.33,0,0,1,.121.541q0,.814-.972.814a2.385,2.385,0,0,1-.6-.061Zm-9.685,4.193a2.683,2.683,0,0,1,.559-1.732,3.5,3.5,0,0,1,1.768-1.069,14.339,14.339,0,0,1,3.846-.371h.814v6.393q-.839.06-1.774.06a7.411,7.411,0,0,1-3.9-.826A2.713,2.713,0,0,1,790.106,490.411Z" transform="translate(0)"/><g transform="translate(797.747 491.041)"><path class="a" d="M816.8,512.039l-1.053-3.441h-5.263l-1.053,3.441h-3.3l5.1-14.514h3.745l5.122,14.514Zm-1.782-6.012-1.052-3.361q-.1-.343-.263-.87t-.324-1.073q-.162-.547-.263-.951-.1.4-.273,1t-.324,1.134c-.1.358-.179.61-.233.759l-1.033,3.361Z" transform="translate(-806.137 -497.525)"/></g></g><rect class="b" width="32" height="32" transform="translate(4 4)"/></g></svg>