<svg xmlns="http://www.w3.org/2000/svg" width="32" height="32" viewBox="0 0 32 32"><defs><style>.a{fill:#cdcdcd;}.b{fill:none;}</style></defs><g transform="translate(-4 -4)"><path class="a" d="M26.131,18.462l-5.585,5.585-3.909-3.909,1.675-1.675L20.547,20.7l3.909-3.909,1.675,1.675M13.286,9.526a3.351,3.351,0,1,1-3.351,3.351,3.351,3.351,0,0,1,3.351-3.351m0,8.936a5.291,5.291,0,0,0,1.586-.235A6.828,6.828,0,0,0,14.4,20.7v.5l-1.117.056A13.21,13.21,0,0,1,1,12.877a13.2,13.2,0,0,1,24.573,0,13.187,13.187,0,0,1-1.028,2.066,6.684,6.684,0,0,0-3.44-.949,6.828,6.828,0,0,0-2.468.469,5.291,5.291,0,0,0,.235-1.586,5.585,5.585,0,1,0-5.585,5.585Z" transform="translate(6 5.5)"/><rect class="b" width="32" height="32" transform="translate(4 4)"/></g></svg>