<?xml version="1.0" standalone="no"?>
<!DOCTYPE svg PUBLIC "-//W3C//DTD SVG 1.1//EN" "http://www.w3.org/Graphics/SVG/1.1/DTD/svg11.dtd">
<svg t="1602127459811" class="icon" viewBox="0 0 1024 1024" version="1.1" xmlns="http://www.w3.org/2000/svg" p-id="5274"  xmlns:xlink="http://www.w3.org/1999/xlink">
<defs><style type="text/css"></style></defs>
<path d="M1024 512C1024 229.236 794.764 0 512 0S0 229.236 0 512s229.236 512 512 512 512-229.236 512-512z m-232.727-93.09c51.386 0 93.09 41.704 93.09 93.09s-41.704 93.09-93.09 93.09c-51.433 0-93.091-41.657-93.091-93.09s41.658-93.09 93.09-93.09zM232.727 605.09c-51.432 0-93.09-41.657-93.09-93.09s41.658-93.09 93.09-93.09c51.386 0 93.091 41.704 93.091 93.09s-41.705 93.09-93.09 93.09zM418.91 512c0-51.433 41.658-93.09 93.091-93.09 51.386 0 93.09 41.704 93.09 93.09s-41.704 93.09-93.09 93.09c-51.433 0-93.09-41.657-93.09-93.09z" p-id="5275" fill="#515151"></path>
</svg>