<?xml version="1.0" encoding="UTF-8" standalone="no"?>
<svg
   xmlns:dc="http://purl.org/dc/elements/1.1/"
   xmlns:cc="http://creativecommons.org/ns#"
   xmlns:rdf="http://www.w3.org/1999/02/22-rdf-syntax-ns#"
   xmlns:svg="http://www.w3.org/2000/svg"
   xmlns="http://www.w3.org/2000/svg"
   xmlns:sodipodi="http://sodipodi.sourceforge.net/DTD/sodipodi-0.dtd"
   xmlns:inkscape="http://www.inkscape.org/namespaces/inkscape"
   viewBox="0 0 210 210"
   version="1.1"
   id="oil-lamp"
   fill="currentColor"
   inkscape:version="1.0 (4035a4fb49, 2020-05-01)"
   sodipodi:docname="油灯.svg">
  <defs
     id="defs2" />
  <sodipodi:namedview
     id="base"
     pagecolor="#ffffff"
     bordercolor="#666666"
     borderopacity="1.0"
     inkscape:pageopacity="0.0"
     inkscape:pageshadow="2"
     inkscape:zoom="0.49497475"
     inkscape:cx="150.43909"
     inkscape:cy="428.85972"
     inkscape:document-units="mm"
     inkscape:current-layer="layer1"
     inkscape:document-rotation="0"
     showgrid="false"
     inkscape:window-width="1413"
     inkscape:window-height="1030"
     inkscape:window-x="96"
     inkscape:window-y="0"
     inkscape:window-maximized="0" />
  <metadata
     id="metadata5">
    <rdf:RDF>
      <cc:Work
         rdf:about="">
        <dc:format>image/svg+xml</dc:format>
        <dc:type
           rdf:resource="http://purl.org/dc/dcmitype/StillImage" />
        <dc:title></dc:title>
      </cc:Work>
    </rdf:RDF>
  </metadata>
  <g
     style="display:inline"
     inkscape:label="图层 1"
     inkscape:groupmode="layer"
     id="layer1">
    <g
       id="g40"
       transform="matrix(2.2499386,0,0,2.2499742,-26.179416,-30.472887)">
      <path
         style="stroke-width:0.264583"
         d="m 53.482984,107.11796 c -2.633176,-0.2544 -4.468757,-0.61912 -7.454633,-1.48116 C 38.876783,103.57207 34.333041,99.979562 32.492297,94.934511 32.020913,93.642548 31.718219,93.279037 30.186738,92.165703 27.73188,90.381101 22.591733,85.211551 20.661221,82.585694 16.728668,77.236687 13.903584,70.881115 12.404347,64.01027 11.699488,60.779972 11.397257,53.544897 11.875765,51.356576 c 0.180581,-0.825834 0.867716,-2.656803 1.526967,-4.068821 0.719953,-1.542034 1.142688,-2.781268 1.058536,-3.103065 -0.241461,-0.923351 0.307467,-6.311185 0.900767,-8.841206 1.542476,-6.577615 5.668604,-13.499293 10.945877,-18.361973 2.466575,-2.272796 3.822382,-2.978336 5.716748,-2.974903 2.282401,0.0041 3.806414,0.88958 6.924174,4.02291 2.703478,2.716981 5.111933,5.953961 6.84793,9.203671 0.864423,1.618159 0.972394,1.718405 1.827043,1.696336 0.499584,-0.0129 3.319285,-0.174389 6.266011,-0.358864 12.725944,-0.796686 26.008451,1.574728 35.531609,6.343692 8.083645,4.048092 13.089793,9.194666 14.910943,15.329218 1.66996,5.625259 0.007,16.170483 -3.83388,24.311477 -3.27476,6.941068 -7.72579,12.479281 -14.108974,17.55515 -1.805032,1.435349 -2.153684,1.848639 -2.521204,2.988612 -0.547497,1.698228 -2.08997,4.016557 -3.595997,5.40476 -5.450395,5.024 -16.081686,7.64891 -26.789331,6.61439 z M 42.612393,68.390542 c 2.455476,-0.639572 16.913071,-7.292617 17.945573,-8.258132 0.551235,-0.515475 0.610168,-0.717023 0.392096,-1.340961 -0.432461,-1.23734 -1.422238,-1.104059 -5.429916,0.731181 -1.951633,0.893712 -5.69155,2.694763 -8.310925,4.002333 -3.751987,1.872959 -5.077531,2.408317 -6.247233,2.523114 -1.88558,0.185053 -3.747048,-0.40545 -5.200827,-1.64983 -0.589312,-0.504428 -1.140881,-0.917144 -1.225712,-0.917144 -0.272912,0 0.702006,2.213674 1.483318,3.368059 1.185066,1.750927 3.611449,2.318138 6.593626,1.54138 z M 33.318596,55.628649 c 0,-0.584877 0.629299,-1.407962 1.076471,-1.407962 0.420947,0 2.376384,-1.905224 2.830936,-2.758241 0.296105,-0.555678 0.428863,-1.44276 0.418737,-2.798008 -0.02381,-3.188063 -1.110226,-6.010381 -3.391704,-8.811133 -1.906077,-2.339908 -2.060527,-2.364081 -3.742264,-0.585671 -2.839945,3.003198 -4.638355,8.270335 -3.826422,11.206723 0.363582,1.31491 2.026623,3.262513 3.20131,3.749085 0.599453,0.2483 0.787103,0.497096 0.787103,1.04358 0,0.931275 0.01035,0.93804 1.433161,0.93804 1.069416,0 1.212672,-0.06809 1.212672,-0.576413 z"
         id="path54" />
      <path
         style="stroke-width:0.264583"
         d="m 51.707137,106.20488 c -7.263574,-1.18057 -12.654975,-3.54464 -15.712045,-6.889557 -1.535395,-1.679969 -2.513348,-3.28795 -2.921029,-4.802856 -0.256905,-0.954633 -0.663424,-1.407655 -2.818725,-3.141173 -6.214691,-4.9985 -10.307367,-10.055465 -13.471364,-16.6454 -2.377701,-4.952245 -3.774429,-9.924814 -4.384757,-15.610415 -0.534772,-4.981742 -0.0608,-8.224401 1.720978,-11.773958 0.795082,-1.583917 0.877364,-1.989664 1.041471,-5.135657 0.369649,-7.086326 2.158118,-12.442189 6.172072,-18.48328 1.476128,-2.221605 6.93852,-7.862301 8.258386,-8.527955 0.582717,-0.293885 1.503404,-0.452326 2.591928,-0.446046 2.178249,0.01257 3.386717,0.761458 6.601582,4.091019 2.687346,2.783225 4.265472,4.90787 6.267664,8.438213 1.182359,2.084782 1.500172,2.465247 2.042652,2.445336 0.353341,-0.01297 2.532195,-0.179084 4.841899,-0.369146 7.138768,-0.587439 15.29643,-0.10289 22.655746,1.345707 10.098069,1.987688 18.672537,6.08907 23.944791,11.453394 2.547544,2.59203 3.757234,4.394967 4.858504,7.241172 0.65582,1.694957 0.68916,2.020651 0.67009,6.546201 -0.0162,3.846766 -0.1327,5.296677 -0.60581,7.540624 -2.42683,11.51029 -8.296899,20.951895 -17.425624,28.027941 -2.01023,1.558213 -2.211385,1.804574 -2.860569,3.503469 -2.019319,5.284497 -7.506972,8.956187 -16.152394,10.807277 -3.490579,0.74737 -11.800845,0.95632 -15.315446,0.38509 z M 63.660388,95.74243 c 2.802226,-0.382384 6.832689,-1.417685 9.236445,-2.372561 2.841929,-1.128932 5.046122,-2.284518 5.219536,-2.736427 0.08238,-0.21468 1.139161,-1.042876 2.348399,-1.840436 7.515481,-4.95687 13.352917,-12.583535 16.243718,-21.222569 1.288811,-3.851558 2.287767,-9.881798 2.171112,-13.106031 -0.08001,-2.211417 -0.19899,-2.750923 -0.933598,-4.233333 -1.840135,-3.713308 -5.295553,-6.876098 -10.344237,-9.46821 -6.397056,-3.284402 -12.923075,-5.089657 -21.739418,-6.01365 -4.739587,-0.49673 -13.181731,-0.373783 -17.594791,0.256241 -1.455208,0.20775 -3.256867,0.462457 -4.003685,0.566012 l -1.357852,0.188283 -0.462823,-1.41901 c -0.808294,-2.478225 -2.771166,-6.177272 -4.491916,-8.465047 -1.929235,-2.564961 -5.171154,-5.786253 -5.823307,-5.786253 -0.651451,0 -3.893282,3.220244 -5.818228,5.779485 -1.733033,2.30409 -3.506664,5.608069 -4.394789,8.186759 -1.157418,3.360585 -1.396998,4.869684 -1.418446,8.934686 l -0.02101,3.983225 -0.841178,1.31086 c -2.135262,3.327516 -2.465094,5.20198 -1.812934,10.303051 0.813571,6.363599 2.316542,11.126631 5.050709,16.006098 2.939135,5.245255 7.279573,10.133406 11.629911,13.097469 1.280998,0.872797 2.818698,2.052685 3.417112,2.621976 2.261936,2.151845 9.671224,4.818155 15.375524,5.53304 1.799894,0.225571 8.43965,0.159174 10.365751,-0.103658 z"
         id="path42" />
    </g>
  </g>
</svg>
