<?xml version="1.0" encoding="utf-8"?>
<!-- Generator: Adobe Illustrator 24.0.1, SVG Export Plug-In . SVG Version: 6.00 Build 0)  -->
<svg version="1.0" id="teachers_bg" xmlns="http://www.w3.org/2000/svg" xmlns:xlink="http://www.w3.org/1999/xlink" x="0px" y="0px"
	 viewBox="0 0 763 1491" style="enable-background:new 0 0 763 1491;" xml:space="preserve">
<g id="Mask_Group_3_1_" transform="translate(0 -32)">
	<g id="Group_62_1_" transform="translate(-1298.767 1264.372)">
		<path id="Path_129_1_" style="fill:#545454;" d="M1507.6-1232.2L1361.5-17.1h630.3l-145.6-1215.1"/>
		<ellipse id="Ellipse_4_1_" style="fill:#686868;" cx="1676.6" cy="-17.1" rx="315.1" ry="104"/>
		<path id="Path_130_1_" style="fill:#343434;" d="M1724.5-230.8c-0.6-6.1-2.9-11.8-6.5-16.7c0,0,0.5-19.7-0.3-28
			c-0.7-8.3-3.7-34-5.5-39.1c-1.3-3.9-4.1-38.9-8.3-51.1c-4.5-13.3-10.8-22.8-17.6-27.6c-0.9-0.6-1.8-1.2-2.7-1.8
			c-0.8-0.8-1.7-1.5-2.6-2c-11.2-5.9-19.8-4.2-20.6-6.5c-0.4-2.7-0.5-5.5-0.3-8.2c5.9-2.3,11.4-5.5,16.3-9.5
			c17.2-14.2,24.9-43.9,19.5-63.4c-6.3-23.1-28.6-33.7-51.9-32.4c-30.1,1.7-39.1,21.5-42.2,39.8c-2.7,16-1.1,41.2,13.4,59.5
			c3.1,3.8,7.3,6.7,12,8.2c-0.2,0.8-0.5,1.5-0.9,2.2l0.1,0.1c-0.2,0.5-0.5,0.9-1,1.1c-0.2,0.1-0.6,0.2-1,0.4c-1.7-2.8-3-4.4-4.4-4.4
			c-0.9,0.1-1.7,0.4-2.5,0.9c-0.3-0.2-0.6-0.4-0.9-0.5c-1.5-0.6-3.5,0.4-5.8,2.3c-14,3.8-27.5,19.8-31.5,28.8
			c-5.3,11.8-6.3,19-9.7,30.3c-2.8,9.3-6.1,30.9-6.1,30.9s-19.9,50.2-20.9,55.3c-0.4,2.7-0.1,5.5,1.1,8c-3.6,4-6.2,8.8-7.7,14
			c-2.4,9,6,18.4,9.7,19.8c3.7,1.4,13.7,2.6,17-8.7c0.1-0.3,0.2-0.6,0.2-0.8c0.2,0.2,0.3,0.3,0.5,0.5c-0.8,9.4-1.6,18.8-2.4,28.2
			c0,0.3,0.2,0.6,0.6,0.8c-3.9,43.5-6.3,84.1-4.4,88.1c2.4,5.2,4.5,10.7,16.8,17.1c-3.4,5.7-7,10.2-15.7,16.8
			c-9.3,7.1-13.4,13.5-7.1,19.1c6.2,5.6,22.1,8.9,31.2,3.9c9.1-5,13-16.2,15.9-20.6c1-1.6,1.3-5.2,1.3-9.4
			c20.8,5.9,39.2,5.8,49.2,4.5c0.1,1.4,0.3,2.9,0.6,4.3c1.7,6.8,0.3,21.2,13.9,26.1c8.7,3.1,23.5-1.7,25.4-6.9s-0.5-13.4-7.2-22.4
			c-2.5-3.6-4.1-7.7-4.7-12c9.7-2.2,13.4-4.7,16.9-9.2c5.1-6.7,3.6-16.3,5.3-41.4c1.5-22.2,0.5-42.4,0-77.2c2.9,6.9,8.4,10,15,9.3
			C1723-211.7,1725.1-219.7,1724.5-230.8z M1698.8-242.5c-0.1-2.2-0.1-4.5-0.2-6.9c0.7,2.4,1.2,4,1.2,4S1699.3-244.3,1698.8-242.5
			L1698.8-242.5z"/>
		<path id="Path_131_1_" style="fill:#434343;" d="M1834.9-183.9c-1.5-5.3-4.1-10.2-7.7-14.3c1.2-2.5,1.5-5.4,1.1-8.1
			c-1-5.3-20.9-56.5-20.9-56.5s-3.3-22-6.1-31.5c-3.4-11.5-4.4-19-9.7-31c-4-9.2-17.6-25.5-31.6-29.4c-2.3-1.9-4.4-2.9-5.9-2.4
			c-0.3,0.1-0.7,0.3-0.9,0.5c-0.7-0.5-1.6-0.8-2.5-0.9c-1.4,0-2.8,1.6-4.5,4.4c-0.4-0.1-0.8-0.3-1-0.4c-0.4-0.3-0.8-0.7-1-1.1
			l0.1-0.1c-0.4-0.7-0.7-1.5-0.9-2.2c4.7-1.5,8.9-4.4,12.1-8.3c14.6-18.7,16.2-44.5,13.5-60.8c-3.1-18.7-12.1-38.9-42.3-40.6
			c-23.4-1.4-45.7,9.5-52.1,33c-5.4,19.9,2.3,50.2,19.6,64.7c4.9,4.1,10.5,7.4,16.4,9.7c0.2,2.8,0.1,5.6-0.3,8.4
			c-0.8,2.3-9.5,0.6-20.7,6.6c-1,0.5-1.9,1.2-2.7,2.1c-1,0.6-1.9,1.2-2.8,1.9c-6.8,4.9-13.1,14.6-17.6,28.2
			c-4.2,12.5-7,48.3-8.3,52.2c-1.8,5.3-4.7,31.4-5.5,39.9c-0.7,8.5-0.3,28.6-0.3,28.6c-3.7,5-5.9,10.9-6.5,17
			c-0.7,11.4,1.5,19.6,10.4,20.5c6.6,0.7,12.1-2.5,15-9.5c-0.5,35.5-1.5,56.2,0,78.8c1.7,25.6,0.2,35.5,5.3,42.3
			c3.5,4.6,7.2,7.2,17,9.4c-0.6,4.4-2.2,8.6-4.7,12.3c-6.8,9.2-9.1,17.6-7.2,22.9c1.9,5.3,16.7,10.2,25.4,7
			c13.7-5,12.3-19.7,14-26.7c0.3-1.4,0.5-2.9,0.6-4.4c10.1,1.3,28.5,1.4,49.4-4.6c-0.1,4.3,0.2,8,1.3,9.6
			c2.8,4.6,6.8,15.9,15.9,21.1s25,1.7,31.3-4s2.2-12.3-7.2-19.5c-8.7-6.7-12.3-11.3-15.7-17.1c12.3-6.5,14.4-12.1,16.8-17.4
			c1.9-4.1-0.5-45.5-4.4-90c0.3-0.2,0.6-0.4,0.6-0.8c-0.8-9.6-1.6-19.2-2.4-28.8c0.2-0.2,0.3-0.3,0.5-0.5c0.1,0.3,0.2,0.6,0.2,0.9
			c3.3,11.6,13.3,10.3,17.1,8.9C1828.9-165,1837.3-174.6,1834.9-183.9z M1671.9-193.2c-0.1,2.4-0.1,4.7-0.2,7c-0.6-1.9-1-3-1-3
			S1671.1-190.7,1671.9-193.2z"/>
		<g id="Group_61_1_" transform="translate(2271.497 -30.516)">
			<path id="Path_132_1_" style="fill:#FFF0DE;" d="M-652.1-290.2c-6.9,3.6-18.3,26.9-20.1,37c-1.7,10.1-5.4,45.3-5.4,45.3
				s-8,22.3-11,33.2c-2.4,8.7-6.2,31.4-6.2,31.4s-4.2,8.5-1.1,16.6c4.6,12.2,9,17.4,17.9,18.1c5.2,0.4,6.5-11.7,5-15.8
				c-3.1-8.8-2.5-10.9-2.5-10.9s7.1-19.4,10.1-27.3c3.1-7.9,12-32.4,12.8-37.8c0.6-4.1,9.4-37.9,11.2-50.8c2-14,3.7-31.3,0.8-38.4
				C-641.9-293.1-645.8-293.5-652.1-290.2z"/>
			<path id="Path_133_1_" style="fill:#FFF0DE;" d="M-638.2-314.1c0,0,0.8,15,0,17.3s1.1-2.6-8.6,5.5c-10.1,8.4-19.2,34.8-21.1,49.1
				c-1.4,10.6,1.9,38.3,1.9,38.3l103.8-4.9c0,0-0.8-61.3-12.4-74.1s-26.3-15.4-29-16.5c-2.6-1.1-4.5-17.7-4.5-17.7L-638.2-314.1z"/>
			<g id="Group_58_1_" transform="translate(44.783 67.382)">
				<path id="Path_134_1_" style="fill:#F9C8B0;" d="M-653-384.4c0,0,1.7,11.1,2.9,15.4c-2.7,2.5-9.5,5.8-14.6,6.9
					c-7.3,1.5-13.1-0.6-18.5-2.2c1.3-4.3,0.1-17,0.1-17L-653-384.4z"/>
			</g>
			<path id="Path_135_1_" style="fill:#FFF0DE;" d="M-634.9-411.3c-29.8,2.8-38.1,23.2-40.5,41.8c-2.1,16.2,1.7,46.7,17.3,63.6
				c10.5,11.4,54.2,11.3,66.8-7.1c12.6-18.5,15.1-47.8,9.1-67.3C-589.2-403.6-611.7-413.5-634.9-411.3z"/>
			<path id="Path_136_1_" style="fill:#FFF0DE;" d="M-576.1,1.1c0,12.3-1.6,26,0,32.8c1.7,6.9,0.3,21.5,13.8,26.4
				c8.7,3.2,23.3-1.7,25.2-7c1.9-5.3-0.5-13.6-7.2-22.7c-5.4-7.3-5.5-19.1-5.2-23.8c0.4-4.7,0-16.4,0-16.4L-576.1,1.1z"/>
			<path id="Path_137_1_" style="fill:#FFF0DE;" d="M-626.9,5.2c0,4.5,2.8,24.8,0,29.3s-6.8,15.8-15.8,20.9c-9,5.1-24.8,1.7-31-3.9
				s-2.2-12.2,7.1-19.3s12.7-11.9,16.3-18.3c3.6-6.4,2.5-16,2.5-16L-626.9,5.2z"/>
			<path id="Path_138_1_" style="fill:#572A08;" d="M-620.4-349.9c-4.7,0-9.5-1.1-11.2-2.6c-0.4-0.4-0.5-1-0.1-1.4
				c0.4-0.4,1-0.5,1.4-0.1c2.2,2,14.8,3.7,18.5-0.2c0.4-0.4,1-0.5,1.4-0.1c0.4,0.4,0.5,1,0.1,1.4c0,0-0.1,0.1-0.1,0.1
				C-612.3-350.7-616.3-349.9-620.4-349.9z"/>
			<path id="Path_139_1_" style="fill:#572A08;" d="M-660.2-348.4c-3-0.1-6-0.9-8.7-2.3c-0.5-0.2-0.7-0.8-0.5-1.4
				c0.2-0.5,0.8-0.7,1.4-0.5c6.2,2.8,9.5,3.1,16.9-0.4c0.5-0.2,1.1,0,1.4,0.5c0.2,0.5,0,1.1-0.5,1.4
				C-653.4-349.5-656.8-348.6-660.2-348.4z"/>
			<path id="Path_140_1_" style="fill:#572A08;" d="M-638.6-320c-3.2,0.1-6.3-0.4-9.4-1.3c-0.5-0.2-0.8-0.8-0.6-1.3
				c0.2-0.5,0.8-0.8,1.3-0.6c2.9,0.9,6,1.3,9.1,1.2c3.9-0.1,6.9-0.8,7.9-2.1c0.3-0.4,1-0.5,1.4-0.2c0.4,0.3,0.5,1,0.2,1.4l0,0
				c-1.8,2.3-6.1,2.9-9.5,2.9C-638.3-320-638.4-320-638.6-320z"/>
			<path id="Path_141_1_" style="fill:#572A08;" d="M-589.9-333.3c-0.6,0-1-0.4-1-1c0-0.5,0.4-1,0.9-1c3.1-0.4,8.2-3.9,7.7-14.5
				c-0.1-1.9-1.2-3.6-3-4.5c-2-1.1-4.4-1-6.3,0.2c-0.5,0.3-1.1,0.1-1.4-0.4c-0.3-0.5-0.1-1.1,0.4-1.4l0,0c2.5-1.6,5.7-1.7,8.3-0.3
				c2.4,1.2,3.9,3.6,4,6.2c0.5,10.5-4.4,15.9-9.5,16.6C-589.8-333.3-589.9-333.3-589.9-333.3z"/>
			<path id="Path_142_1_" style="fill:#B03C2C;" d="M-626.2-267.4c-15,13.1-43.4,25.9-43.4,25.9s-6.7,71.8-7,115.8
				c-0.4,44.6-1.9,67.5-0.2,92.9c1.7,25.4,0.2,35.2,5.2,41.9c5.1,6.8,10.7,9,35,12.4s70.5-6.8,76.1-11.3s3.2-150.4-5.5-208.9
				c-10.7-71.9-23.7-104.6-32.3-104.8C-602.9-303.6-606.9-284.3-626.2-267.4z"/>
			<path id="Path_143_1_" style="fill:#782E29;" d="M-600.3-288.5c-3.7,0.1-5.9,5.7-7.4,8.4c-4.4,8.3-9.9,16-16.2,23
				c-11.5,12.1-26.6,22.1-40.5,30.8c-1.1,0.7-0.1,1.9,0.9,1.2c13-7.9,25.3-16.9,36.8-26.9c6.9-6.3,12.8-13.7,17.5-21.8
				c1.7-2.9,3.3-5.9,5-8.7c0.7-1.1,2.2-4.3,3.8-4.4C-599.3-287-598.9-288.5-600.3-288.5L-600.3-288.5z"/>
			<path id="Path_144_1_" style="fill:#B03C2C;" d="M-594.8-303.1c-6.5,2.5-17.5,30.7-29.9,107.5S-646.1-89-647.8-52.9
				c-1.7,36.1-2.3,76.5,2.8,78.8c5.1,2.3,42.3,7.5,72.8-2.6c30.5-10.2,50.8-23.1,54.2-30.5c3.4-7.3,2.3-115.6-9-162.5
				s-25.9-113.4-36.1-120.7C-573.4-297.7-589.2-305.2-594.8-303.1z"/>
			<path id="Path_145_1_" style="fill:#782E29;" d="M-595.2-301.9c-2.7,1.1-4.3,4-5.6,6.4c-2.8,5.4-5,11.1-6.7,16.9
				c-7.8,24.5-12.4,50.2-16.6,75.5c-5,29.8-10.2,59.5-15.9,89.2c-3.5,18.7-7.1,37.4-8.4,56.4c-1.2,16.6-1.6,33.4-1.2,50
				c0,6.8,0.5,13.5,1.4,20.2c0.4,2.5,0.8,7.1,3.3,8.4c0.5,0.3,2.4-0.5,1.6-0.9c-2.3-1.2-2.6-6.1-3-8.3c-0.8-5.7-1.2-11.5-1.3-17.3
				c-0.4-16,0-32,0.9-48c1-18,4-35.8,7.3-53.5c5-26.7,10.1-53.3,14.5-80.1c4.6-27.8,9.1-55.7,16.6-82.8c2-7.7,4.5-15.2,7.7-22.5
				c1.2-2.7,3.1-7.6,6.2-8.8C-593.2-301.7-594.3-302.3-595.2-301.9L-595.2-301.9z"/>
			<path id="Path_146_1_" style="fill:#FFF0DE;" d="M-588.8-130.7c-4.5,8.3,1.4,19.5,4.6,21.7c3.3,2.2,12.6,5.8,18.5-4.6
				c5.9-10.4,11.2-29.2,2-32.5C-572.9-149.2-584.3-139.1-588.8-130.7z"/>
			<path id="Path_147_1_" style="fill:#B03C2C;" d="M-560.7-291.9c15.1,10.6,24.9,30.9,34.1,50.5c9.4,19.9,22.4,79.7,22.1,96
				c-0.3,16.5-5.2,66.6-11.9,68.3c-6.8,1.7-26.7-18.8-37.9-40.6c-11.4-22.1-20.6-28.6-18.7-32.3c2.4-4.7,15.7-46.6,15.7-46.6
				s-8.8-22.1-13.6-30.7c-5.4-9.5-10.1-19.3-14-29.5c-4.1-10.6-9.9-38.2-4.7-40.2C-581.4-300.3-565.5-295.3-560.7-291.9z"/>
			<path id="Path_148_1_" style="fill:#782E29;" d="M-516.6-80.5c-3.1,0.6-7.3-3.1-9.5-4.9c-4.2-3.5-8-7.5-11.5-11.7
				c-4.1-4.9-7.8-10-11.1-15.4c-3.6-5.7-6.4-11.8-9.9-17.6c-2.7-4.5-5.6-8.8-8.7-13.1c-1.6-2.3-3.8-4.6-4.8-7.3
				c-0.6-1.7,0-2.7,0.6-4.2c1-2.4,1.8-4.9,2.7-7.4c2.6-7.4,5-14.9,7.4-22.3c1.1-3.3,2.1-6.6,3.2-9.9c0.7-1.6,1.3-3.3,1.6-5.1
				c-0.1-1.1-0.5-2.2-1-3.2c-1.5-3.8-3.1-7.5-4.7-11.2c-3.9-9-8.4-17.6-12.9-26.3c-5.5-10.2-9.7-21.1-12.6-32.3
				c-1.3-5.3-2.2-10.6-2.8-16c-0.2-2.1-1.4-9.8,1.2-11c1.2-0.6,0.1-1.4-0.8-0.9c-2.1,1-2.4,3.5-2.6,5.7c-0.2,4.2,0.2,8.3,0.9,12.4
				c1.6,10.2,4.5,20.1,8.5,29.6c4.4,10.4,10.3,20,15,30.3c2.1,4.6,4.1,9.3,6.1,14c1.1,2.7,3.2,6,3.6,8.9c-0.1,1-0.3,2-0.7,2.9
				c-0.9,2.9-1.8,5.8-2.8,8.7c-2.5,7.9-5.1,15.8-7.8,23.7c-1,3-2.1,6.1-3.2,9.1c-0.6,1.4-1.5,2.8-1.2,4.4c0.5,2.3,2.4,4.5,3.7,6.3
				c2.8,3.9,5.6,7.9,8.2,12c4.3,6.8,7.6,14,11.8,20.8c4,6.4,8.5,12.5,13.5,18.1c3.6,4.2,7.7,8,12.2,11.3c2.5,1.7,5.4,3.5,8.6,2.9
				C-515-79.6-515.3-80.7-516.6-80.5L-516.6-80.5z"/>
			<path id="Path_149_1_" style="fill:#572A08;" d="M-642.4-330.9L-642.4-330.9c-3.5-0.2-4.8-1.7-5.3-2.9c-0.9-2.1,0.2-5,2.9-8.1
				c0.4-0.4,1-0.5,1.4-0.1c0.4,0.4,0.5,1,0.1,1.4c-2.2,2.5-3.1,4.7-2.6,6c0.5,1.2,2.1,1.5,3.4,1.6c0.6,0,1,0.5,0.9,1.1
				C-641.4-331.3-641.9-330.9-642.4-330.9L-642.4-330.9z"/>
			<path id="Path_150_1_" style="fill:#572A08;" d="M-627.7-363.9c0.2-0.6,0.6-1.2,1.1-1.6c0.5-0.4,1.1-0.7,1.8-0.9
				c1.2-0.4,2.5-0.5,3.8-0.4c1.2,0.1,2.5,0.3,3.6,0.7c1.2,0.4,2.3,1,3.3,1.7c-1.2,0-2.4,0-3.6-0.1l-3.5-0.3
				c-1.1-0.1-2.2-0.1-3.3-0.1C-625.6-364.8-626.8-364.5-627.7-363.9z"/>
			<path id="Path_151_1_" style="fill:#572A08;" d="M-654-362.9c-1-0.6-2.1-0.9-3.2-0.9c-1.1-0.1-2.2,0-3.3,0.1l-3.5,0.3
				c-1.2,0.1-2.4,0.2-3.6,0.1c1-0.7,2.1-1.3,3.3-1.7c1.2-0.4,2.4-0.7,3.6-0.7c1.3-0.1,2.6,0,3.8,0.4c0.6,0.2,1.2,0.5,1.8,0.9
				C-654.7-364.1-654.3-363.5-654-362.9z"/>
			<g id="Group_60_1_" transform="translate(0 95.202)">
				<g id="Group_59_1_">
					<path id="Path_152_1_" style="fill:#EDE8E6;" d="M-592.1-323.9c-5.1-35.8-25.6-55.9-56.5-47.4l0,0l0,0
						c-23.7,6.5-39,27.3-47.2,51c-6.1,17.8-8.3,41.1,0.1,52c6.2,8,22.2,7.5,28.3,9.4c0.1,0,0.3,0.1,0.4,0.1s0.3,0.1,0.4,0.1
						c6.7,2,26.9,14.8,41.6,11C-599-254.2-587.7-293.4-592.1-323.9z"/>
					<path id="Path_153_1_" style="fill:#572A08;" d="M-649.4-367L-649.4-367l0.1,0c12.7-3.2,24.1-1.4,33.4,6.3
						c9.3,7.7,15.7,21.1,18.1,38.6c1.9,14.8,0.2,29.8-5.1,43.7c-6.9,17.7-16.8,23.7-23.5,25.5c-4.2,1.2-9.8,0.7-16.5-1.2
						c-5.3-1.6-10.5-3.6-15.5-5.9c-2.4-1.1-4.9-2.1-7.5-3c-0.1,0-0.2-0.1-0.4-0.1l-0.1,0l-0.1,0c-0.1,0-0.2-0.1-0.4-0.1
						c-2.4-0.5-4.7-0.9-7.1-1.1c-4-0.4-7.9-1-11.8-2c-3.3-0.7-6.3-2.5-8.6-4.9c-4.5-5.6-5.1-14.6-4.9-21c0.4-9.2,2.2-18.3,5.2-27
						c3.5-10.7,9-20.7,16.1-29.4C-670.5-357.7-660.5-364.1-649.4-367 M-648.5-371.3L-648.5-371.3L-648.5-371.3
						c-23.8,6.5-39.1,27.4-47.3,51c-6.1,17.8-8.3,41.1,0.1,52c2.5,2.9,5.8,4.9,9.5,5.8c6.8,2.1,14.9,2.4,18.9,3.5
						c0.1,0,0.3,0.1,0.4,0.1c0.1,0,0.3,0.1,0.4,0.1c4.1,1.2,13.1,6.4,22.9,9.4c6.3,2,13,3,18.6,1.6c26-6.6,37.3-45.7,32.9-76.3
						C-597.2-359.8-617.7-379.8-648.5-371.3L-648.5-371.3z"/>
				</g>
				<path id="Path_154_1_" style="fill:#782E29;" d="M-664.5-274.3c-4.1-0.9-8.4,4.8-9.6,12.7c-0.1,0.5-0.1,0.9-0.2,1.4
					c2.3,0.3,4.6,0.7,6.9,1.2c0.1,0,0.3,0.1,0.4,0.1s0.3,0.1,0.4,0.1c2.5,0.9,4.9,1.9,7.2,3.1c0.1-0.5,0.2-1,0.3-1.5
					C-657.7-265.7-660.2-273.4-664.5-274.3z"/>
				<path id="Path_155_1_" style="fill:#782E29;" d="M-670.6-214.3h-7.4l9.1-57.4l7.9,1.8L-670.6-214.3z"/>
			</g>
			<path id="Path_156_1_" style="fill:#FFF0DE;" d="M-694.6-142.1c0,0-6.2,7.2-5.2,16.4c1.4,13,11.3,23.3,20.3,20.3
				c9.3-3.2,10.8-8.7,9.7-17c-1.3-9.6-6.7-13.1-6.7-13.1L-694.6-142.1z"/>
		</g>
	</g>
</g>
</svg>
