<svg xmlns="http://www.w3.org/2000/svg" width="30" height="30" viewBox="0 0 30 30"><defs><style>.a{fill:none;}.b{fill:#cdcdcd;}</style></defs><g transform="translate(-5 -5)"><rect class="a" width="30" height="30" transform="translate(5 5)"/><path class="b" d="M24.287,10.254H15.27L13.016,8H6.254a2.244,2.244,0,0,0-2.243,2.254L4,23.779a2.253,2.253,0,0,0,2.254,2.254H24.287a2.253,2.253,0,0,0,2.254-2.254V12.508A2.253,2.253,0,0,0,24.287,10.254ZM23.16,19.27H19.779v3.381H17.525V19.27H14.143V17.016h3.381V13.635h2.254v3.381H23.16Z" transform="translate(5 2.89)"/></g></svg>