<svg id="wikipali_banner" xmlns="http://www.w3.org/2000/svg" viewBox="0 0 221 54.417">
  <g id="Group_12" data-name="Group 12" transform="translate(-396 -320)">
    <g id="Group_2" data-name="Group 2" transform="translate(396 320)">
      <g id="Group_1" data-name="Group 1" transform="translate(39.472 12.369)">
        <path id="Path_1" data-name="Path 1"
          d="M252.239,132.886a1.184,1.184,0,0,1-.733-.244,1.144,1.144,0,0,1-.424-.63l-3.447-12.729a.825.825,0,0,1-.026-.206.683.683,0,0,1,.155-.411.655.655,0,0,1,.539-.257h1.234a1.129,1.129,0,0,1,.721.244,1.171,1.171,0,0,1,.411.63l1.7,6.97q.026.1.8,4.063a.046.046,0,0,0,.053.051.046.046,0,0,0,.051-.051q.925-3.96.952-4.063l1.8-6.97a1.187,1.187,0,0,1,1.132-.874h1a1.187,1.187,0,0,1,1.13.874l1.851,6.97q.153.643.475,1.993t.5,2.071a.046.046,0,0,0,.051.051.084.084,0,0,0,.078-.051q.076-.464.36-1.865t.462-2.2l1.647-6.97a1.187,1.187,0,0,1,1.132-.874h1.028a.66.66,0,0,1,.54.257.723.723,0,0,1,.155.437.813.813,0,0,1-.026.18l-3.266,12.729a1.143,1.143,0,0,1-.424.63,1.174,1.174,0,0,1-.733.244h-1.8a1.129,1.129,0,0,1-.721-.244,1.165,1.165,0,0,1-.411-.63l-1.62-6.3q-.258-1.028-.9-4.114a.1.1,0,0,0-.091-.051.091.091,0,0,0-.089.051q-.514,2.726-.9,4.142l-1.543,6.275a1.166,1.166,0,0,1-.411.63,1.12,1.12,0,0,1-.721.244h-1.671Z"
          transform="translate(-247.61 -111.903)" fill="#fff" />
        <path id="Path_2" data-name="Path 2"
          d="M395.183,81.944a1.988,1.988,0,0,1-1.389.5,1.942,1.942,0,0,1-1.376-.5,1.661,1.661,0,0,1-.539-1.274,1.692,1.692,0,0,1,.539-1.3,1.94,1.94,0,0,1,1.376-.5,1.978,1.978,0,0,1,1.389.5,1.673,1.673,0,0,1,.553,1.3A1.644,1.644,0,0,1,395.183,81.944ZM393.216,99.65a.92.92,0,0,1-.926-.926V86.072a.864.864,0,0,1,.269-.63.892.892,0,0,1,.657-.269h1.157a.9.9,0,0,1,.657.269.865.865,0,0,1,.271.63V98.723a.923.923,0,0,1-.928.926Z"
          transform="translate(-368.881 -78.666)" fill="#fff" />
        <path id="Path_3" data-name="Path 3"
          d="M444.3,98.574a.92.92,0,0,1-.926-.926V78.489a.869.869,0,0,1,.269-.63.892.892,0,0,1,.657-.269H445.4a.9.9,0,0,1,.657.269.863.863,0,0,1,.269.63v12.6c0,.018.013.026.038.026a.091.091,0,0,0,.065-.026l5.092-6.3a1.831,1.831,0,0,1,1.492-.693h1.518a.387.387,0,0,1,.373.244.382.382,0,0,1-.064.45l-4.269,5.092a.167.167,0,0,0,0,.18l4.937,7.74a.49.49,0,0,1,.078.257.481.481,0,0,1-.078.257.448.448,0,0,1-.437.257h-1.465a1.55,1.55,0,0,1-1.389-.772l-3.4-5.683c-.033-.069-.077-.077-.129-.026l-2.288,2.649a.336.336,0,0,0-.078.206v2.7a.92.92,0,0,1-.926.926Z"
          transform="translate(-412.163 -77.59)" fill="#fff" />
        <path id="Path_4" data-name="Path 4"
          d="M540.613,81.944a1.987,1.987,0,0,1-1.388.5,1.94,1.94,0,0,1-1.376-.5,1.661,1.661,0,0,1-.539-1.274,1.692,1.692,0,0,1,.539-1.3,1.942,1.942,0,0,1,1.376-.5,1.977,1.977,0,0,1,1.388.5,1.673,1.673,0,0,1,.553,1.3A1.649,1.649,0,0,1,540.613,81.944ZM538.646,99.65a.923.923,0,0,1-.928-.926V86.072a.86.86,0,0,1,.271-.63.892.892,0,0,1,.657-.269H539.8a.9.9,0,0,1,.657.269.863.863,0,0,1,.269.63V98.723a.92.92,0,0,1-.926.926Z"
          transform="translate(-491.128 -78.666)" fill="#fff" />
        <path id="Path_5" data-name="Path 5"
          d="M589.735,137.187a.92.92,0,0,1-.925-.925V117.746a.92.92,0,0,1,.925-.926h.642a1.016,1.016,0,0,1,.682.257,1.136,1.136,0,0,1,.373.642l.077.642c.018.035.038.053.064.053a.1.1,0,0,0,.065-.026,7.051,7.051,0,0,1,4.424-1.929,5,5,0,0,1,4.231,1.993,8.742,8.742,0,0,1,1.5,5.388,10.164,10.164,0,0,1-.515,3.3,6.991,6.991,0,0,1-1.389,2.469,6.473,6.473,0,0,1-1.993,1.5,5.339,5.339,0,0,1-2.353.54,5.846,5.846,0,0,1-3.729-1.569.031.031,0,0,0-.051,0,.075.075,0,0,0-.025.053l.076,2.366v3.754a.92.92,0,0,1-.926.925h-1.159Zm5.246-8.023a3.153,3.153,0,0,0,2.65-1.4,6.426,6.426,0,0,0,1.028-3.871q0-4.912-3.394-4.912a5.135,5.135,0,0,0-3.368,1.7.245.245,0,0,0-.078.18v6.866a.243.243,0,0,0,.078.18A4.734,4.734,0,0,0,594.981,129.164Z"
          transform="translate(-534.418 -110.264)" fill="#fff" />
        <path id="Path_6" data-name="Path 6"
          d="M691.509,105.4a4.264,4.264,0,0,1-3.073-1.143,4.27,4.27,0,0,1,.85-6.609,16.4,16.4,0,0,1,6.518-1.787c.069,0,.1-.041.1-.129q-.1-3.032-2.751-3.034a7.157,7.157,0,0,0-3.419,1,.864.864,0,0,1-.669.089.811.811,0,0,1-.539-.424l-.257-.462a.955.955,0,0,1-.089-.706.822.822,0,0,1,.424-.553,10.423,10.423,0,0,1,5.066-1.44,4.826,4.826,0,0,1,3.96,1.594,6.988,6.988,0,0,1,1.312,4.551v7.792a.923.923,0,0,1-.928.926h-.642a1.008,1.008,0,0,1-.681-.257,1.118,1.118,0,0,1-.373-.642l-.1-.721c-.018-.033-.038-.053-.065-.053s-.046.018-.064.053A7.155,7.155,0,0,1,691.509,105.4Zm-.977-18.027a.92.92,0,0,1-.926-.926v-.206a.92.92,0,0,1,.926-.926h6.3a.92.92,0,0,1,.925.926v.206a.92.92,0,0,1-.925.926Zm1.9,15.637a5.287,5.287,0,0,0,3.4-1.6.278.278,0,0,0,.077-.206V97.9c0-.086-.033-.12-.1-.1a11.688,11.688,0,0,0-4.346,1.17,2.336,2.336,0,0,0-1.286,2.045,1.82,1.82,0,0,0,.617,1.518A2.582,2.582,0,0,0,692.435,103.015Z"
          transform="translate(-617.157 -84.088)" fill="#fff" />
        <path id="Path_7" data-name="Path 7"
          d="M792.08,98.907a2.68,2.68,0,0,1-2.3-.952,4.607,4.607,0,0,1-.708-2.779V78.489a.865.865,0,0,1,.271-.63A.893.893,0,0,1,790,77.59h1.157a.9.9,0,0,1,.657.269.865.865,0,0,1,.271.63V95.333a1.12,1.12,0,0,0,.411,1.028c.034.018.11.061.231.129s.206.12.257.155.12.081.206.14a.691.691,0,0,1,.193.193.438.438,0,0,1,.064.231l.1.566a.736.736,0,0,1,.026.18.96.96,0,0,1-.155.54.792.792,0,0,1-.591.386C792.585,98.9,792.336,98.907,792.08,98.907Z"
          transform="translate(-702.754 -77.59)" fill="#fff" />
        <path id="Path_8" data-name="Path 8"
          d="M840.663,81.944a1.988,1.988,0,0,1-1.389.5,1.94,1.94,0,0,1-1.376-.5,1.661,1.661,0,0,1-.539-1.274,1.692,1.692,0,0,1,.539-1.3,1.939,1.939,0,0,1,1.376-.5,1.978,1.978,0,0,1,1.389.5,1.673,1.673,0,0,1,.553,1.3A1.649,1.649,0,0,1,840.663,81.944ZM838.7,99.65a.92.92,0,0,1-.926-.926V86.072a.864.864,0,0,1,.269-.63.892.892,0,0,1,.657-.269h1.157a.9.9,0,0,1,.657.269.865.865,0,0,1,.271.63V98.723a.923.923,0,0,1-.928.926Z"
          transform="translate(-743.346 -78.666)" fill="#fff" />
      </g>
      <path id="Path_9" data-name="Path 9"
        d="M125.632,125.382a1.531,1.531,0,0,1-1.532-1.532v-5.532c0-8.629,4.134-13.579,11.342-13.579a1.532,1.532,0,0,1,0,3.064c-5.493,0-8.28,3.537-8.28,10.517v5.532A1.529,1.529,0,0,1,125.632,125.382Z"
        transform="translate(-104.317 -88.043)" fill="#f1ca23" />
      <path id="Path_10" data-name="Path 10"
        d="M144.722,179.085a1.532,1.532,0,1,1,0-3.064c2.987,0,5.076-4,5.076-9.727V149.842a1.532,1.532,0,0,1,3.064,0v16.452C152.86,175.13,148.773,179.085,144.722,179.085Z"
        transform="translate(-120.364 -124.667)" fill="#f1ca23" />
      <path id="Path_11" data-name="Path 11"
        d="M84.262,37.339a1.531,1.531,0,0,1-1.532-1.532V1.532a1.532,1.532,0,0,1,3.064,0V35.809A1.531,1.531,0,0,1,84.262,37.339Z"
        transform="translate(-69.542)" fill="#f1ca23" />
      <path id="Path_12" data-name="Path 12"
        d="M42.892,37.339a1.531,1.531,0,0,1-1.532-1.532V1.532a1.532,1.532,0,0,1,3.064,0V35.809A1.531,1.531,0,0,1,42.892,37.339Z"
        transform="translate(-34.767)" fill="#f1ca23" />
      <path id="Path_13" data-name="Path 13"
        d="M1.532,37.339A1.531,1.531,0,0,1,0,35.808V1.532a1.532,1.532,0,0,1,3.064,0V35.809A1.533,1.533,0,0,1,1.532,37.339Z"
        fill="#f1ca23" />
    </g>
    <text id="studio" transform="translate(542 353.2)" fill="#fff" font-size="24"
      font-family="NotoSans-ExtraLight, Noto Sans" font-weight="200">
      <tspan x="0" y="0">Library</tspan>
    </text>
  </g>
</svg>
